<?xml version="1.0" standalone="no"?>
<!DOCTYPE svg PUBLIC "-//W3C//DTD SVG 20010904//EN"
 "http://www.w3.org/TR/2001/REC-SVG-20010904/DTD/svg10.dtd">
<svg version="1.0" xmlns="http://www.w3.org/2000/svg"
 width="710.000000pt" height="296.000000pt" viewBox="0 0 710.000000 296.000000"
 preserveAspectRatio="xMidYMid meet">

<g transform="translate(0.000000,296.000000) scale(0.100000,-0.100000)"
fill="#000000" stroke="none">
<path d="M210 2018 c1 -636 2 -701 16 -683 9 11 94 129 191 263 l175 242 63 0
c52 0 65 -3 69 -17 3 -10 19 -72 37 -138 17 -66 34 -124 38 -128 4 -4 14 0 22
9 12 14 8 32 -29 138 -23 67 -42 127 -42 134 0 8 21 12 68 12 l67 0 19 -67
c10 -38 22 -74 25 -81 5 -8 27 15 61 63 l55 74 59 1 c45 0 56 -3 49 -12 -6 -7
-49 -61 -96 -120 -62 -78 -84 -113 -80 -128 3 -11 9 -17 14 -14 12 7 200 255
206 271 3 9 25 13 62 13 l56 0 88 -279 c49 -154 91 -289 94 -300 5 -20 1 -21
-68 -21 l-74 0 -35 125 -35 125 -115 0 c-112 -1 -115 -1 -134 -27 -19 -25 -19
-27 4 -97 12 -39 29 -81 38 -93 l14 -23 -76 0 c-72 0 -76 1 -82 25 -8 33 -16
32 -37 -5 -17 -28 -22 -30 -78 -30 -44 0 -61 4 -64 15 -16 51 -15 51 -41 17
-23 -29 -30 -32 -80 -32 -30 0 -54 3 -54 8 0 4 27 39 60 77 33 39 60 75 60 80
0 6 -5 27 -11 48 l-10 37 -114 0 -115 0 -92 -125 c-79 -106 -97 -124 -120
-125 -27 0 -28 -2 -28 -50 l0 -50 785 0 785 0 0 785 0 785 -785 0 -785 0 0
-702z"/>
<path d="M2773 1770 c-72 -32 -103 -112 -69 -178 8 -15 55 -65 105 -111 96
-87 108 -112 72 -145 -28 -26 -82 -30 -144 -12 -30 9 -58 16 -61 16 -3 0 -6
-17 -6 -39 0 -59 15 -66 144 -66 100 0 114 2 144 23 63 45 81 128 41 186 -12
17 -53 58 -91 91 -90 77 -104 98 -90 130 17 36 74 49 140 32 l52 -14 0 47 c0
47 0 47 -37 54 -73 12 -157 6 -200 -14z"/>
<path d="M3193 1770 c-72 -32 -103 -112 -69 -179 8 -15 56 -65 105 -110 96
-88 108 -112 72 -145 -28 -26 -82 -30 -144 -12 -30 9 -58 16 -61 16 -3 0 -6
-20 -6 -44 0 -54 5 -57 126 -63 77 -5 97 -2 137 15 77 34 108 112 72 181 -8
16 -56 67 -106 113 -82 76 -91 88 -85 111 3 15 16 32 29 38 26 15 102 14 140
0 l27 -11 0 49 c0 48 0 48 -37 55 -73 12 -157 6 -200 -14z"/>
<path d="M3867 1776 c-72 -26 -102 -73 -94 -145 5 -42 12 -52 106 -141 105
-99 117 -122 83 -153 -34 -31 -117 -31 -195 -1 -16 6 -18 1 -15 -42 3 -45 5
-49 33 -55 68 -15 189 -9 232 11 75 34 105 119 64 186 -10 17 -55 64 -100 104
-44 41 -83 82 -86 91 -16 50 48 83 130 68 25 -5 51 -11 56 -15 6 -4 9 12 7 42
-3 42 -6 49 -28 55 -43 12 -153 9 -193 -5z"/>
<path d="M6127 1780 c-98 -25 -184 -102 -208 -187 -17 -59 -16 -145 1 -197 16
-49 72 -111 124 -139 31 -16 65 -22 138 -25 54 -2 113 -1 132 2 31 6 35 11 41
47 4 22 5 42 3 44 -2 2 -36 -1 -76 -7 -116 -18 -196 13 -238 94 -17 32 -18
125 -3 165 36 96 160 144 292 114 l37 -9 0 43 c0 24 -5 47 -10 50 -18 11 -193
15 -233 5z"/>
<path d="M2150 1519 c-74 -144 -137 -265 -138 -271 -3 -5 24 -8 62 -6 l66 3
43 92 42 92 107 1 106 0 32 -95 32 -95 65 0 c58 0 64 2 58 18 -4 9 -48 131
-99 269 l-91 253 -75 0 -75 -1 -135 -260z m260 -1 c0 -4 -31 -8 -70 -8 -41 0
-70 4 -70 10 0 6 19 47 41 93 l42 82 28 -85 c16 -46 29 -88 29 -92z"/>
<path d="M3546 1578 c-3 -112 -9 -233 -13 -270 l-6 -68 65 0 65 0 7 239 c3
132 9 254 12 270 l7 31 -65 0 -65 0 -7 -202z"/>
<path d="M4160 1735 l0 -44 83 2 82 2 -4 -130 c-2 -71 -6 -174 -10 -227 l-6
-98 61 0 61 0 7 193 c4 105 9 209 12 231 l6 38 82 -3 81 -4 3 43 3 42 -230 0
-231 0 0 -45z"/>
<path d="M4764 1573 c-59 -115 -122 -236 -141 -270 l-35 -63 69 0 68 1 44 95
45 95 105 -3 104 -3 31 -92 31 -93 63 0 c34 0 62 2 62 5 0 4 -141 397 -177
493 l-16 42 -73 0 -73 0 -107 -207z m204 32 c11 -33 23 -68 27 -77 6 -16 0
-18 -69 -18 -42 0 -76 2 -76 5 0 3 19 43 42 90 25 51 45 80 49 72 4 -6 16 -39
27 -72z"/>
<path d="M5296 1623 c-3 -87 -9 -209 -13 -270 l-6 -113 57 0 56 0 1 108 c1 59
4 148 8 197 l6 90 79 -125 c43 -69 99 -158 124 -197 l45 -73 73 0 c53 0 74 4
74 13 0 37 20 402 25 460 l6 67 -54 0 -54 0 -7 -46 c-3 -26 -6 -92 -7 -148 -1
-56 -4 -125 -7 -155 l-7 -54 -124 202 -124 201 -72 0 -72 0 -7 -157z"/>
<path d="M6467 1588 c-4 -106 -10 -229 -13 -273 l-7 -80 199 1 199 1 3 42 3
41 -138 0 -138 0 3 75 4 75 118 0 118 0 4 40 4 40 -119 0 -118 0 3 73 3 72
135 1 135 0 3 42 3 42 -199 0 -199 0 -6 -192z"/>
<path d="M567 1649 l-48 -64 62 -3 c34 -2 63 -1 65 1 3 2 -2 24 -10 48 -8 24
-16 53 -18 63 -2 16 -14 6 -51 -45z"/>
<path d="M1178 1647 l-47 -62 60 -3 c34 -2 64 0 67 3 3 3 -3 32 -14 64 l-19
60 -47 -62z"/>
<path d="M847 1479 c-12 -16 -12 -28 -4 -54 l10 -34 19 25 c14 17 18 32 13 54
-8 35 -18 38 -38 9z"/>
<path d="M210 980 c0 -20 7 -20 3324 -20 2842 0 3325 2 3329 14 3 8 3 17 0 20
-4 3 -1502 6 -3330 6 -3316 0 -3323 0 -3323 -20z"/>
<path d="M3819 593 c-100 -115 -209 -238 -241 -275 -32 -36 -55 -68 -51 -71 4
-2 24 -4 43 -3 32 1 49 18 272 271 130 149 237 273 237 278 1 4 -17 7 -38 7
-39 0 -43 -3 -222 -207z"/>
<path d="M710 660 l0 -40 50 0 50 0 0 40 0 40 -50 0 -50 0 0 -40z"/>
<path d="M4140 520 c0 -173 1 -180 20 -180 19 0 20 7 20 180 0 173 -1 180 -20
180 -19 0 -20 -7 -20 -180z"/>
<path d="M5890 675 c0 -18 5 -25 20 -25 15 0 20 7 20 25 0 18 -5 25 -20 25
-15 0 -20 -7 -20 -25z"/>
<path d="M6260 676 c0 -21 5 -26 26 -26 21 0 25 4 22 23 -2 14 -11 23 -25 25
-19 3 -23 -1 -23 -22z"/>
<path d="M2090 645 c0 -38 -3 -45 -20 -45 -16 0 -20 -7 -20 -35 0 -28 4 -35
20 -35 18 0 20 -7 20 -80 0 -102 14 -120 95 -120 l55 0 0 38 c0 34 -3 38 -22
38 -21 -1 -23 4 -26 62 -3 61 -2 62 23 62 22 0 25 4 25 35 0 31 -3 35 -25 35
-23 0 -25 4 -25 45 l0 45 -50 0 -50 0 0 -45z"/>
<path d="M3050 634 c0 -55 0 -55 -22 -40 -28 20 -42 20 -83 0 -58 -27 -82
-124 -50 -201 8 -20 23 -42 33 -49 22 -17 94 -18 111 -1 11 9 14 10 18 0 3 -8
24 -13 54 -13 l49 0 0 180 0 180 -55 0 -55 0 0 -56z m-5 -164 c0 -55 -3 -65
-19 -68 -24 -5 -36 14 -36 61 0 48 16 79 38 75 14 -3 17 -15 17 -68z"/>
<path d="M4299 593 c-57 -35 -74 -123 -40 -199 46 -102 195 -74 217 41 16 89
-39 175 -112 175 -22 0 -51 -8 -65 -17z m84 -24 c31 -14 47 -48 47 -99 0 -75
-42 -120 -94 -100 -34 12 -46 39 -46 100 0 70 14 93 67 109 1 1 13 -4 26 -10z"/>
<path d="M4546 589 c-20 -16 -26 -29 -26 -59 0 -47 18 -61 102 -79 63 -14 84
-40 54 -69 -24 -25 -95 -20 -117 7 -19 23 -49 28 -49 9 2 -55 112 -88 179 -53
32 16 41 33 41 74 0 38 -26 58 -90 72 -63 13 -80 24 -80 50 0 40 89 47 112 9
7 -10 19 -15 30 -12 21 5 22 11 5 33 -33 43 -117 53 -161 18z"/>
<path d="M4945 599 c-79 -45 -52 -128 48 -144 59 -10 77 -22 77 -51 0 -43 -82
-54 -123 -16 -21 20 -57 30 -57 16 0 -17 24 -46 50 -59 61 -31 159 -6 175 45
8 26 -11 76 -33 86 -10 3 -41 12 -71 18 -63 13 -85 37 -59 62 22 22 72 22 96
1 22 -20 52 -22 52 -4 0 41 -109 73 -155 46z"/>
<path d="M5219 595 c-81 -44 -87 -190 -10 -242 53 -36 105 -31 149 13 34 34
36 38 17 44 -15 6 -25 1 -41 -18 -41 -51 -116 -25 -130 46 l-6 32 96 0 96 0 0
28 c0 37 -34 90 -66 102 -35 14 -74 12 -105 -5z m99 -32 c11 -10 23 -28 27
-40 6 -22 4 -23 -69 -23 -42 0 -76 2 -76 5 0 17 26 55 44 63 31 16 51 14 74
-5z"/>
<path d="M5515 583 c-24 -27 -25 -27 -25 -5 0 13 -6 22 -15 22 -13 0 -15 -21
-15 -130 0 -123 1 -130 20 -130 19 0 20 7 20 90 0 83 2 93 25 115 13 14 33 25
45 25 13 0 20 7 20 20 0 30 -44 26 -75 -7z"/>
<path d="M6053 598 c-28 -13 -63 -84 -63 -126 0 -137 146 -196 205 -83 8 16
11 31 8 35 -14 14 -34 5 -43 -19 -12 -31 -53 -49 -80 -35 -29 16 -40 43 -40
100 0 61 12 88 47 101 30 11 68 -8 78 -41 6 -20 29 -27 39 -12 9 15 -25 69
-50 81 -31 14 -72 13 -101 -1z"/>
<path d="M6428 594 c-82 -44 -76 -222 8 -254 58 -22 123 -1 149 50 22 42 19
128 -5 168 -31 51 -96 67 -152 36z m109 -46 c27 -30 25 -130 -2 -157 -33 -32
-60 -34 -90 -8 -51 44 -43 155 14 183 28 14 54 8 78 -18z"/>
<path d="M6684 599 c-22 -11 -44 -48 -44 -75 0 -28 46 -62 95 -70 51 -7 88
-34 79 -57 -14 -39 -97 -42 -130 -6 -9 11 -25 19 -36 19 -21 0 -22 -4 -8 -31
31 -56 153 -66 197 -15 41 49 20 107 -44 122 -109 24 -124 35 -99 70 17 23 70
23 95 0 11 -10 30 -16 42 -14 l22 3 -24 29 c-20 23 -35 29 -75 32 -27 2 -59
-1 -70 -7z"/>
<path d="M190 465 l0 -135 50 0 50 0 0 78 c0 83 9 102 47 102 21 0 23 5 23 45
0 40 -3 45 -22 45 -12 0 -30 -7 -40 -17 -17 -15 -18 -15 -18 0 0 13 -10 17
-45 17 l-45 0 0 -135z"/>
<path d="M442 580 c-56 -34 -78 -120 -47 -180 26 -51 61 -70 127 -70 69 0 112
19 132 59 l15 28 -47 6 c-26 3 -49 1 -50 -4 -2 -5 -12 -14 -23 -19 -23 -13
-59 3 -59 25 0 12 18 15 90 15 90 0 90 0 90 25 0 43 -27 94 -62 115 -44 27
-122 27 -166 0z m116 -62 c3 -15 -4 -18 -32 -18 -38 0 -44 8 -24 28 17 17 52
11 56 -10z"/>
<path d="M710 465 l0 -135 50 0 50 0 0 135 0 135 -50 0 -50 0 0 -135z"/>
<path d="M870 465 l0 -135 50 0 50 0 0 83 c0 89 14 125 44 114 13 -5 16 -22
16 -102 l0 -95 50 0 50 0 0 115 c0 102 -2 117 -20 135 -25 25 -101 28 -124 4
-15 -14 -16 -14 -16 0 0 12 -11 16 -50 16 l-50 0 0 -135z"/>
<path d="M1179 523 c16 -43 39 -104 51 -136 l22 -58 40 3 c37 3 42 7 53 38 7
19 29 79 49 133 l35 97 -39 0 c-39 0 -39 0 -56 -57 -10 -32 -21 -62 -25 -66
-4 -5 -17 21 -29 57 l-22 66 -54 0 -53 0 28 -77z"/>
<path d="M1496 580 c-83 -54 -85 -180 -4 -230 27 -17 46 -20 102 -18 62 3 71
7 97 36 16 18 29 36 29 41 0 5 -21 11 -46 14 -37 4 -50 1 -65 -14 -23 -23 -33
-24 -53 -3 -29 28 -17 34 74 34 l90 0 0 30 c0 43 -25 87 -63 110 -43 27 -122
27 -161 0z m112 -62 c3 -15 -4 -18 -32 -18 -38 0 -44 8 -24 28 17 17 52 11 56
-10z"/>
<path d="M1760 465 l0 -135 55 0 54 0 3 98 c3 89 5 97 23 97 18 0 20 -8 23
-97 l3 -98 49 0 50 0 0 115 c0 102 -2 117 -20 135 -25 25 -95 27 -122 3 -17
-15 -18 -15 -18 0 0 14 -10 17 -50 17 l-50 0 0 -135z"/>
<path d="M2340 593 c-22 -8 -60 -45 -60 -58 0 -7 19 -15 41 -19 31 -5 46 -3
60 10 22 19 53 15 57 -9 3 -14 -4 -17 -33 -17 -41 0 -93 -19 -118 -44 -24 -25
-22 -81 5 -106 27 -25 103 -27 136 -4 20 14 22 14 22 0 0 -12 11 -16 48 -16
l47 0 -3 113 c-3 105 -5 113 -28 135 -21 18 -36 22 -92 21 -37 0 -74 -3 -82
-6z m100 -161 c0 -23 -19 -42 -42 -42 -21 0 -26 45 -5 53 27 11 47 7 47 -11z"/>
<path d="M2715 584 c-19 -10 -31 -11 -33 -5 -2 6 -24 11 -48 11 l-44 0 0 -135
0 -135 50 0 50 0 0 84 c0 97 5 116 31 116 16 0 19 -10 21 -97 l3 -98 53 -3 52
-3 0 103 c0 126 -5 145 -41 163 -36 19 -57 19 -94 -1z"/>
<path d="M3263 580 c-42 -25 -63 -68 -63 -126 0 -41 5 -51 39 -85 36 -36 43
-39 95 -39 32 0 70 7 87 15 62 32 87 121 54 186 -23 44 -71 69 -130 69 -32 0
-62 -7 -82 -20z m107 -59 c5 -11 10 -37 10 -58 0 -89 -62 -98 -68 -10 -5 73
32 116 58 68z"/>
<path d="M5642 518 c17 -46 38 -105 46 -131 14 -41 19 -48 40 -45 21 3 30 18
68 128 24 68 44 126 44 127 0 2 -8 3 -19 3 -14 0 -25 -21 -52 -100 -18 -55
-36 -96 -40 -92 -3 4 -21 49 -39 100 -28 80 -35 92 -56 92 l-23 0 31 -82z"/>
<path d="M5890 470 c0 -123 1 -130 20 -130 19 0 20 7 20 130 0 123 -1 130 -20
130 -19 0 -20 -7 -20 -130z"/>
<path d="M6260 470 c0 -123 1 -130 20 -130 19 0 20 7 20 130 0 123 -1 130 -20
130 -19 0 -20 -7 -20 -130z"/>
</g>
</svg>
