<?xml version="1.0" standalone="no"?>
<!DOCTYPE svg PUBLIC "-//W3C//DTD SVG 20010904//EN" "http://www.w3.org/TR/2001/REC-SVG-20010904/DTD/svg10.dtd">
<svg version="1.0" xmlns="http://www.w3.org/2000/svg" width="836.000000pt" height="980.000000pt"
  viewBox="0 0 836.000000 980.000000" preserveAspectRatio="xMidYMid meet">

  <g transform="translate(0.000000,980.000000) scale(0.100000,-0.100000)" fill="#003272" stroke="none">
    <path d="M34 9777 c-36 -31 -37 -79 -3 -111 23 -22 832 -356 862 -356 23 0 64
37 71 65 7 27 -15 79 -36 88 -7 2 -196 79 -420 171 -223 91 -416 166 -427 166
-11 0 -32 -11 -47 -23z" />
    <path d="M1723 9561 c-281 -80 -501 -324 -647 -713 -39 -105 -86 -285 -86
-331 0 -37 40 -77 78 -77 52 0 69 26 97 145 63 259 173 486 309 632 89 97 229
180 331 198 51 10 91 30 99 50 13 34 6 72 -17 93 -29 27 -77 28 -164 3z" />
    <path d="M8210 9549 c-114 -114 -517 -556 -529 -578 -28 -59 41 -128 100 -100
15 8 150 145 298 304 254 271 271 292 271 327 0 78 -82 105 -140 47z" />
    <path d="M5689 9487 c-107 -30 -183 -99 -177 -159 6 -66 -3 -65 728 -82 742
-18 761 -19 835 -47 113 -42 216 -173 230 -292 9 -81 -193 -7943 -206 -7991
-25 -92 -95 -185 -173 -231 -95 -55 -108 -56 -705 -40 -300 8 -614 15 -697 15
-138 0 -154 -2 -178 -21 -14 -11 -26 -30 -26 -42 0 -58 85 -137 174 -162 73
-20 1248 -51 1338 -35 141 26 258 89 352 191 66 71 101 128 134 218 20 56 25
95 33 251 5 102 53 1906 106 4010 92 3646 95 3829 80 3905 -26 125 -76 216
-171 310 -60 59 -101 90 -156 117 -121 59 -179 66 -700 78 -256 5 -535 12
-620 15 -109 3 -168 1 -201 -8z" />
    <path d="M2985 9305 c-462 -40 -867 -78 -900 -84 -105 -20 -220 -84 -306 -170
-120 -121 -179 -258 -179 -422 0 -135 657 -7904 675 -7977 56 -231 257 -416
495 -458 80 -13 106 -12 679 36 328 28 729 61 891 75 347 29 376 32 412 51
105 54 -21 191 -187 201 -40 3 -402 -24 -850 -62 -862 -73 -918 -75 -1003 -31
-103 53 -176 142 -201 246 -18 72 -673 7866 -668 7943 8 125 94 250 210 306
57 28 124 36 552 71 914 75 1172 100 1213 114 94 33 172 109 172 166 0 49 -35
71 -112 69 -29 -1 -431 -34 -893 -74z" />
    <path d="M196 9069 c-20 -16 -26 -29 -26 -59 0 -30 6 -43 26 -59 25 -20 39
-21 281 -21 l255 0 29 29 c31 32 35 50 17 84 -24 45 -30 46 -299 47 -244 0
-258 -1 -283 -21z" />
    <path d="M5205 8926 c-40 -17 -67 -49 -59 -69 3 -9 19 -20 36 -26 44 -15 200
-14 220 2 27 21 30 52 7 80 -19 25 -26 27 -97 27 -42 -1 -90 -7 -107 -14z" />
    <path d="M7720 8687 c-45 -23 -60 -86 -28 -124 5 -6 132 -77 282 -157 287
-153 318 -164 356 -126 29 29 30 84 2 111 -18 18 -534 293 -567 303 -11 3 -31
0 -45 -7z" />
    <path d="M4890 8498 c-98 -27 -101 -9 187 -1168 238 -958 247 -999 247 -1095
1 -69 -4 -116 -16 -151 -10 -28 -207 -406 -439 -839 -337 -632 -423 -800 -432
-847 -21 -116 -22 -114 396 -927 212 -410 390 -764 398 -786 7 -22 12 -78 12
-125 -1 -84 -2 -89 -137 -449 -196 -524 -199 -560 -40 -597 78 -18 1756 -61
1789 -46 16 8 26 22 29 44 9 56 178 6902 171 6920 -4 9 -18 21 -33 26 -28 10
-1668 54 -1947 51 -82 0 -166 -5 -185 -11z m1152 -128 c456 -12 768 -24 785
-31 15 -6 39 -20 51 -32 45 -42 52 -68 52 -204 0 -70 -36 -1535 -80 -3256 -63
-2480 -83 -3134 -94 -3160 -16 -40 -66 -83 -109 -95 -29 -8 -1304 20 -1431 31
-64 6 -106 47 -106 105 0 23 50 174 129 392 72 195 133 378 137 407 16 124 15
127 -400 933 -211 410 -389 763 -395 785 -15 53 -13 151 3 197 7 20 200 387
429 815 436 815 447 838 447 960 0 36 -81 375 -250 1053 -164 658 -248 1009
-244 1027 7 33 21 53 54 76 32 22 73 22 1022 -3z" />
    <path d="M2685 8274 c-280 -24 -519 -46 -531 -49 -11 -2 -25 -15 -31 -28 -8
-18 58 -846 278 -3453 159 -1886 292 -3439 294 -3451 13 -56 -7 -56 745 7 382
32 712 61 733 65 21 3 60 16 86 29 97 50 108 69 350 621 216 491 225 513 229
585 3 56 -1 89 -15 130 -10 30 -191 359 -402 730 -212 371 -395 695 -407 720
-31 63 -47 168 -35 233 5 29 122 358 259 732 138 374 255 698 261 720 14 50
14 146 0 205 -14 60 -974 2116 -1009 2160 -15 19 -51 47 -80 63 -69 36 -92 35
-725 -19z m630 -108 c28 -12 64 -38 80 -57 47 -54 960 -1989 976 -2067 23
-122 20 -134 -262 -897 l-262 -710 -1 -85 c0 -47 5 -103 12 -125 6 -22 185
-346 398 -720 212 -374 397 -702 411 -729 33 -65 46 -153 34 -222 -6 -32 -93
-241 -206 -497 -176 -398 -200 -447 -242 -489 -84 -85 -73 -83 -728 -139 -555
-47 -586 -48 -625 -33 -48 19 -86 61 -100 112 -15 53 -552 6451 -545 6490 6
34 53 95 89 114 23 13 701 75 836 77 70 1 94 -3 135 -23z" />
    <path d="M1549 5207 c-29 -22 -339 -562 -339 -591 0 -60 82 -98 128 -58 18 16
321 525 335 564 9 24 -11 76 -33 88 -25 14 -72 12 -91 -3z" />
    <path d="M5133 1264 c-3 -9 2 -32 11 -51 19 -40 126 -187 131 -181 8 8 -14
127 -29 156 -20 39 -73 92 -92 92 -8 0 -17 -7 -21 -16z" />
    <path d="M4373 1240 c-56 -12 -91 -31 -135 -77 -51 -53 -71 -105 -71 -183 2
-125 42 -205 130 -257 46 -27 53 -28 173 -26 154 2 389 26 427 45 39 19 37 49
-7 70 -42 22 -132 23 -341 6 -139 -11 -149 -10 -184 8 -52 27 -75 74 -75 151
0 52 4 66 26 92 38 46 56 52 166 62 61 5 110 15 124 24 64 41 -8 96 -123 94
-37 -1 -87 -5 -110 -9z" />
    <path d="M7712 1040 c-30 -13 -42 -48 -42 -123 0 -230 -80 -509 -180 -630 -69
-83 -173 -127 -296 -127 -56 0 -65 -3 -83 -26 -27 -35 -26 -67 3 -100 20 -24
32 -28 87 -32 222 -14 427 133 524 375 63 156 105 372 105 542 0 72 -3 91 -18
104 -23 21 -71 29 -100 17z" />
    <path d="M8240 857 c-26 -13 -30 -24 -80 -187 -45 -145 -67 -185 -149 -262
-39 -37 -72 -75 -72 -85 -4 -53 10 -79 47 -93 58 -22 154 43 225 154 61 94
141 322 141 404 0 58 -60 96 -112 69z" />
  </g>
</svg>