<svg width="36" height="36" viewBox="0 0 36 36" fill="none" xmlns="http://www.w3.org/2000/svg">
<path d="M26.43 16.1249C25.785 16.1249 25.275 15.5999 25.275 14.9699C25.275 14.4149 24.72 13.2599 23.79 12.2549C22.875 11.2799 21.87 10.7099 21.03 10.7099C20.385 10.7099 19.875 10.1849 19.875 9.5549C19.875 8.9249 20.4 8.3999 21.03 8.3999C22.53 8.3999 24.105 9.2099 25.485 10.6649C26.775 12.0299 27.6 13.7249 27.6 14.9549C27.6 15.5999 27.075 16.1249 26.43 16.1249Z" fill="white"/>
<path d="M31.8456 16.125C31.2006 16.125 30.6906 15.6 30.6906 14.97C30.6906 9.645 26.3556 5.325 21.0456 5.325C20.4006 5.325 19.8906 4.8 19.8906 4.17C19.8906 3.54 20.4006 3 21.0306 3C27.6306 3 33.0006 8.37 33.0006 14.97C33.0006 15.6 32.4756 16.125 31.8456 16.125Z" fill="#2868D8"/>
<path d="M17.685 21.315L12.78 26.22C12.24 25.74 11.715 25.245 11.205 24.735C9.66 23.175 8.265 21.54 7.02 19.83C5.79 18.12 4.8 16.41 4.08 14.715C3.36 13.005 3 11.37 3 9.81C3 8.79 3.18 7.815 3.54 6.915C3.9 6 4.47 5.16 5.265 4.41C6.225 3.465 7.275 3 8.385 3C8.805 3 9.225 3.09 9.6 3.27C9.99 3.45 10.335 3.72 10.605 4.11L14.085 9.015C14.355 9.39 14.55 9.735 14.685 10.065C14.82 10.38 14.895 10.695 14.895 10.98C14.895 11.34 14.79 11.7 14.58 12.045C14.385 12.39 14.1 12.75 13.74 13.11L12.6 14.295C12.435 14.46 12.36 14.655 12.36 14.895C12.36 15.015 12.375 15.12 12.405 15.24C12.45 15.36 12.495 15.45 12.525 15.54C12.795 16.035 13.26 16.68 13.92 17.46C14.595 18.24 15.315 19.035 16.095 19.83C16.635 20.355 17.16 20.865 17.685 21.315Z" fill="#2868D8"/>
<path d="M32.9534 27.4951C32.9534 27.9151 32.8784 28.3501 32.7284 28.7701C32.6834 28.8901 32.6384 29.0101 32.5784 29.1301C32.3234 29.6701 31.9934 30.1801 31.5584 30.6601C30.8234 31.4701 30.0134 32.0551 29.0984 32.4301C29.0834 32.4301 29.0684 32.4451 29.0534 32.4451C28.1684 32.8051 27.2084 33.0001 26.1734 33.0001C24.6434 33.0001 23.0084 32.6401 21.2834 31.9051C19.5584 31.1701 17.8334 30.1801 16.1234 28.9351C15.5384 28.5001 14.9534 28.0651 14.3984 27.6001L19.3034 22.6951C19.7234 23.0101 20.0984 23.2501 20.4134 23.4151C20.4884 23.4451 20.5784 23.4901 20.6834 23.5351C20.8034 23.5801 20.9234 23.5951 21.0584 23.5951C21.3134 23.5951 21.5084 23.5051 21.6734 23.3401L22.8134 22.2151C23.1884 21.8401 23.5484 21.5551 23.8934 21.3751C24.2384 21.1651 24.5834 21.0601 24.9584 21.0601C25.2434 21.0601 25.5434 21.1201 25.8734 21.2551C26.2034 21.3901 26.5484 21.5851 26.9234 21.8401L31.8884 25.3651C32.2784 25.6351 32.5484 25.9501 32.7134 26.3251C32.8634 26.7001 32.9534 27.0751 32.9534 27.4951Z" fill="white"/>
</svg>
