<?xml version="1.0" standalone="no"?>
<svg version="1.0" xmlns="http://www.w3.org/2000/svg" width="512" height="512" viewBox="0 0 512 512"
  preserveAspectRatio="xMidYMid meet">

  <g transform="translate(0.000000,512.000000) scale(0.100000,-0.100000)" fill="#003272" stroke="none">
    <path d="M195 5102 c-35 -11 -67 -33 -105 -72 -99 -99 -90 159 -90 -2470 0
-2629 -9 -2371 90 -2470 96 -97 -17 -90 1391 -90 1205 0 1229 0 1282 20 73 27
130 79 164 148 l28 57 3 493 c2 270 5 492 7 492 2 0 68 -31 147 -69 168 -82
209 -114 263 -207 117 -202 323 -303 533 -262 69 14 119 36 339 151 142 75
264 145 272 156 26 39 -14 111 -62 111 -12 0 -135 -58 -272 -129 -137 -72
-271 -135 -298 -142 -148 -35 -308 46 -384 196 -14 27 -54 78 -88 112 -62 62
-78 70 -677 366 -658 326 -669 332 -684 414 -15 79 33 176 106 213 78 40 72
42 492 -178 88 -46 100 -50 128 -41 33 12 50 35 50 71 0 12 -167 342 -372 733
-358 683 -372 712 -372 765 0 103 74 188 173 198 55 5 112 -20 143 -63 10 -13
162 -299 339 -637 176 -337 330 -623 342 -635 34 -38 96 -23 117 28 11 25 6
39 -50 151 -35 68 -66 128 -70 133 -16 20 -21 83 -11 122 14 52 85 119 136
129 47 9 110 0 140 -20 13 -9 55 -76 96 -153 39 -76 79 -146 87 -155 20 -23
74 -23 103 0 36 30 27 66 -55 221 -42 79 -76 155 -76 169 0 43 38 108 81 138
53 36 137 44 189 17 28 -15 46 -42 106 -157 40 -76 81 -147 90 -157 39 -43
124 -10 124 47 0 15 -34 91 -75 169 -82 155 -87 181 -55 245 56 109 221 132
302 43 27 -30 312 -578 377 -725 73 -167 137 -350 196 -564 25 -91 64 -209 86
-261 25 -58 43 -118 46 -152 10 -109 -47 -234 -134 -294 -67 -46 -83 -64 -83
-91 0 -35 40 -78 73 -79 66 0 195 119 246 227 70 149 67 284 -12 456 -19 41
-49 129 -67 195 -106 402 -181 584 -462 1118 -111 210 -139 255 -181 292 -65
59 -161 91 -249 81 -122 -12 -233 -88 -278 -189 l-19 -41 -103 0 c-88 -1 -110
-4 -153 -26 -63 -30 -134 -101 -161 -159 l-21 -45 -104 0 c-93 -1 -110 -4
-161 -29 -32 -16 -75 -48 -97 -74 l-40 -45 -3 998 -3 999 -28 57 c-34 69 -91
121 -164 148 -52 19 -77 20 -962 20 -873 0 -910 -1 -932 -19 -32 -26 -32 -86
0 -112 22 -18 59 -19 923 -19 1002 0 945 4 990 -69 20 -31 23 -52 27 -163 l3
-128 -1331 0 -1331 0 0 123 c0 135 11 173 63 211 25 18 47 22 174 26 137 5
146 6 164 29 26 32 24 67 -6 96 -23 24 -29 25 -162 24 -100 0 -152 -5 -188
-17z m2613 -1287 c1 -391 -1 -635 -7 -630 -5 6 -48 83 -95 173 l-86 163 0 250
c0 196 -3 256 -14 277 -21 41 -68 81 -107 92 -21 6 -408 10 -1029 10 -956 0
-997 -1 -1037 -19 -26 -12 -52 -35 -70 -62 l-28 -43 0 -320 c0 -318 0 -321 23
-358 13 -20 40 -47 60 -60 l37 -23 772 -3 771 -2 247 -473 c136 -259 268 -510
293 -556 l45 -84 -99 52 c-54 29 -121 61 -148 70 l-49 17 -17 85 c-36 174 -97
286 -230 419 -139 139 -281 208 -476 231 -390 46 -763 -211 -870 -601 -28
-101 -26 -311 4 -413 80 -279 290 -489 569 -569 102 -30 312 -32 413 -4 120
32 312 141 368 208 11 14 36 4 215 -86 111 -56 280 -139 375 -184 l173 -81 -3
-148 -3 -148 -1327 -3 -1328 -2 0 1735 0 1735 1328 -2 1327 -3 3 -640z m-340
58 l3 -122 -62 32 c-55 28 -71 32 -143 32 -61 -1 -93 -6 -128 -22 -135 -61
-210 -174 -210 -315 l0 -68 -712 0 c-540 0 -715 3 -724 12 -17 17 -17 549 0
566 9 9 238 12 993 10 l980 -3 3 -122z m-878 -1007 c189 -34 353 -147 452
-311 41 -68 77 -167 85 -234 l5 -46 -57 -29 c-70 -36 -128 -101 -156 -175 -27
-73 -23 -194 9 -260 12 -25 22 -48 22 -51 0 -4 -27 -28 -59 -54 -425 -333
-1039 -58 -1068 479 -15 271 133 515 382 630 126 59 250 75 385 51z m1218
-2318 c-3 -284 -4 -294 -26 -329 -45 -74 48 -69 -1304 -69 -1135 0 -1215 1
-1247 18 -19 9 -44 30 -55 45 -20 27 -21 43 -24 328 l-3 299 1331 0 1331 0 -3
-292z" />
    <path d="M1573 2308 l-252 -252 -94 92 c-83 81 -98 92 -130 92 -26 0 -41 -7
-56 -26 -38 -48 -29 -67 82 -181 113 -117 170 -163 201 -163 13 0 119 99 313
292 265 264 293 296 293 325 0 43 -30 73 -73 73 -29 0 -58 -26 -284 -252z" />
    <path d="M1200 688 c-86 -25 -134 -94 -134 -194 0 -77 34 -139 92 -172 38 -21
48 -22 315 -22 171 0 286 4 304 11 67 25 112 100 113 187 0 90 -56 169 -138
192 -47 13 -505 12 -552 -2z m531 -157 c20 -16 22 -23 14 -47 l-10 -29 -249
-3 c-263 -3 -276 0 -276 44 0 51 12 54 265 54 214 0 235 -2 256 -19z" />
  </g>
</svg>