<?xml version="1.0" encoding="UTF-8"?>
<svg xmlns="http://www.w3.org/2000/svg" xmlns:xlink="http://www.w3.org/1999/xlink" width="428pt" height="121pt" viewBox="0 0 428 121" version="1.1">
<g id="surface1">
<path style=" stroke:none;fill-rule:nonzero;fill:rgb(3.921509%,12.156677%,38.426208%);fill-opacity:1;" d="M 428.527344 120.925781 L 428.527344 -0.675781 L 48.332031 -0.675781 L 48.332031 120.925781 L 428.527344 120.925781 "/>
<path style=" stroke:none;fill-rule:nonzero;fill:rgb(100%,100%,100%);fill-opacity:1;" d="M 395.789063 55.601563 C 393.242188 52.851563 389.792969 51.503906 385.34375 51.503906 C 380.847656 51.503906 377.347656 52.851563 374.898438 55.601563 C 372.550781 58.152344 371.402344 61.5 371.402344 65.699219 C 371.402344 69.84375 372.601563 73.242188 374.949219 75.792969 C 377.496094 78.542969 380.945313 79.890625 385.34375 79.890625 C 389.695313 79.890625 393.140625 78.542969 395.640625 75.792969 C 398.039063 73.242188 399.238281 69.894531 399.238281 65.699219 C 399.238281 61.546875 398.089844 58.152344 395.789063 55.601563 Z M 387.996094 72.042969 C 387.496094 73.492188 386.59375 74.195313 385.34375 74.195313 C 382.847656 74.195313 381.597656 71.34375 381.597656 65.699219 C 381.597656 59.898438 382.847656 57 385.34375 57 C 387.59375 57 388.742188 59.898438 388.742188 65.699219 C 388.742188 68.644531 388.492188 70.746094 387.996094 72.042969 "/>
<path style=" stroke:none;fill-rule:nonzero;fill:rgb(100%,100%,100%);fill-opacity:1;" d="M 368.253906 48.753906 L 368.253906 44.707031 L 358.105469 44.707031 L 358.105469 48.753906 L 368.253906 48.753906 "/>
<path style=" stroke:none;fill-rule:nonzero;fill:rgb(100%,100%,100%);fill-opacity:1;" d="M 368.253906 79.292969 L 368.253906 52.300781 L 358.105469 52.300781 L 358.105469 79.292969 L 368.253906 79.292969 "/>
<path style=" stroke:none;fill-rule:nonzero;fill:rgb(100%,100%,100%);fill-opacity:1;" d="M 343.863281 44.707031 L 343.863281 51.652344 C 337.015625 52.550781 331.96875 54.503906 328.617188 57.550781 C 325.71875 60.199219 324.320313 63.347656 324.421875 66.996094 C 324.46875 71.34375 326.019531 74.492188 328.96875 76.441406 C 331.917969 78.34375 336.664063 79.292969 343.113281 79.292969 L 354.058594 79.292969 L 354.058594 44.707031 Z M 337.664063 72.59375 C 335.816406 71.59375 334.914063 69.746094 334.914063 66.996094 C 334.914063 64.648438 335.765625 62.546875 337.515625 60.699219 C 339.3125 58.851563 341.414063 57.949219 343.863281 57.949219 L 343.863281 73.644531 C 341.011719 73.644531 338.964844 73.292969 337.664063 72.59375 "/>
<path style=" stroke:none;fill-rule:nonzero;fill:rgb(100%,100%,100%);fill-opacity:1;" d="M 233.257813 52.152344 L 222.761719 52.152344 L 222.761719 71.246094 C 222.761719 73.742188 223.910156 75.792969 226.257813 77.34375 C 228.808594 79.042969 232.308594 79.890625 236.703125 79.890625 C 240.601563 79.890625 243.800781 79.242188 246.25 77.992188 L 250.648438 79.292969 L 250.648438 52.152344 L 240.453125 52.152344 L 240.453125 69.84375 C 240.453125 72.34375 239.203125 73.59375 236.703125 73.59375 C 234.40625 73.59375 233.257813 72.34375 233.257813 69.84375 L 233.257813 52.152344 "/>
<path style=" stroke:none;fill-rule:nonzero;fill:rgb(100%,100%,100%);fill-opacity:1;" d="M 217.3125 52.453125 C 214.664063 51.800781 212.265625 51.503906 210.214844 51.503906 C 206.066406 51.503906 202.769531 52.253906 200.421875 53.703125 C 198.371094 54.953125 197.269531 56.550781 197.171875 58.5 C 197.121094 60.75 198.46875 62.648438 201.21875 64.246094 L 208.066406 67.597656 C 209.617188 68.496094 210.363281 69.496094 210.363281 70.644531 C 210.363281 72.996094 208.414063 74.195313 204.566406 74.195313 C 201.617188 74.195313 199.171875 73.84375 197.171875 73.144531 L 196.921875 78.742188 C 200.171875 79.492188 203.417969 79.890625 206.667969 79.890625 C 211.113281 79.890625 214.5625 79.09375 216.914063 77.542969 C 219.363281 75.992188 220.5625 73.792969 220.5625 70.84375 C 220.5625 68.894531 219.960938 67.296875 218.710938 66.046875 C 217.761719 65.097656 216.414063 64.246094 214.5625 63.496094 L 210.566406 61.949219 C 208.867188 61.148438 208.015625 60.199219 208.015625 59.101563 C 208.015625 57.75 209.566406 57.050781 212.664063 57.050781 L 217.5625 57.699219 L 217.3125 52.453125 "/>
<path style=" stroke:none;fill-rule:nonzero;fill:rgb(100%,100%,100%);fill-opacity:1;" d="M 193.320313 44.707031 L 182.828125 44.707031 L 182.828125 79.292969 L 193.320313 79.292969 L 193.320313 44.707031 "/>
<path style=" stroke:none;fill-rule:nonzero;fill:rgb(100%,100%,100%);fill-opacity:1;" d="M 176.777344 55.601563 C 174.230469 52.851563 170.78125 51.503906 166.332031 51.503906 C 161.835938 51.503906 158.335938 52.851563 155.886719 55.601563 C 153.539063 58.152344 152.390625 61.5 152.390625 65.699219 C 152.390625 69.84375 153.589844 73.242188 155.9375 75.792969 C 158.484375 78.542969 161.933594 79.890625 166.332031 79.890625 C 170.679688 79.890625 174.128906 78.542969 176.628906 75.792969 C 179.078125 73.195313 180.277344 69.84375 180.277344 65.699219 C 180.277344 61.546875 179.128906 58.199219 176.777344 55.601563 Z M 169.78125 65.699219 C 169.78125 68.644531 169.53125 70.796875 168.980469 72.042969 C 168.480469 73.492188 167.582031 74.195313 166.332031 74.195313 C 163.835938 74.195313 162.585938 71.34375 162.585938 65.699219 C 162.585938 59.898438 163.835938 57 166.332031 57 C 168.632813 57 169.78125 59.898438 169.78125 65.699219 "/>
<path style=" stroke:none;fill-rule:nonzero;fill:rgb(100%,100%,100%);fill-opacity:1;" d="M 311.074219 48.753906 L 321.269531 48.753906 L 321.269531 44.707031 L 311.074219 44.707031 L 311.074219 48.753906 "/>
<path style=" stroke:none;fill-rule:nonzero;fill:rgb(100%,100%,100%);fill-opacity:1;" d="M 321.269531 52.300781 L 311.074219 52.300781 L 311.074219 79.292969 L 321.269531 79.292969 L 321.269531 52.300781 "/>
<path style=" stroke:none;fill-rule:nonzero;fill:rgb(100%,100%,100%);fill-opacity:1;" d="M 298.078125 51.503906 C 293.933594 51.503906 290.632813 52.253906 288.285156 53.703125 C 286.234375 54.953125 285.136719 56.550781 285.035156 58.5 C 284.984375 60.75 286.335938 62.648438 289.085938 64.246094 L 295.929688 67.597656 C 297.480469 68.496094 298.230469 69.496094 298.230469 70.644531 C 298.230469 72.996094 296.28125 74.195313 292.433594 74.195313 C 289.484375 74.195313 287.035156 73.84375 285.035156 73.144531 L 284.785156 78.742188 C 288.035156 79.492188 291.28125 79.890625 294.53125 79.890625 C 298.980469 79.890625 302.429688 79.09375 304.777344 77.542969 C 307.226563 75.992188 308.425781 73.792969 308.425781 70.84375 C 308.425781 68.945313 307.828125 67.347656 306.578125 66.046875 C 305.675781 65.097656 304.277344 64.246094 302.429688 63.496094 L 298.429688 61.949219 C 296.730469 61.148438 295.882813 60.199219 295.882813 59.101563 C 295.882813 57.75 297.429688 57.050781 300.480469 57.050781 C 302.277344 57.050781 303.929688 57.25 305.425781 57.699219 L 305.128906 52.453125 C 302.480469 51.800781 300.128906 51.503906 298.078125 51.503906 "/>
<path style=" stroke:none;fill-rule:nonzero;fill:rgb(100%,100%,100%);fill-opacity:1;" d="M 263.992188 51.652344 L 263.992188 44.707031 L 253.796875 44.707031 L 253.796875 79.292969 L 264.742188 79.292969 C 271.191406 79.292969 275.890625 78.34375 278.839844 76.441406 C 281.785156 74.59375 283.335938 71.445313 283.4375 66.996094 C 283.484375 63.296875 282.085938 60.148438 279.238281 57.550781 C 275.890625 54.503906 270.839844 52.550781 263.992188 51.652344 Z M 263.992188 73.644531 L 263.992188 57.949219 C 266.441406 57.949219 268.492188 58.851563 270.242188 60.699219 C 272.039063 62.546875 272.941406 64.648438 272.941406 66.996094 C 272.941406 69.746094 272.039063 71.59375 270.191406 72.59375 C 268.890625 73.292969 266.84375 73.644531 263.992188 73.644531 "/>
<path style=" stroke:none;fill-rule:nonzero;fill:rgb(100%,98.826599%,0%);fill-opacity:1;" d="M 129.199219 26.964844 L 98.960938 26.964844 L 98.960938 57.199219 Z M 129.199219 26.964844 "/>
<path style=" stroke:none;fill-rule:nonzero;fill:rgb(100%,100%,100%);fill-opacity:1;" d="M 150.140625 50.601563 L 150.140625 44.207031 C 143.191406 44.40625 137.59375 46.054688 133.246094 49.203125 C 128.699219 52.453125 126.398438 56.652344 126.398438 61.898438 C 126.398438 67.648438 128.949219 72.09375 134.046875 75.34375 C 138.394531 78.140625 143.792969 79.640625 150.140625 79.84375 L 150.140625 73.195313 C 147.140625 72.746094 144.492188 71.746094 142.191406 70.296875 C 138.894531 68.148438 137.246094 65.347656 137.246094 61.898438 C 137.246094 58.648438 138.695313 56 141.644531 53.851563 C 144.042969 52.050781 146.890625 50.953125 150.140625 50.601563 "/>
<path style=" stroke:none;fill-rule:nonzero;fill:rgb(100%,98.826599%,0%);fill-opacity:1;" d="M 83.617188 41.757813 L 97.160156 41.757813 L 97.160156 28.210938 Z M 83.617188 41.757813 "/>
<path style=" stroke:none;fill-rule:nonzero;fill:rgb(100%,98.826599%,0%);fill-opacity:1;" d="M 97.160156 43.605469 L 82.316406 43.605469 L 82.316406 58.402344 L 97.160156 58.402344 L 97.160156 43.605469 "/>
<path style=" stroke:none;fill-rule:nonzero;fill:rgb(100%,98.826599%,0%);fill-opacity:1;" d="M 97.160156 60.199219 L 83.617188 60.199219 L 97.160156 73.742188 Z M 97.160156 60.199219 "/>
<path style=" stroke:none;fill-rule:nonzero;fill:rgb(100%,98.826599%,0%);fill-opacity:1;" d="M 82.316406 61.5 L 82.316406 75.59375 L 97.160156 90.4375 L 97.160156 76.34375 L 82.316406 61.5 "/>
<path style=" stroke:none;fill-rule:nonzero;fill:rgb(100%,98.826599%,0%);fill-opacity:1;" d="M 80.515625 73.84375 L 80.515625 44.855469 L 66.023438 59.351563 Z M 80.515625 73.84375 "/>
<path style=" stroke:none;fill-rule:nonzero;fill:rgb(100%,98.826599%,0%);fill-opacity:1;" d="M 129.199219 91.738281 L 98.960938 61.5 L 98.960938 91.738281 Z M 129.199219 91.738281 "/>
</g>
</svg>
