<?xml version="1.0" standalone="no"?>
<!DOCTYPE svg PUBLIC "-//W3C//DTD SVG 20010904//EN"
 "http://www.w3.org/TR/2001/REC-SVG-20010904/DTD/svg10.dtd">
<svg version="1.0" xmlns="http://www.w3.org/2000/svg"
 width="119.000000pt" height="88.000000pt" viewBox="0 0 119.000000 88.000000"
 preserveAspectRatio="xMidYMid meet">

<g transform="translate(0.000000,88.000000) scale(0.100000,-0.100000)"
fill="#003272" stroke="none">
<path d="M0 868 c0 -10 21 -18 77 -26 80 -13 140 -41 181 -85 l23 -25 -20 -41
c-25 -48 -27 -120 -6 -165 9 -18 42 -59 75 -91 l60 -59 35 34 35 34 48 -47
c26 -26 51 -47 55 -47 19 0 3 30 -38 70 l-45 44 42 43 c23 24 47 43 53 43 6 0
29 -18 50 -40 35 -36 65 -51 65 -33 0 4 -21 29 -47 55 l-47 48 34 35 34 35
-54 55 c-93 94 -169 116 -259 75 l-44 -20 -43 35 c-60 49 -122 75 -199 82 -53
5 -65 3 -65 -9z m480 -108 c21 -6 56 -31 85 -60 l49 -50 -114 -115 -114 -115
-38 37 c-46 45 -78 107 -78 152 0 66 51 131 119 151 36 11 51 11 91 0z"/>
<path d="M667 363 l-137 -138 57 -57 c32 -31 72 -63 90 -72 45 -23 130 -21
176 4 l37 20 39 -35 c52 -47 117 -74 196 -82 55 -5 65 -3 65 10 0 11 -16 17
-62 22 -79 9 -120 26 -175 71 l-44 36 19 31 c52 86 35 163 -57 259 l-66 69
-138 -138z m197 35 c49 -56 62 -94 53 -158 -10 -77 -74 -130 -157 -130 -52 0
-73 11 -133 68 l-47 46 112 113 c62 62 116 113 120 113 3 0 27 -24 52 -52z"/>
</g>
</svg>
