<?xml version="1.0" standalone="no"?>
<!DOCTYPE svg PUBLIC "-//W3C//DTD SVG 20010904//EN" "http://www.w3.org/TR/2001/REC-SVG-20010904/DTD/svg10.dtd">
<svg version="1.0" xmlns="http://www.w3.org/2000/svg" width="512.000000pt" height="512.000000pt"
  viewBox="0 0 512.000000 512.000000" preserveAspectRatio="xMidYMid meet">

  <g transform="translate(0.000000,512.000000) scale(0.100000,-0.100000)" stroke="none">
    <path d="M3744 4690 c-211 -55 -380 -215 -439 -415 l-12 -40 -729 -5 c-686 -5
-731 -6 -764 -24 -49 -26 -108 -84 -133 -131 -21 -39 -22 -50 -25 -487 l-3
-448 -386 0 c-378 0 -386 0 -424 -22 -25 -14 -46 -37 -59 -64 -20 -40 -20 -57
-18 -577 3 -523 3 -536 24 -563 11 -15 33 -37 48 -48 27 -21 34 -21 984 -21
l957 0 31 22 c17 12 40 35 50 50 18 27 19 56 19 575 0 539 0 547 -21 575 -11
15 -36 38 -54 51 l-33 22 -494 0 -494 0 3 423 c3 404 4 424 23 457 12 19 36
43 55 55 34 20 49 20 730 20 l695 0 7 -61 c9 -85 25 -138 63 -214 82 -164 239
-285 413 -321 l62 -13 0 -1163 0 -1163 -1022 2 -1023 3 -3 249 c-2 215 -5 252
-19 268 -21 24 -68 23 -93 -2 -19 -19 -20 -33 -20 -528 0 -587 -2 -571 85
-659 89 -89 24 -84 1096 -81 l934 3 51 27 c56 29 93 68 127 132 l22 41 3 1435
2 1435 61 12 c268 51 478 308 481 588 1 112 -13 177 -62 280 -124 259 -421
398 -696 325z m319 -149 c167 -65 286 -225 304 -406 21 -224 -146 -453 -367
-504 -267 -62 -538 123 -580 395 -35 227 106 452 330 526 78 26 232 20 313
-11z m-1333 -1641 l0 -100 -920 0 -920 0 0 100 0 100 920 0 920 0 0 -100z m0
-305 l0 -65 -920 0 -920 0 0 65 0 65 920 0 920 0 0 -65z m0 -410 l0 -205 -920
0 -920 0 0 205 0 205 920 0 920 0 0 -205z m1090 -1346 c0 -203 -7 -233 -65
-269 -32 -20 -47 -20 -956 -20 -899 0 -925 1 -956 20 -60 36 -67 64 -71 268
l-4 182 1026 0 1026 0 0 -181z" />
    <path d="M4058 4358 c-9 -7 -67 -91 -130 -185 l-114 -173 -35 36 c-61 64 -98
73 -141 36 -38 -32 -23 -69 63 -157 83 -86 115 -103 149 -85 33 18 310 440
310 472 0 53 -63 87 -102 56z" />
    <path d="M1048 2233 c-28 -32 -30 -58 -7 -86 l20 -27 235 0 c221 0 235 1 254
20 11 11 20 31 20 45 0 14 -9 34 -20 45 -19 19 -33 20 -253 20 -210 0 -235 -2
-249 -17z" />
    <path d="M1660 2230 c-24 -24 -26 -57 -4 -88 14 -21 22 -22 150 -22 121 0 136
2 154 20 11 11 20 31 20 45 0 14 -9 34 -20 45 -18 18 -33 20 -150 20 -117 0
-132 -2 -150 -20z" />
    <path d="M2717 948 c-120 -32 -161 -194 -72 -283 119 -119 319 -7 283 159 -21
95 -114 150 -211 124z" />
    <path d="M1317 4212 c-15 -16 -17 -47 -17 -219 0 -186 1 -201 20 -218 10 -9
31 -17 45 -17 14 0 35 8 45 17 19 17 20 32 20 220 0 183 -2 203 -18 218 -25
22 -75 21 -95 -1z" />
    <path d="M812 4054 c-15 -10 -22 -25 -22 -48 0 -28 18 -49 143 -174 86 -85
151 -142 163 -142 37 0 64 28 64 68 0 33 -11 47 -138 174 -145 145 -163 155
-210 122z" />
    <path d="M2031 3876 c-48 -27 -63 -84 -36 -136 47 -91 185 -53 185 50 0 78
-80 124 -149 86z" />
    <path d="M2292 3865 c-35 -29 -47 -70 -33 -107 35 -92 157 -92 192 0 23 59
-30 132 -96 132 -21 0 -44 -9 -63 -25z" />
    <path d="M2559 3861 c-62 -62 -20 -171 66 -171 20 0 45 5 56 10 22 12 49 61
49 89 0 88 -109 134 -171 72z" />
    <path d="M647 3539 c-43 -25 -36 -102 10 -120 13 -5 104 -9 202 -9 165 0 180
2 205 21 32 25 35 70 6 99 -19 19 -33 20 -212 20 -117 0 -200 -5 -211 -11z" />
  </g>
</svg>