<?xml version="1.0" encoding="iso-8859-1"?>
<!-- Generator: Adobe Illustrator 19.0.0, SVG Export Plug-In . SVG Version: 6.00 Build 0)  -->
<svg version="1.1" id="Capa_1" xmlns="http://www.w3.org/2000/svg" xmlns:xlink="http://www.w3.org/1999/xlink" x="0px" y="0px"
	 viewBox="0 0 508.1 508.1" style="enable-background:new 0 0 508.1 508.1;" xml:space="preserve">
<g>
	<g>
		<g>
			<path d="M467.05,0h-278.5c-13.6,0-24.6,11-24.6,24.6v81.9H41.05c-13.6,0-24.6,11-24.6,24.6v278.6c0,13.6,11,24.6,24.6,24.6h122.9
				v49.2c0,13.6,11,24.6,24.6,24.6h278.5c13.6,0,24.6-11,24.6-24.6V24.6C491.65,11,480.65,0,467.05,0z M180.25,24.5
				c0-4.5,3.7-8.2,8.2-8.2h278.6c4.5,0,8.2,3.7,8.2,8.2v41h-295V24.5z M180.25,81.9h295v311.4h-245.8V131.1
				c0-13.6-11-24.6-24.6-24.6h-24.6V81.9z M32.85,131.1c0-4.5,3.7-8.2,8.2-8.2h163.9c4.5,0,8.2,3.7,8.2,8.2v24.6H32.85V131.1z
				 M32.85,172.1h180.2v196.6H32.85V172.1z M41.05,417.9c-4.5,0-8.2-3.7-8.2-8.2v-24.6h180.2v24.6c0,4.5-3.7,8.2-8.2,8.2H41.05z
				 M475.35,483.4h-0.1c0,4.5-3.7,8.2-8.2,8.2h-278.5c-4.5,0-8.2-3.7-8.2-8.2v-49.2h24.6c13.6,0,24.6-11,24.6-24.6h245.8V483.4z"/>
			<rect x="98.35" y="131.1" width="49.2" height="16.4"/>
			<rect x="65.55" y="131.1" width="16.4" height="16.4"/>
			<rect x="114.75" y="393.3" width="16.4" height="16.4"/>
			<rect x="295.05" y="32.8" width="65.5" height="16.4"/>
			<path d="M327.75,483.4c18.1,0,32.8-14.7,32.8-32.8s-14.7-32.8-32.8-32.8s-32.8,14.7-32.8,32.8
				C295.05,468.7,309.75,483.4,327.75,483.4z M327.75,434.3c9,0,16.4,7.3,16.4,16.4c0,9-7.4,16.4-16.4,16.4s-16.4-7.3-16.4-16.4
				C311.45,441.6,318.75,434.3,327.75,434.3z"/>
		</g>
	</g>
</g>
<g>
</g>
<g>
</g>
<g>
</g>
<g>
</g>
<g>
</g>
<g>
</g>
<g>
</g>
<g>
</g>
<g>
</g>
<g>
</g>
<g>
</g>
<g>
</g>
<g>
</g>
<g>
</g>
<g>
</g>
</svg>
