<svg viewBox="0 0 96 96" xmlns="http://www.w3.org/2000/svg" xmlns:xlink="http://www.w3.org/1999/xlink" id="Icons_WashingMachine_M" overflow="hidden"><g id="Icons"><path d="M16 8 16 88 80 88 80 8ZM78 10 78 25 18 25 18 10ZM18 86 18 27 78 27 78 86Z" stroke="#2F5597"/><path d="M48 36C36.9543 36 28 44.9543 28 56 28 67.0457 36.9543 76 48 76 59.0457 76 68 67.0457 68 56 67.9873 44.9596 59.0404 36.0127 48 36ZM48 74C38.0589 74 30 65.9411 30 56 30 46.0589 38.0589 38 48 38 57.9411 38 66 46.0589 66 56 65.9884 65.9363 57.9363 73.9884 48 74Z" stroke="#2F5597"/><path d="M48 42C40.268 42 34 48.268 34 56 34 63.732 40.268 70 48 70 55.732 70 62 63.732 62 56 61.9917 48.2714 55.7286 42.0083 48 42ZM48 68C42.4037 67.9907 37.555 64.1186 36.308 58.663 36.7386 58.7861 37.1853 58.8437 37.633 58.834 38.8713 58.7888 40.0332 58.2234 40.833 57.277 41.7832 56.2368 43.3967 56.1638 44.437 57.114 44.4937 57.1658 44.5481 57.2202 44.6 57.277 46.2018 59.1548 49.0226 59.3785 50.9003 57.7767 51.0798 57.6236 51.2469 57.4565 51.4 57.277 51.8714 56.7241 52.5615 56.4058 53.288 56.406L53.3 56.406C54.0222 56.4074 54.7073 56.7259 55.174 57.277 56.2695 58.601 58.048 59.1456 59.697 58.662 58.4503 64.12 53.5986 67.9933 48 68ZM59.981 56.376C58.9472 57.1187 57.5167 56.9447 56.691 55.976 55.8456 54.9807 54.6059 54.4067 53.3 54.406L53.29 54.406C51.9792 54.406 50.7341 54.9801 49.883 55.977 48.9333 57.0169 47.3204 57.0901 46.2805 56.1405 46.2235 56.0885 46.169 56.0339 46.117 55.977 45.2679 54.9814 44.0255 54.4074 42.717 54.406L42.717 54.406C41.4083 54.4064 40.1656 54.9807 39.317 55.977 38.8765 56.4976 38.2374 56.809 37.556 56.835 37.0083 56.8569 36.469 56.695 36.024 56.375 36.024 56.249 36.005 56.126 36.005 56 36.005 49.3726 41.3776 44 48.005 44 54.6324 44 60.005 49.3726 60.005 56 60 56.127 59.985 56.25 59.981 56.376Z" stroke="#2F5597"/><path d="M48.5 21C50.433 21 52 19.433 52 17.5 52 15.567 50.433 14 48.5 14 46.567 14 45 15.567 45 17.5 45 19.433 46.567 21 48.5 21ZM48.5 16C49.3284 16 50 16.6716 50 17.5 50 18.3284 49.3284 19 48.5 19 47.6716 19 47 18.3284 47 17.5 47 16.6716 47.6716 16 48.5 16Z" stroke="#2F5597"/><path d="M58.5 21C60.433 21 62 19.433 62 17.5 62 15.567 60.433 14 58.5 14 56.567 14 55 15.567 55 17.5 55 19.433 56.567 21 58.5 21ZM58.5 16C59.3284 16 60 16.6716 60 17.5 60 18.3284 59.3284 19 58.5 19 57.6716 19 57 18.3284 57 17.5 57 16.6716 57.6716 16 58.5 16Z" stroke="#2F5597"/><path d="M68.5 21C70.433 21 72 19.433 72 17.5 72 15.567 70.433 14 68.5 14 66.567 14 65 15.567 65 17.5 65 19.433 66.567 21 68.5 21ZM68.5 16C69.3284 16 70 16.6716 70 17.5 70 18.3284 69.3284 19 68.5 19 67.6716 19 67 18.3284 67 17.5 67 16.6716 67.6716 16 68.5 16Z" stroke="#2F5597"/><path d="M38 14 24 14 24 21 38 21ZM36 19 26 19 26 16 36 16Z" stroke="#2F5597"/></g></svg>