<?xml version="1.0" standalone="no"?>
<!DOCTYPE svg PUBLIC "-//W3C//DTD SVG 20010904//EN" "http://www.w3.org/TR/2001/REC-SVG-20010904/DTD/svg10.dtd">
<svg version="1.0" xmlns="http://www.w3.org/2000/svg" width="760.000000pt" height="420.000000pt"
  viewBox="0 0 760.000000 420.000000" preserveAspectRatio="xMidYMid meet">

  <g transform="translate(0.000000,420.000000) scale(0.100000,-0.100000)" fill="#002561" stroke="none">
    <path d="M6770 2735 c-96 -36 -280 -104 -409 -151 -129 -47 -246 -93 -259
-102 -14 -9 -31 -31 -38 -49 -43 -101 26 -201 130 -190 38 4 734 256 821 297
121 58 96 232 -36 254 -26 5 -73 -9 -209 -59z" />
    <path d="M2555 2377 c-132 -35 -225 -110 -266 -214 -31 -83 -31 -224 1 -307
46 -120 156 -202 303 -227 74 -12 193 -7 260 12 l37 10 0 74 c0 41 -2 75 -4
75 -2 0 -33 -7 -68 -16 -115 -30 -237 -6 -294 58 -42 46 -58 90 -58 164 -1 95
30 156 99 199 65 40 173 47 254 16 30 -11 56 -19 58 -18 1 2 5 35 9 74 l7 71
-54 17 c-71 22 -220 28 -284 12z" />
    <path d="M3170 2375 c-126 -35 -190 -107 -190 -211 0 -117 50 -170 210 -223
96 -31 130 -55 130 -89 0 -18 -10 -38 -26 -53 -23 -21 -35 -24 -102 -24 -47 0
-98 7 -131 18 -29 10 -54 17 -56 15 -2 -2 -6 -35 -10 -75 l-7 -72 39 -11 c62
-19 226 -24 294 -10 146 31 226 153 189 290 -19 73 -77 120 -187 153 -107 32
-143 56 -143 97 0 61 102 86 220 56 34 -9 65 -15 67 -13 2 2 6 34 10 70 l6 65
-39 12 c-67 19 -213 22 -274 5z" />
    <path d="M3768 2371 c-120 -31 -183 -104 -182 -211 0 -67 25 -122 69 -156 18
-14 79 -42 135 -62 118 -43 148 -69 131 -116 -22 -57 -146 -72 -260 -32 -24 9
-47 14 -50 10 -11 -11 -18 -139 -7 -146 24 -16 155 -30 240 -26 186 9 275 86
276 238 0 76 -26 131 -78 167 -18 12 -78 36 -133 53 -73 23 -103 37 -115 55
-50 76 72 128 216 91 34 -9 64 -15 65 -14 2 2 5 33 7 70 4 76 10 70 -86 87
-83 15 -150 13 -228 -8z" />
    <path d="M4423 2376 c-91 -29 -157 -88 -200 -181 -26 -56 -28 -69 -28 -185 0
-116 2 -129 28 -186 16 -34 47 -80 70 -102 133 -130 390 -129 520 1 111 111
136 336 55 497 -58 114 -163 171 -316 169 -48 0 -106 -6 -129 -13z m195 -146
c61 -37 94 -119 94 -228 -1 -155 -83 -255 -191 -231 -127 28 -177 285 -81 419
42 58 119 76 178 40z" />
    <path d="M6835 2348 c-44 -17 -219 -82 -390 -145 -170 -63 -322 -122 -337
-131 -78 -46 -75 -174 5 -222 61 -38 48 -41 622 172 149 55 282 106 297 114
79 41 80 176 3 224 -45 28 -104 24 -200 -12z" />
    <path d="M520 2005 l0 -365 285 0 285 0 0 75 0 75 -185 0 -185 0 0 70 0 70
175 0 175 0 0 75 0 75 -175 0 -175 0 0 70 0 70 180 0 180 0 0 75 0 75 -280 0
-280 0 0 -365z" />
    <path d="M1232 2003 l3 -368 93 -3 92 -3 0 140 c0 102 3 140 13 144 7 2 36 2
65 -1 65 -6 68 -10 122 -163 l42 -119 99 0 c76 0 99 3 99 13 0 30 -109 310
-129 331 -24 26 -26 36 -7 36 21 0 65 39 83 73 10 20 17 56 17 94 0 79 -31
130 -101 164 -45 23 -60 24 -271 27 l-222 3 2 -368z m369 198 c45 -45 37 -100
-18 -129 -12 -7 -53 -12 -92 -12 l-71 0 0 85 0 85 76 0 c70 0 78 -2 105 -29z" />
    <path d="M1967 2003 l2 -368 93 0 93 0 3 368 2 367 -97 0 -98 0 2 -367z" />
    <path d="M5020 2000 l0 -370 90 0 90 0 2 243 3 242 127 -240 127 -240 115 -3
116 -3 0 371 0 370 -90 0 -90 0 -1 -237 0 -238 -120 238 -119 237 -125 0 -125
0 0 -370z" />
    <path d="M6760 1909 c-85 -32 -263 -98 -395 -146 -264 -96 -301 -118 -312
-185 -3 -20 -3 -48 1 -62 10 -40 55 -85 96 -96 36 -10 62 -2 452 142 227 83
423 158 436 166 75 48 70 179 -8 226 -47 27 -104 18 -270 -45z" />
  </g>
</svg>