<svg viewBox="0 0 96 96" xmlns="http://www.w3.org/2000/svg" xmlns:xlink="http://www.w3.org/1999/xlink" id="Icons_DoNotWashingMachine_M" overflow="hidden"><g id="Icons"><path d="M65 17.5C65 19.433 66.567 21 68.5 21 70.433 21 72 19.433 72 17.5 72 15.567 70.433 14 68.5 14 66.567 14 65 15.567 65 17.5ZM70 17.5C70 18.3284 69.3284 19 68.5 19 67.6716 19 67 18.3284 67 17.5 67 16.6716 67.6716 16 68.5 16 69.3284 16 70 16.6716 70 17.5Z" stroke="#2F5597"/><path d="M55 17.5C55 19.433 56.567 21 58.5 21 60.433 21 62 19.433 62 17.5 62 15.567 60.433 14 58.5 14 56.567 14 55 15.567 55 17.5ZM60 17.5C60 18.3284 59.3284 19 58.5 19 57.6716 19 57 18.3284 57 17.5 57 16.6716 57.6716 16 58.5 16 59.3284 16 60 16.6716 60 17.5Z" stroke="#2F5597"/><path d="M18 27 68.172 27 70.172 25 18 25 18 10 78 10 78 17.172 80 15.172 80 8 16 8 16 79.172 18 77.172 18 27Z" stroke="#2F5597"/><path d="M38 21 38 14 24 14 24 21ZM26 16 36 16 36 19 26 19Z" stroke="#2F5597"/><path d="M48 44C48.9515 44.0035 49.8993 44.1207 50.823 44.349L52.439 42.733C45.1267 40.2666 37.1994 44.1949 34.733 51.5072 33.7558 54.4043 33.7558 57.5419 34.733 60.439L36.351 58.821C36.338 58.767 36.32 58.721 36.308 58.663 36.363 58.677 36.419 58.684 36.475 58.697L38.616 56.556 38.677 56.495C38.682 56.495 38.625 56.525 38.599 56.539 38.2774 56.7183 37.9188 56.8209 37.551 56.839 37.0033 56.8609 36.464 56.699 36.019 56.379 36.019 56.253 36 56.13 36 56.004 36.005 49.378 41.374 44.0072 48 44Z" stroke="#2F5597"/><path d="M57.005 38.167C47.1782 33.1715 35.1625 37.0881 30.167 46.9149 27.2776 52.5988 27.2776 59.3211 30.167 65.005L31.667 63.505C27.5025 54.5019 31.4249 43.8275 40.4279 39.663 45.2115 37.4503 50.7255 37.4503 55.509 39.663Z" stroke="#2F5597"/><path d="M45 17.5C45 19.433 46.567 21 48.5 21 50.433 21 52 19.433 52 17.5 52 15.567 50.433 14 48.5 14 46.567 14 45 15.567 45 17.5ZM50 17.5C50 18.3284 49.3284 19 48.5 19 47.6716 19 47 18.3284 47 17.5 47 16.6716 47.6716 16 48.5 16 49.3284 16 50 16.6716 50 17.5Z" stroke="#2F5597"/><path d="M91.207 12.207 89.793 10.793 8.634 91.953 10.048 93.367 16 87.414 16 88 80 88 80 23.414ZM66 56C66.0171 65.9256 57.9847 73.9859 48.0591 74.003 43.1228 74.0116 38.4003 71.9893 35 68.411L37.83 65.581C43.1234 71.1949 51.9656 71.4547 57.5795 66.1612 63.1933 60.8678 63.4531 52.0257 58.1597 46.4118 57.9725 46.2132 57.7795 46.0202 57.581 45.833L60.411 43C63.9787 46.383 65.9995 51.0834 66 56ZM45.409 58.006C47.2905 59.3654 49.9013 59.0479 51.402 57.277 51.8734 56.7241 52.5635 56.4058 53.29 56.406L53.3 56.406C54.0222 56.4074 54.7073 56.7259 55.174 57.277 56.2695 58.601 58.048 59.1456 59.697 58.662 58.2554 65.1024 51.8658 69.1548 45.4254 67.7133 43.057 67.1832 40.9061 65.9445 39.259 64.162ZM60 56C60 56.127 59.985 56.25 59.981 56.376 58.9472 57.1187 57.5167 56.9447 56.691 55.976 55.8456 54.9807 54.6059 54.4067 53.3 54.406L53.29 54.406C51.9792 54.406 50.7341 54.9801 49.883 55.977 49.1163 56.814 47.8892 57.0446 46.871 56.543L56.171 47.243C58.61 49.5022 59.9975 52.6754 60 56ZM78 27 78 86 18 86 18 85.414 33.588 69.826C41.2162 77.7932 53.8588 78.0681 61.826 70.4399 69.7932 62.8118 70.0681 50.1692 62.4399 42.2019 62.2398 41.9929 62.0351 41.7882 61.826 41.588L76.414 27Z" stroke="#2F5597"/></g></svg>