<?xml version="1.0" standalone="no"?>
<!DOCTYPE svg PUBLIC "-//W3C//DTD SVG 20010904//EN" "http://www.w3.org/TR/2001/REC-SVG-20010904/DTD/svg10.dtd">
<svg version="1.0" xmlns="http://www.w3.org/2000/svg" width="512.000000pt" height="512.000000pt"
  viewBox="0 0 512.000000 512.000000" preserveAspectRatio="xMidYMid meet">

  <g transform="translate(0.000000,512.000000) scale(0.100000,-0.100000)" stroke="none">
    <path d="M302 5101 c-61 -21 -114 -61 -159 -120 -68 -88 -63 92 -61 -2441 l3
-2295 22 -47 c30 -66 96 -133 162 -165 l56 -28 1645 0 1645 0 56 28 c66 32
132 99 162 165 22 47 22 50 25 872 l2 825 549 550 c582 583 583 584 616 712
28 108 11 241 -45 338 -59 103 -177 195 -288 225 -62 16 -187 13 -252 -6 -97
-28 -141 -62 -362 -283 l-218 -215 0 387 c0 317 -3 393 -14 415 -8 15 -257
269 -553 565 l-538 537 -1200 0 c-1136 -1 -1203 -2 -1253 -19z m2380 -626 l3
-484 23 -23 23 -23 484 -3 485 -3 0 -442 0 -442 -724 -725 -725 -725 -72 -363
-72 -363 20 -27 c15 -20 30 -28 59 -30 21 -1 194 26 382 61 l344 64 394 394
394 394 0 -717 c0 -482 -3 -726 -11 -745 -14 -38 -57 -83 -96 -99 -48 -21
-3198 -21 -3246 0 -39 16 -82 61 -96 99 -15 40 -15 4534 0 4574 14 37 57 82
94 99 24 11 242 13 1182 14 l1152 0 3 -485z m521 -373 c-186 -1 -344 0 -350 3
-10 3 -13 82 -13 352 l0 348 350 -350 350 -350 -337 -3z m1505 -562 c177 -89
225 -305 103 -466 -20 -27 -43 -50 -51 -52 -8 -1 -112 95 -230 213 l-215 216
40 36 c66 59 128 83 216 83 65 0 85 -4 137 -30z m-278 -425 l215 -215 -55 -55
-55 -55 -220 220 -220 220 50 50 c27 27 54 50 60 50 5 0 107 -97 225 -215z
m-220 -220 l215 -215 -768 -767 -767 -768 -215 215 c-118 118 -215 219 -215
225 0 13 1512 1525 1525 1525 6 0 107 -97 225 -215z m-1488 -1816 c-11 -10
-412 -82 -419 -75 -5 5 27 180 69 380 l10 49 174 -174 c95 -95 170 -176 166
-180z" />
    <path d="M653 4228 c-28 -13 -46 -58 -37 -92 14 -59 -31 -56 924 -56 l877 0
21 23 c32 34 30 89 -4 116 -27 21 -31 21 -893 20 -585 0 -873 -4 -888 -11z" />
    <path d="M641 3523 c-11 -10 -24 -32 -27 -50 -5 -27 -1 -37 24 -63 l30 -30
1302 0 1302 0 30 30 c25 26 29 36 24 63 -3 18 -16 40 -27 50 -20 16 -98 17
-1329 17 -1231 0 -1309 -1 -1329 -17z" />
    <path d="M631 2814 c-28 -35 -26 -67 3 -101 l24 -28 1312 0 1312 0 24 28 c29
34 31 66 3 101 l-20 26 -1319 0 -1319 0 -20 -26z" />
    <path d="M639 2121 c-36 -36 -37 -73 -4 -106 l24 -25 860 0 860 0 20 26 c35
45 26 95 -20 119 -24 13 -150 15 -869 15 l-842 0 -29 -29z" />
    <path d="M649 1437 c-44 -34 -47 -89 -7 -127 21 -20 33 -20 675 -20 l654 0 24
25 c16 15 25 36 25 55 0 19 -9 40 -25 55 l-24 25 -653 0 c-498 -1 -657 -4
-669 -13z" />
  </g>
</svg>