<svg viewBox="0 0 96 96" xmlns="http://www.w3.org/2000/svg" xmlns:xlink="http://www.w3.org/1999/xlink" id="Icons_Robber_M" overflow="hidden"><g id="Icons"><path d="M34.269 68.42C33.7601 69.3959 32.7486 70.0056 31.648 70L12.648 70C10.9911 70 9.648 68.6569 9.648 67 9.648 65.3431 10.9911 64 12.648 64L29.248 64C29.6163 64 29.9548 63.7975 30.129 63.473L35.273 53.88C34.7831 53.2131 34.4163 52.464 34.19 51.668L28.65 61.992 12.65 61.992C9.88858 61.992 7.65 64.2306 7.65 66.992 7.65 69.7534 9.88858 71.992 12.65 71.992L31.65 71.992C33.4858 72.0051 35.1755 70.9929 36.03 69.368L41.343 59.576 39.815 58.2Z" stroke="#8497B0"/><path d="M54.65 12.978C54.65 17.3963 58.2317 20.978 62.65 20.978 67.0683 20.978 70.65 17.3963 70.65 12.978 70.65 8.55972 67.0683 4.978 62.65 4.978 58.2317 4.978 54.65 8.55972 54.65 12.978ZM68.65 12.978C68.65 16.2917 65.9637 18.978 62.65 18.978 59.3363 18.978 56.65 16.2917 56.65 12.978 56.65 9.66429 59.3363 6.978 62.65 6.978 65.9623 6.98186 68.6466 9.66573 68.651 12.978Z" stroke="#8497B0"/><path d="M85.989 40.617C86.9591 39.6713 87.5031 38.3718 87.496 37.017 87.4807 36.1987 87.2818 35.3942 86.914 34.663 86.1757 33.3257 84.8702 32.3958 83.365 32.135L84.583 29.673C84.8425 29.0804 84.7861 28.397 84.433 27.855 84.0809 27.3203 83.4832 26.9989 82.843 27L78.466 27C77.8054 27.0041 77.1947 27.3524 76.855 27.919 76.5096 28.46 76.4699 29.1415 76.75 29.719L77.9 32.019 74.683 32.001 58.306 21.75C57.5182 21.2323 56.5925 20.9643 55.65 20.981L38.65 20.981C36.8144 20.9665 35.1246 21.9793 34.272 23.605L27.783 35.584C27.1273 36.7246 26.9697 38.0847 27.347 39.345 27.7189 40.6479 28.6043 41.7438 29.8 42.381 30.5275 42.7534 31.329 42.9584 32.146 42.981 33.9733 42.9664 35.6493 41.9629 36.525 40.359L41.641 30.978 45.276 30.978 36.493 47.365C35.4064 49.3875 35.8388 51.8903 37.541 53.431L52.63 67.118 51.754 86.708C51.6313 88.0232 52.0559 89.3309 52.928 90.323 53.823 91.3404 55.096 91.9465 56.45 92L56.65 92C59.3075 91.9758 61.4924 89.8979 61.65 87.245L62.65 65.275C62.7625 63.7875 62.1633 62.3348 61.035 61.359L51.9 52.882 61.226 35.5 71.337 41.842C71.4957 41.9411 71.6789 41.9941 71.866 41.995L75.844 42C74.079 44.451 72.355 47.237 72.355 50.789 72.355 55.867 76.076 59.997 80.655 59.997 85.234 59.997 88.955 55.867 88.955 50.789 88.955 46.92 86.912 43.963 84.996 41.355 85.3565 41.1515 85.6901 40.9035 85.989 40.617ZM79.782 31.317 78.63 29.013C78.6288 29.007 78.6327 29.0013 78.6386 29.0001 78.6388 29 78.6389 29 78.639 29L82.689 28.962C82.6945 28.9621 82.6989 28.9666 82.6988 28.9722 82.6988 28.9735 82.6985 28.9748 82.698 28.976L81.521 31.354C81.409 31.579 81.321 31.812 81.228 32.047L80.094 32.04C80 31.8 79.9 31.553 79.782 31.319ZM61.382 33.235C60.914 32.9417 60.2969 33.0833 60.0036 33.5512 59.9918 33.5701 59.9805 33.5894 59.97 33.609L49.77 52.614C49.5546 53.0147 49.6368 53.5103 49.97 53.82L59.687 62.837C60.3634 63.4047 60.723 64.2648 60.652 65.145L59.652 87.145C59.5564 88.7356 58.2454 89.9806 56.652 89.994L56.5 89.994C55.7057 89.9613 54.96 89.6024 54.439 89.002 53.9193 88.4071 53.6707 87.6227 53.753 86.837L54.653 66.731C54.6671 66.4336 54.5471 66.1455 54.326 65.946L38.89 51.946C37.8696 51.0209 37.6102 49.5199 38.261 48.306L47.83 30.456C48.0912 29.9694 47.9085 29.3632 47.4219 29.1019 47.2765 29.0239 47.114 28.983 46.949 28.983L41.049 28.983C40.683 28.9829 40.3463 29.1828 40.171 29.504L34.771 39.412C34.2414 40.3674 33.2422 40.9675 32.15 40.986 31.6502 40.9629 31.1614 40.8319 30.717 40.602 30.0097 40.219 29.4879 39.5656 29.271 38.791 29.0454 38.0439 29.1388 37.2368 29.529 36.561L36.029 24.555C36.5385 23.5814 37.5492 22.974 38.648 22.981L55.648 22.981C56.2046 22.9655 56.7525 23.1219 57.217 23.429L73.861 33.853C74.0188 33.9516 74.2009 34.0043 74.387 34.005L82.525 34.052 82.525 34.052C83.6163 34.0651 84.6177 34.6594 85.152 35.611 85.3693 36.0622 85.486 36.5552 85.494 37.056 85.4931 37.8602 85.1658 38.6296 84.587 39.188 84.0401 39.7462 83.2829 40.0476 82.502 40.018L72.155 39.995ZM83.082 42.135C84.982 44.712 86.947 47.376 86.947 50.786 86.947 54.761 84.123 57.994 80.647 57.994 77.171 57.994 74.347 54.761 74.347 50.786 74.347 47.376 76.312 44.712 78.212 42.135L78.312 42.003 82.467 42.012C82.6319 42.009 82.7965 41.997 82.96 41.976Z" stroke="#8497B0"/></g></svg>