<svg id="ab26c067-d858-4fd4-abff-41faa1bb0c6e" data-name="Layer 1" xmlns="http://www.w3.org/2000/svg"
  xmlns:xlink="http://www.w3.org/1999/xlink" width="932.16127" height="646.62262" viewBox="0 0 932.16127 646.62262">
  <defs>
    <linearGradient id="ae928bff-3575-4039-8931-1ea5500585a1" x1="10.0701" y1="883.09804" x2="23.03018" y2="883.09804"
      gradientTransform="matrix(46.94042, 0, 0, -24.44727, -11.22942, 22034.26197)" gradientUnits="userSpaceOnUse">
      <stop offset="0" stop-color="#2d6dd0" />
      <stop offset="0.99" stop-color="#6c139c" />
    </linearGradient>
    <linearGradient id="ab16e020-95e2-4019-a7f2-352f369779da" x1="14.38337" y1="889.08946" x2="32.06147" y2="889.08946"
      gradientTransform="matrix(34.41098, 0, 0, -37.39629, -33.41135, 33695.05684)"
      xlink:href="#ae928bff-3575-4039-8931-1ea5500585a1" />
  </defs>
  <path
    d="M161.52328,769.214c-12.47123-3.36846-27.64871-17.37787-24.39937-36.6341,1.61151-9.55005,7.79666-15.732,14.20994-19.72938,8.87087-5.52916,18.97378-7.61271,28.70982-8.13909,11.2299-.60716,22.44726.92374,33.59326,2.5427,11.00345,1.59829,22.00778,3.02939,33.06039,3.90315a426.18014,426.18014,0,0,0,129.03626-9.58117q15.6504-3.61164,31.11314-8.47412a213.747,213.747,0,0,0,28.5787-10.6814c12.25583-5.884,32.18686-17.33381,30.56169-38.53889-.86174-11.24351-7.48306-20.2235-14.16178-26.47975-8.07544-7.56463-17.41979-12.54174-26.57194-17.37492-42.57048-22.4815-85.22406-44.6961-127.836-67.04222-9.94515-5.21532-19.95642-10.29094-29.60825-16.40265-9.03649-5.72208-18.03069-12.36888-25.30284-21.55936-6.35165-8.02717-12.02739-18.80348-11.82715-30.84974.16607-9.99022,4.71232-18.46776,10.28033-24.80359,13.7853-15.68634,33.28584-22.0464,50.91043-25.37787,21.89667-4.139,44.11031-4.11758,66.02128-8.11428,17.69177-3.22713,36.59531-9.457,50.98378-24.05564a45.59976,45.59976,0,0,0,12.42882-21.715,42.67832,42.67832,0,0,0-2.55578-25.76792c-3.89761-9.30965-10.11483-16.72576-16.65219-22.79844A99.91422,99.91422,0,0,0,376.83961,294.667c-19.43291-9.26028-39.86761-14.0818-59.77313-21.18823-9.76212-3.48517-19.623-7.30685-28.68774-13.29315-7.67975-5.07168-16.04558-11.90784-20.31823-22.0738-8.81554-20.9748,12.21534-33.4755,24.13206-38.21055a155.15632,155.15632,0,0,1,24.94085-7.13993c1.7969-.38581,1.03447-3.97259-.754-3.58864a149.21675,149.21675,0,0,0-26.19085,7.64762c-7.18613,2.9857-14.60076,6.90949-20.24543,13.66154a28.43768,28.43768,0,0,0-6.42551,22.23459c1.4951,10.0639,7.99422,17.81842,14.098,23.43518,8.07158,7.42755,17.27457,12.27825,26.6055,16.23232,9.82719,4.16438,19.86291,7.40983,29.89527,10.59327,20.04681,6.36116,40.993,12.03,59.08979,25.56609,12.65932,9.469,29.85672,27.22287,25.64576,49.22911-1.86927,9.76868-7.54569,17.40622-13.67139,23.0237a79.6032,79.6032,0,0,1-24.484,14.88719c-40.10267,16.13908-84.23838,4.59774-123.3075,26.518-13.28375,7.453-29.41873,21.02272-29.54861,42.37351-.06743,11.09129,4.37845,21.26358,9.87491,29.30381,6.5832,9.63,15.108,16.75125,23.78148,22.703a276.8197,276.8197,0,0,0,28.39866,16.44217q16.03077,8.42027,32.06858,16.81773l64.884,34.02583,32.238,16.90593c9.83916,5.15974,19.931,10.10922,28.877,17.68346,7.32486,6.20174,15.979,16.37607,15.23162,29.0098-.5935,10.03327-7.25874,17.27376-13.34931,22.11459-7.88668,6.26837-16.74607,10.32273-25.56086,13.69186-10.16729,3.886-20.50176,7.10958-30.85626,10.00791a416.59168,416.59168,0,0,1-64.73684,12.67106,425.69162,425.69162,0,0,1-65.76514,2.4513q-16.6374-.66951-33.22314-2.66156c-11.39758-1.37281-22.74638-3.48763-34.17334-4.4259-10.33591-.8487-20.77138-.652-30.95021,2.07575-8.49907,2.27761-17.47811,6.33735-23.92963,14.2589a31.54334,31.54334,0,0,0-6.69562,21.30472,38.25641,38.25641,0,0,0,7.84294,21.11158,35.4889,35.4889,0,0,0,18.97222,12.7361c1.78156.48117,2.54349-3.10534.754-3.58863Z"
    transform="translate(-133.91937 -126.68869)" fill="#e6e6e6" />
  <rect x="24.12866" y="644.22427" width="324.03261" height="2.24072" fill="#3f3d56" />
  <circle cx="323.1997" cy="517.5024" r="21.16809" fill="#e6e6e6" />
  <circle cx="103.58072" cy="326.14839" r="21.1681" fill="#e6e6e6" />
  <path
    d="M276.90033,686.8274s-18.298,24.79077-22.42978,28.92259-5.31229,19.47848-5.31229,19.47848l7.08307,16.52718-4.13182,8.26359-31.87389-31.87389,34.23488-50.76211Z"
    transform="translate(-133.91937 -126.68869)" fill="#ffb8b8" />
  <path
    d="M354.8142,535.13133S288.58307,736.94512,281.5,741.66715s-41.96563-24.91693-52-32,75.73391-141.83163,75.73391-141.83163c-13.57593-44.26928-7.08437-54.54371-7.08437-54.54371Z"
    transform="translate(-133.91937 -126.68869)" fill="#2f2e41" />
  <path
    d="M250.92894,755.29716s-.00005-7.08307,2.27968-10.61768,6.57417,12.38841,6.57417,12.38841,25.97134,7.083,14.16619,14.7564-46.63029-16.52718-56.66466-23.02-6.49281-14.16619-1.18052-19.47848l10.3295-10.3295Z"
    transform="translate(-133.91937 -126.68869)" fill="#2f2e41" />
  <path
    d="M376.06346,699.813s5.31234,15.34666,10.03437,30.10311,27.15181,22.42978,27.15181,22.42978l4.13182,10.62463L404.98605,768.873l-36.00571-8.85385s1.18052-11.8051,1.18052-15.93692-18.88822-38.957-18.88822-38.957Z"
    transform="translate(-133.91937 -126.68869)" fill="#ffb8b8" />
  <circle cx="195.51375" cy="207.16503" r="24.79078" fill="#ffb8b8" />
  <path d="M315.85719,346.83935c0,3.54155-17.7077,30.69336-17.7077,30.69336l25.94067,11.5779,11.83577-34.00767Z"
    transform="translate(-133.91937 -126.68869)" fill="#ffb8b8" />
  <path
    d="M339.46749,476.1056A18.60951,18.60951,0,0,1,358.165,494.244l.781,30.85295,4.13182,7.08307S388.5,721.7646,388.5,727.66715s-25.2436,22.18052-40,21c-7.29984-.584-23.66721-67.64983-30.16132-104.36669-4.62331-26.13943-9.13477-54.58564-13.666-75.58568a186.64306,186.64306,0,0,0-5.93287-22.36864c-12.98567-36.00563,9.44411-70.24051,9.44411-70.24051h31.28358Z"
    transform="translate(-133.91937 -126.68869)" fill="#2f2e41" />
  <path
    d="M408.23248,760.31432s3.24643.88539-.29513-.29513-2.361-7.67333-2.21538-10.97321,34.67948,7.43165,34.67948,15.69524-44.26925,8.26359-57.25492,7.08307-15.93692,0-17.7077-8.26359,5.01716-19.77361,5.01716-19.77361Z"
    transform="translate(-133.91937 -126.68869)" fill="#2f2e41" />
  <path
    d="M310.52794,492.5564c4.616,0,14.544-11.857,19.73988-6.66087,3.77905,3.779,6.98565,7.409,9.81475,10.61167,8.12123,9.19367,15.22091,17.61941,20.15461,11.574.74578-.91379-1.76138,1.19668.3293-.22565a5.05832,5.05832,0,0,0,2.03879-5.489c-7.15863-22.42745-11.61645-43.913-5.924-61.85926a14.55958,14.55958,0,0,0,.59851-4.39142q.00068-.32608.03033-.65268c.30088-3.31183.22537-15.17318-13.365-28.76349-12.42073-12.42076-14.80369-20.05316-15.11783-23.49729-.07381-.80208-20.09611-21.5755-20.09611-21.5755a5.03389,5.03389,0,0,0-6.0285,1.69209l-6.4134,8.81846a84.34877,84.34877,0,0,0-8.7955,44.67357c1.7363,20.00971,4.7509,59.5809,7.22678,73.8548a5.2146,5.2146,0,0,0,1.93095,3.28894,4.97151,4.97151,0,0,0,5.08942.60242A21.43522,21.43522,0,0,1,310.52794,492.5564Z"
    transform="translate(-133.91937 -126.68869)" fill="#97bf26" />
  <path
    d="M335.383,334.80007l-4.45047-4.703c.37044,24.76455,23.73505,38.5822,23.73505,38.5822l-52.16706-5.20062L301.182,356.9093l-2.72552,5.40965-6.36916-1.613-1.83243-4.00542-3.93046,2.13932,8.065-31.84589c7.96486-30.38013,32.25254-25.92371,32.25254-25.92371,34.0065-10.63643,29.8387,21.79929,29.8387,21.79929Z"
    transform="translate(-133.91937 -126.68869)" fill="#2f2e41" />
  <polygon points="181.595 525.642 172.134 441.966 183.767 519.477 181.595 525.642" opacity="0.2"
    style="isolation:isolate" />
  <circle cx="164.75578" cy="174.69917" r="13.11742" fill="#2f2e41" />
  <path
    d="M300.75822,312.01463c.273-.00065.54458.00645.82079-.01131l.02753-.00177a13.11742,13.11742,0,0,0-1.71074-26.179c-.27616.01776-.54462.05953-.81548.0939a13.10067,13.10067,0,0,1,1.6779,26.09819Z"
    transform="translate(-133.91937 -126.68869)" fill="#2f2e41" />
  <ellipse cx="197.54934" cy="209.13241" rx="4.09919" ry="5.73887" fill="#ffb8b8" />
  <path
    d="M380.56294,526.1428l16.85164,11.926a11.90115,11.90115,0,0,1,.98463,18.65113l0,0a11.90115,11.90115,0,0,1-17.98133-2.67653l-9.7515-15.76678L336.35,486.41578l14.21961-10.46185Z"
    transform="translate(-133.91937 -126.68869)" fill="#feb8b8" />
  <path
    d="M353.5,479.66715c.0675,9.19068-9.01578,17.17194-21.84558,18.32633l-29.43177-62.535a38.21351,38.21351,0,0,1,5.1403-40.64162v0l29.71042,36.10578C337.996,446.61832,344.69254,462.887,353.5,479.66715Z"
    transform="translate(-133.91937 -126.68869)" opacity="0.2" />
  <path
    d="M353.5,475.66715c.0675,9.19068-5.01578,15.17194-17.84558,16.32633l-29.43177-62.535a38.21351,38.21351,0,0,1,5.1403-40.64162v0l29.71042,36.10578C341.996,440.61832,344.69254,458.887,353.5,475.66715Z"
    transform="translate(-133.91937 -126.68869)" fill="#97bf26" />
  <path style="fill:#0964AF;" d="M511.686,211.219c-10.56-60.905-265.338-51.36-425.524,16.027l-12.73,5.584
	c-48.347,22.168-76.765,46.794-73.119,67.946c10.625,61.333,267.711,51.005,426.962-16.636l18.991-8.615
	C489.909,254.316,515.139,231.227,511.686,211.219z" transform="translate(420, 12)" />
  <path style="fill:#004F9C;" d="M26.615,300.776c-3.646-21.152,24.772-45.779,73.119-67.946l12.73-5.584
	c79.585-33.479,190.439-54.642,279.424-56.575c-95.084-2.188-219.877,20.461-305.726,56.575l-12.73,5.584
	c-48.347,22.168-76.765,46.794-73.119,67.946c4.81,27.766,63.599,42.343,146.031,40.55C77.938,339.75,30.896,325.488,26.615,300.776
	z" transform="translate(420, 12)" />
  <path style="fill:#F2F2F2;" d="M428.577,253.821v5.189c0,0.851,0.69,1.541,1.541,1.541h2.956c0.568,0,1.029,0.461,1.029,1.029
		v6.831c0.026,0.703-0.016,1.459-0.13,2.063c-0.229,1.469-1.609,3.954-5.531,3.954c-3.906,0-5.261-2.485-5.505-3.954
		c-0.099-0.604-0.146-1.359-0.146-2.063v-24.809c0-0.885,0.063-1.838,0.25-2.557c0.266-1.323,1.433-3.938,5.37-3.938
		c4.131,0,5.157,2.745,5.386,3.938c0.161,0.776,0.177,2.089,0.177,2.089v1.613c0,0.769,0.623,1.392,1.392,1.392h10.456
		c0.962,0,1.742-0.78,1.742-1.742v-0.039c0,0,0.057-1.859-0.104-3.594c-1.016-10.183-9.36-13.391-18.939-13.391
		c-9.584,0-17.756,3.245-18.944,13.391c-0.104,0.937-0.271,2.609-0.271,3.594v22.829c0,0.984,0.026,1.755,0.208,3.578
		c0.849,9.474,8.719,13.089,17.762,13.376l18.991-8.615c0.625-1.386,1.042-2.969,1.219-4.761c0.146-1.823,0.161-2.594,0.198-3.578
		v-13.304c0-0.69-0.559-1.249-1.249-1.249h-16.669C429.109,252.633,428.577,253.165,428.577,253.821z"
    transform="translate(420, 12)" />
  <path style="fill:#F2F2F2;" d="M108.658,263.941c-2.266-11.402-22.751-14.767-24.288-21.126c-0.25-1.089-0.193-2.245-0.052-2.844
		c0.38-1.734,1.542-3.662,4.933-3.662c3.172,0,5.032,1.979,5.032,4.938v2.168c0,0.655,0.531,1.187,1.187,1.187h10.577
		c0.939,0,1.7-0.761,1.7-1.7v-2.123c0-11.792-10.584-13.678-18.225-13.678c-1.151,0-2.276,0.042-3.36,0.146l-12.73,5.584
		c-1.391,1.677-2.349,3.75-2.766,6.329c-0.396,2.437-0.459,4.573,0.109,7.318c2.333,11.089,21.527,14.313,24.319,21.324
		c0.521,1.313,0.354,2.98,0.099,4.006c-0.443,1.834-1.662,3.667-5.271,3.667c-3.365,0-5.391-1.969-5.391-4.933l-0.017-4.141
		c-0.002-0.599-0.488-1.083-1.087-1.083h-11.94c-0.804,0-1.456,0.652-1.456,1.456v2.695c0,12.131,9.475,15.782,19.616,15.782
		c9.761,0,17.777-3.339,19.079-12.423C109.377,268.15,108.887,265.087,108.658,263.941z"
    transform="translate(420, 12)" />
  <path style="fill:#F2F2F2;" d="M147.136,281.979l-6.811-46.531c-0.065-0.442-0.702-0.443-0.768-0.001l-7.003,46.689
		c-0.083,0.557-0.562,0.968-1.125,0.968h-12.52c-0.561,0-0.985-0.509-0.884-1.061l9.498-51.551c0.178-0.965,1.02-1.666,2.001-1.666
		h20.882c0.822,0,1.527,0.587,1.676,1.396l9.499,51.775c0.106,0.576-0.337,1.108-0.923,1.108h-12.223
		C147.784,283.103,147.231,282.625,147.136,281.979z" transform="translate(420, 12)" />
  <path style="fill:#F2F2F2;" d="M219.036,281.335l-0.338-45.918c-0.002-0.296-0.431-0.334-0.484-0.043l-8.615,46.612
		c-0.12,0.647-0.684,1.117-1.342,1.117h-10.863c-0.982,0-1.824-0.701-2.003-1.667l-8.454-45.794
		c-0.059-0.322-0.533-0.28-0.535,0.047l-0.341,46.338c-0.004,0.595-0.488,1.076-1.084,1.076h-10.992
		c-0.783,0-1.414-0.644-1.397-1.427l1.112-51.257c0.019-0.886,0.743-1.595,1.63-1.595h18.912c0.87,0,1.611,0.632,1.749,1.491
		l6.044,37.641c0.097,0.602,0.962,0.602,1.059,0l6.063-37.759c0.127-0.791,0.809-1.372,1.61-1.372h19.439
		c0.646,0,1.174,0.516,1.188,1.162l1.146,51.248c0.023,1.025-0.802,1.869-1.827,1.869h-9.895
		C219.839,283.103,219.044,282.314,219.036,281.335z" transform="translate(420, 12)" />
  <path style="fill:#F2F2F2;" d="M284.064,272.671c-1.276,8.985-9.24,12.282-18.892,12.282c-10.063,0-19.413-3.61-19.413-15.605
		v-3.012c0-0.626,0.508-1.134,1.134-1.134h11.86c0.74,0,1.341,0.6,1.341,1.341v3.868c0,2.927,2.026,4.87,5.381,4.87
		c3.589,0,4.792-1.808,5.204-3.61c0.25-1,0.385-2.677-0.099-3.99c-2.75-6.933-21.751-10.12-24.064-21.095
		c-0.599-2.714-0.51-4.844-0.135-7.235c1.433-8.787,9.193-11.944,18.694-11.944c7.563,0,17.985,1.833,17.985,13.537v2.269
		c0,0.826-0.67,1.496-1.496,1.496h-10.435c-0.763,0-1.381-0.618-1.381-1.381v-1.931c0-2.922-1.828-4.881-4.943-4.881
		c-3.344,0-4.506,1.896-4.902,3.631c-0.125,0.588-0.182,1.729,0.052,2.813c1.536,6.271,21.783,9.657,24.012,20.918
		C284.209,265.009,284.668,268.03,284.064,272.671" transform="translate(420, 12)" />
  <path style="fill:#F2F2F2;" d="M334.707,271.322c-0.958,10.141-8.896,13.428-18.84,13.428c-9.933,0-17.876-3.287-18.814-13.428
		c-0.062-0.542-0.135-2.584-0.12-3.583V230.91c0-1.151,0.933-2.084,2.084-2.084h9.674c1.043,0,1.889,0.846,1.889,1.889v38.269
		c-0.026,0.693,0,1.49,0.135,2.063c0.261,1.344,1.427,3.938,5.151,3.938c3.766,0,4.896-2.594,5.183-3.938
		c0.12-0.573,0.146-1.37,0.12-2.063v-38.494c0-0.919,0.745-1.664,1.664-1.664h10.124c1.026,0,1.858,0.832,1.858,1.858v37.055
		C334.874,268.738,334.79,270.78,334.707,271.322" transform="translate(420, 12)" />
  <path style="fill:#F2F2F2;" d="M393.433,282.536h-16.261c-0.732,0-1.378-0.479-1.59-1.18l-12.401-40.929
		c-0.146-0.483-0.859-0.371-0.85,0.133l0.688,40.23c0.016,0.959-0.756,1.745-1.715,1.745h-9.806c-0.938,0-1.699-0.761-1.699-1.699
		v-50.206c0-0.998,0.809-1.806,1.806-1.806h16.447c1.054,0,1.982,0.696,2.276,1.708l11.618,39.949
		c0.093,0.319,0.564,0.248,0.559-0.084l-0.658-39.726c-0.017-1.015,0.802-1.848,1.817-1.848h10.115c0.761,0,1.377,0.617,1.377,1.377
		v50.613C395.153,281.766,394.383,282.536,393.433,282.536z" transform="translate(420, 12)" />
  <path
    d="M370.641,127.57418l-58.777,25.55173a10.69385,10.69385,0,0,0-5.53753,14.05476l18.2512,41.98347a10.6938,10.6938,0,0,0,14.05477,5.53757l58.777-25.55173a10.69382,10.69382,0,0,0,5.53755-14.05482l-18.25119-41.98347A10.69386,10.69386,0,0,0,370.641,127.57418Zm2.4335,5.5978a4.557,4.557,0,0,1,1.0987-.31637l-19.87181,37.49228-40.8146-11.16918a4.58018,4.58018,0,0,1,.81072-.455Zm21.90144,50.38019L336.199,209.1039a4.58316,4.58316,0,0,1-6.02348-2.37326l-18.0873-41.60645,42.9598,11.75637a3.052,3.052,0,0,0,3.502-1.5145l20.79933-39.24265,17.99983,41.40525A4.58316,4.58316,0,0,1,394.97593,183.55217Z"
    transform="translate(-133.91937 -126.68869)" fill="#e6e6e6" />
</svg>