<svg xmlns="http://www.w3.org/2000/svg" viewBox="0 0 500 500">
  <g id="freepik--background-simple--inject-337">
    <path
      d="M297.26,307.82l-1.42-.61a35.12,35.12,0,0,0-36,4.68,32,32,0,0,0-3.64,3.44,36.84,36.84,0,0,0-8.12,33.85c1.87,6.91,5.79,13.61,5,20.7-1,9.22-9.4,15.49-17.06,20.61S220,401.9,219,411.13c-.6,5.78,2,11.54,5.65,16.1,9.65,12.1,26.44,17.09,41.57,14.72s28.61-11.24,39.05-22.41c14.63-15.64,24.12-36.7,23.45-58.28S316.34,318,297.26,307.82Z"
      style="fill:#ebebeb"></path>
    <circle cx="206.49" cy="342.45" r="22.36" transform="translate(-181.67 246.31) rotate(-45)" style="fill:#ebebeb">
    </circle>
  </g>
  <g id="freepik--Floor--inject-337">
    <path
      d="M465.4,466.76c0,.14-96.45.26-215.39.26S34.6,466.9,34.6,466.76,131,466.5,250,466.5,465.4,466.62,465.4,466.76Z"
      style="fill:#263238"></path>
  </g>
  <g id="freepik--Plant--inject-337">
    <path
      d="M188,381.77a20.45,20.45,0,0,0-33.52,8l2.42,9.38c.92-3.19,2.9-6.28,5.95-7.6s6.86-.59,10.11.6,6.44,2.76,9.9,3,7.35-1.42,8.38-4.73C192.17,387.33,190.3,384,188,381.77Z"
      style="fill:#97BF26"></path>
    <g style="opacity:0.30000000000000004">
      <path
        d="M188,381.77a20.45,20.45,0,0,0-33.52,8l2.42,9.38c.92-3.19,2.9-6.28,5.95-7.6s6.86-.59,10.11.6,6.44,2.76,9.9,3,7.35-1.42,8.38-4.73C192.17,387.33,190.3,384,188,381.77Z">
      </path>
    </g>
    <path
      d="M129.51,413.06c-5.07-4.81-4.82-13.19-2.29-19.7s8-11.52,14.2-14.81a45,45,0,0,1,39.2-1.27,18.61,18.61,0,0,0-15,8.83c-2.78,4.61-3.39,10.21-5.69,15.07a23.73,23.73,0,0,1-30.38,11.88"
      style="fill:#97BF26"></path>
    <path
      d="M127.07,384.15c-5.61-6.62-6.35-17.25-5.53-25.88s2.83-17.33,1.47-25.9c-.81-5.08-2.78-9.92-3.44-15s.27-10.86,4.22-14.15c4.54-3.78,11.69-2.89,16.41.66s7.46,9.13,9.46,14.69c4.39,12.21,6,25.75,2.4,38.22s-12.08,23.62-24.5,27.38"
      style="fill:#97BF26"></path>
    <path
      d="M124.38,438.47a4.41,4.41,0,0,1,0-.76c0-.5,0-1.24,0-2.19.07-1.9.25-4.65.68-8a107.6,107.6,0,0,1,2.15-11.74,54.53,54.53,0,0,1,5.36-13.59,56.6,56.6,0,0,1,8.76-11.71,55.1,55.1,0,0,1,9.18-7.63c1.4-1,2.75-1.71,3.92-2.39s2.24-1.14,3.1-1.55l2-.85a5.84,5.84,0,0,1,.72-.27,4.08,4.08,0,0,1-.68.35l-2,.93c-.84.44-1.86,1-3,1.62s-2.49,1.45-3.87,2.43A57.84,57.84,0,0,0,133,402.39c-5.16,9-6.57,18.51-7.6,25.15-.46,3.36-.69,6.1-.82,8,0,.91-.1,1.64-.13,2.18A4.12,4.12,0,0,1,124.38,438.47Z"
      style="fill:#263238"></path>
    <path
      d="M76,358c-10.38,6.26-10.35,12-8.62,17.33s8.11,9.12,13.39,7.11c3-1.14,5.14-3.74,7-6.34s3.58-5.4,6.17-7.27a9.09,9.09,0,0,1,6.19-1.77Z"
      style="fill:#97BF26"></path>
    <path d="M100.13,367.1l2.75,1A6,6,0,0,0,100.13,367.1Z" style="fill:#97BF26"></path>
    <path d="M106.27,369.94,96.1,366.12l4.09.48a6.36,6.36,0,0,1,3,1.13Z"></path>
    <g style="opacity:0.30000000000000004">
      <path
        d="M76,358c-10.38,6.26-10.35,12-8.62,17.33s8.11,9.12,13.39,7.11c3-1.14,5.14-3.74,7-6.34s3.58-5.4,6.17-7.27a9.09,9.09,0,0,1,6.19-1.77Z">
      </path>
    </g>
    <path
      d="M68.24,364.9c2.71-3.75,9.41-4.83,13.64-3s7.34,5.58,10.11,9.28,5.48,7.61,9.32,10.19,9.22,3.51,13,.91a11.22,11.22,0,0,0,4.43-7.67,25.86,25.86,0,0,0-.61-9c-.92-4.35-2.41-8.89-5.89-11.66-3.89-3.08-9.27-3.23-14.22-3.06-5.69.18-11.46.61-16.79,2.58s-10.78,6.22-13,11.44"
      style="fill:#97BF26"></path>
    <path
      d="M115.76,430.16a.72.72,0,0,1,0-.23c0-.18,0-.4,0-.67,0-.62,0-1.48-.09-2.57-.06-2.28-.16-5.5-.27-9.47s-.29-8.76-.58-14-.68-11.08-1.48-17.12a56.06,56.06,0,0,0-1.72-8.7,45.82,45.82,0,0,0-3.18-7.61,43.91,43.91,0,0,0-4-6.3,39.94,39.94,0,0,0-4.38-4.8,32,32,0,0,0-7.76-5.3c-.51-.23-.95-.46-1.35-.62l-1-.39-.62-.25A.72.72,0,0,1,89,352l.22.06.64.21,1,.35c.41.15.86.37,1.37.59a31,31,0,0,1,7.91,5.21,40.62,40.62,0,0,1,4.47,4.82,43.35,43.35,0,0,1,4.08,6.33,44.4,44.4,0,0,1,3.24,7.68,54.12,54.12,0,0,1,1.75,8.76c.8,6.07,1.18,11.88,1.45,17.17s.4,10,.48,14,.11,7.24.12,9.47c0,1.09,0,1.95,0,2.58,0,.27,0,.49,0,.67A2.07,2.07,0,0,1,115.76,430.16Z"
      style="fill:#263238"></path>
    <path
      d="M119.49,434.85a30,30,0,0,1-1.14-4.46,46.88,46.88,0,0,1-.47-12.52,82.73,82.73,0,0,1,4-18.16c2.13-6.68,5-13.82,7.49-21.49a97,97,0,0,0,3-11.37A101.83,101.83,0,0,0,133.77,356a158.75,158.75,0,0,0,.33-18.55c-.18-5.28-.46-9.56-.63-12.51-.09-1.45-.16-2.59-.2-3.4,0-.37,0-.66,0-.89a1.13,1.13,0,0,1,0-.3,1.4,1.4,0,0,1,0,.3c0,.22,0,.52.09.88.07.81.17,2,.29,3.4.23,2.95.56,7.22.78,12.51a153.42,153.42,0,0,1-.23,18.6,100.32,100.32,0,0,1-1.45,10.9,97.31,97.31,0,0,1-3,11.42c-2.47,7.7-5.38,14.83-7.52,21.48a85.28,85.28,0,0,0-4,18.06,48.48,48.48,0,0,0,.33,12.46c.26,1.45.49,2.58.69,3.33.09.36.16.64.21.86A1.18,1.18,0,0,1,119.49,434.85Z"
      style="fill:#263238"></path>
    <polygon points="145.21 439.54 96.49 439.54 95.38 430.16 145.21 430.16 145.21 439.54" style="fill:#455a64">
    </polygon>
    <polygon points="101.72 438.47 107.81 466.6 134.29 466.6 139.99 438.47 101.72 438.47" style="fill:#455a64">
    </polygon>
    <path d="M145.21,439.54c0,.13-10.71.2-23.92.16s-23.92-.17-23.92-.3,10.71-.2,23.92-.16S145.21,439.41,145.21,439.54Z"
      style="fill:#455a64"></path>
    <path
      d="M136.85,453.42a20.66,20.66,0,0,0-4.29-2.46,15.1,15.1,0,0,0-5.22-1,18.25,18.25,0,0,0-6.41,1.17c-2.22.75-4.3,1.63-6.32,2.11a15,15,0,0,1-5.45.16,11.22,11.22,0,0,1-3.51-1.11,7,7,0,0,1-.85-.53c-.18-.14-.27-.22-.26-.23s.42.24,1.19.6a12.26,12.26,0,0,0,3.47,1,15.37,15.37,0,0,0,5.32-.26c2-.48,4-1.37,6.26-2.13a18.25,18.25,0,0,1,6.57-1.16,14.94,14.94,0,0,1,5.33,1.17,13.59,13.59,0,0,1,3.18,1.85,9.74,9.74,0,0,1,.76.65C136.78,453.32,136.86,453.41,136.85,453.42Z"
      style="fill:#263238"></path>
    <path
      d="M136.48,455.3a21.28,21.28,0,0,0-4.12-2.42,13.88,13.88,0,0,0-5-1,18.2,18.2,0,0,0-6.21,1.12c-2.14.71-4.16,1.55-6.08,2.06a15.51,15.51,0,0,1-5.24.59,8.69,8.69,0,0,1-3.44-.92,5.45,5.45,0,0,1-.82-.52c-.18-.13-.27-.21-.26-.22s.41.23,1.16.58a9.37,9.37,0,0,0,3.38.75,15.83,15.83,0,0,0,5.11-.67c1.88-.53,3.88-1.37,6-2.1a18.1,18.1,0,0,1,6.36-1.1,13.87,13.87,0,0,1,5.15,1.16,14.42,14.42,0,0,1,3,1.84,8.34,8.34,0,0,1,.73.64C136.42,455.2,136.49,455.29,136.48,455.3Z"
      style="fill:#fff"></path>
    <path
      d="M137.33,451.56a22.83,22.83,0,0,0-4.4-2.6,16.29,16.29,0,0,0-5.35-1.28,17.25,17.25,0,0,0-6.62,1.16,59.08,59.08,0,0,1-6.54,2.14,16.83,16.83,0,0,1-5.63,0,12.62,12.62,0,0,1-3.62-1.15,6.25,6.25,0,0,1-.88-.54c-.19-.15-.29-.23-.28-.24s.43.25,1.24.62a14,14,0,0,0,3.59,1,17.1,17.1,0,0,0,5.5-.1,67.16,67.16,0,0,0,6.47-2.16,17.18,17.18,0,0,1,6.8-1.15,16,16,0,0,1,5.45,1.41,15.84,15.84,0,0,1,3.25,2,10.18,10.18,0,0,1,.78.67C137.26,451.46,137.35,451.55,137.33,451.56Z"
      style="fill:#fff"></path>
    <path d="M145.64,439.58c0,.13-11,.23-24.47.23s-24.48-.1-24.48-.23,11-.23,24.48-.23S145.64,439.45,145.64,439.58Z"
      style="fill:#263238"></path>
  </g>
  <g id="freepik--Board--inject-337">
    <rect x="67.14" y="45.74" width="272.16" height="238.9" style="fill:#fafafa"></rect>
    <path
      d="M339.3,284.63c0-1.85-.09-95.12-.22-238.89l.22.22L67.17,46h0l.26-.26c0,86.81,0,168.56,0,238.89l-.23-.23,272.16.23-272.16.23h-.23v-.23c0-70.33,0-152.08,0-238.89v-.26h.29l272.13,0h.22v.22C339.39,189.52,339.3,282.78,339.3,284.63Z"
      style="fill:#263238"></path>
    <path
      d="M217.27,284.21s0,.12-.06.35a4.73,4.73,0,0,1-.36.94,7.74,7.74,0,0,1-2.38,2.83,11.8,11.8,0,0,1-5,2.16,37.23,37.23,0,0,1-6.68.48,33.46,33.46,0,0,1-6.69-.41,13.08,13.08,0,0,1-5.09-2,13.87,13.87,0,0,1-2.75-2.46,4.72,4.72,0,0,1-.8-1.09,10.91,10.91,0,0,1,1,.95,16.07,16.07,0,0,0,2.8,2.3,13.38,13.38,0,0,0,5,1.85,35.58,35.58,0,0,0,6.6.36,40,40,0,0,0,6.59-.43,11.93,11.93,0,0,0,4.91-2,8.29,8.29,0,0,0,2.42-2.63C217.09,284.66,217.22,284.19,217.27,284.21Z"
      style="fill:#263238"></path>
    <rect x="49.56" y="39.15" width="307.33" height="9.34" style="fill:#455a64"></rect>
    <path d="M356.91,48.51H49.53V39.12H356.91Zm-307.33,0H356.86V39.17H49.58Z" style="fill:#263238"></path>
    <rect x="94.79" y="87.06" width="215.19" height="99.48" style="fill:#fafafa"></rect>
    <g transform="translate(30.000000,240.000000) scale(0.060000,-0.060000)" fill="#00008F" stroke="none">
      <path d="M910 1989 l0 -631 43 54 c72 88 282 370 306 411 22 35 25 37 77 37
45 0 54 -3 54 -17 0 -29 73 -263 82 -263 5 0 13 10 18 23 8 17 3 44 -23 122
-19 55 -38 108 -42 118 -6 15 0 17 57 17 l64 0 18 -70 c10 -38 22 -70 26 -70
10 0 100 118 100 131 0 5 26 9 57 9 l57 0 -31 -32 c-16 -18 -58 -69 -92 -112
-46 -60 -60 -84 -55 -100 9 -28 13 -31 23 -20 29 33 163 218 173 238 10 23 17
26 63 26 l52 0 32 -117 c42 -151 109 -360 127 -395 l15 -28 -71 0 c-60 0 -70
3 -70 18 0 9 -13 60 -29 112 l-28 95 -106 3 c-104 3 -106 2 -123 -23 -19 -29
-15 -63 20 -147 l24 -58 -64 0 c-64 0 -65 0 -70 30 -8 38 -14 38 -39 0 -18
-27 -25 -30 -72 -30 -49 0 -52 1 -58 30 -8 38 -16 38 -38 1 -15 -25 -24 -30
-67 -33 -28 -1 -50 -2 -50 0 0 1 25 33 55 70 48 58 55 71 49 97 -14 64 -16 65
-124 65 l-100 0 -61 -77 c-34 -43 -73 -95 -87 -115 -20 -31 -31 -38 -58 -38
l-34 0 0 -75 0 -75 720 0 720 0 0 725 0 725 -720 0 -720 0 0 -631z" />
      <path fill="#ED1C24" d="M3590 2605 c-508 -69 -891 -328 -942 -638 -31 -188 77 -391 286 -538
l69 -49 97 0 c188 0 527 58 715 122 57 20 215 94 215 102 0 2 -35 -5 -77 -16
-104 -26 -304 -34 -429 -18 -236 29 -463 113 -556 205 -65 65 -90 119 -89 195
1 207 229 377 643 479 253 62 522 83 833 63 88 -6 162 -9 164 -7 5 6 -189 63
-269 79 -192 38 -469 47 -660 21z" />
      <path fill="#ED1C24" d="M4495 2413 c-252 -30 -404 -60 -551 -108 -107 -35 -289 -122 -229
-109 104 21 282 44 355 44 253 0 558 -94 679 -209 69 -65 95 -120 96 -201 1
-240 -326 -436 -880 -526 -109 -17 -538 -27 -678 -16 -42 4 -77 4 -77 1 0 -8
207 -65 315 -86 72 -14 140 -18 335 -17 229 0 254 2 375 28 404 85 684 256
798 485 l42 84 0 117 0 117 -42 84 c-49 99 -130 188 -243 268 l-73 51 -96 -1
c-53 -1 -109 -4 -126 -6z" />
      <path fill="#ED1C24" d="M3679 2166 c-25 -6 -64 -27 -88 -46 -54 -44 -117 -138 -126 -189 -22
-129 99 -252 292 -297 72 -17 275 -15 321 3 37 14 132 114 159 167 21 41 24
60 21 112 -3 52 -9 70 -34 101 -63 78 -159 131 -278 154 -67 13 -212 10 -267
-5z" />
      <path d="M1248 1678 l-46 -63 60 -3 c33 -2 62 -1 65 1 2 3 -4 33 -14 67 l-18
61 -47 -63z" />
      <path d="M1797 1675 l-47 -65 69 0 70 0 -15 42 c-8 23 -15 52 -16 65 -2 13 -5
23 -8 23 -3 -1 -26 -30 -53 -65z" />
      <path d="M1506 1509 c-11 -16 -12 -28 -4 -50 12 -34 23 -37 38 -8 12 21 4 79
-10 79 -5 0 -15 -9 -24 -21z" />
      <path d="M1055 948 c-3 -7 -36 -106 -74 -220 l-70 -208 29 0 c27 0 31 5 48 63
l20 62 79 3 79 3 20 -63 c17 -55 23 -63 47 -66 18 -2 27 1 27 11 0 8 -31 106
-70 217 -38 111 -70 204 -70 206 0 11 -61 2 -65 -8z m65 -143 c12 -44 25 -86
27 -92 4 -10 -11 -13 -56 -13 -34 0 -61 3 -61 7 0 23 55 192 60 186 4 -5 17
-44 30 -88z" />
      <path d="M1290 950 c0 -5 23 -52 52 -102 28 -50 51 -97 51 -104 0 -6 -25 -57
-56 -112 -31 -55 -57 -103 -57 -106 0 -3 12 -6 28 -6 24 0 32 9 72 89 25 50
47 90 50 90 3 1 27 -40 53 -89 44 -82 51 -90 78 -90 16 0 29 2 29 4 0 2 -27
52 -61 110 l-61 106 56 102 c31 56 56 105 56 110 0 5 -12 8 -26 6 -22 -2 -34
-17 -68 -85 -22 -45 -45 -80 -49 -79 -5 1 -28 37 -50 81 -35 67 -46 81 -69 83
-16 2 -28 -2 -28 -8z" />
      <path d="M1745 948 c-16 -46 -145 -423 -145 -425 0 -2 13 -3 29 -3 27 0 31 4
48 63 l19 62 80 3 81 3 19 -66 c18 -62 20 -65 49 -65 l31 0 -71 208 c-38 114
-74 213 -78 220 -11 16 -56 16 -62 0z m60 -133 c14 -47 28 -92 31 -100 5 -12
-5 -15 -59 -15 l-64 0 31 100 c17 55 32 100 33 100 1 0 13 -38 28 -85z" />
      <path d="M2215 941 c-74 -45 -113 -134 -102 -236 6 -56 33 -119 64 -147 49
-44 128 -59 186 -34 58 25 71 40 58 64 l-11 21 -38 -25 c-71 -49 -168 -11
-192 75 -26 94 2 206 59 235 39 20 100 20 129 0 18 -12 26 -13 37 -4 22 18 19
26 -19 49 -44 27 -129 28 -171 2z" />
      <path d="M2561 943 c-66 -33 -108 -134 -97 -236 12 -114 72 -184 168 -194 118
-11 198 79 198 223 0 107 -33 174 -102 210 -36 19 -125 17 -167 -3z m154 -55
c38 -30 55 -76 55 -153 0 -78 -26 -137 -70 -160 -65 -33 -126 -7 -161 69 -37
81 -15 210 42 250 34 23 100 21 134 -6z" />
      <path d="M2920 740 l0 -220 119 0 c109 0 119 2 124 19 3 11 2 22 -1 25 -3 3
-47 6 -99 6 l-93 0 0 195 0 195 -25 0 -25 0 0 -220z" />
      <path d="M3238 954 c-5 -4 -8 -103 -8 -221 l0 -213 30 0 30 0 0 84 0 83 76 5
c85 6 118 23 147 79 31 59 6 142 -51 169 -31 14 -213 26 -224 14z m213 -73
c27 -33 25 -86 -6 -116 -21 -22 -33 -25 -90 -25 l-65 0 0 86 0 86 71 -4 c60
-3 74 -8 90 -27z" />
      <path d="M3660 941 c-12 -24 -140 -400 -140 -413 0 -5 12 -8 27 -6 24 3 30 11
47 66 l20 63 80 -3 80 -3 18 -62 c18 -59 21 -63 48 -63 17 0 30 3 29 8 0 4
-33 102 -72 217 -68 199 -73 210 -99 213 -19 2 -30 -3 -38 -17z m90 -228 c0
-9 -19 -13 -61 -13 -48 0 -60 3 -56 14 3 7 15 47 27 87 11 41 24 81 27 89 5
14 62 -148 63 -177z" />
      <path d="M3860 935 c0 -24 2 -25 65 -25 l65 0 0 -195 0 -195 28 0 27 0 0 192
0 193 68 3 c64 3 68 4 65 25 -3 21 -7 22 -160 25 l-158 3 0 -26z" />
      <path d="M4250 959 c0 -2 -1 -102 -3 -222 l-2 -217 28 0 27 0 0 91 0 90 41 -3
c41 -3 43 -4 92 -90 44 -79 52 -88 78 -88 16 0 29 3 29 8 0 4 -23 45 -50 91
l-49 85 28 17 c45 27 61 58 61 114 0 54 -17 83 -60 105 -22 12 -220 28 -220
19z m184 -59 c34 -12 49 -45 41 -86 -8 -44 -46 -64 -120 -64 l-55 0 0 80 0 80
54 0 c30 0 66 -4 80 -10z" />
      <path d="M4627 954 c-4 -4 -7 -103 -7 -221 l0 -213 30 0 30 0 -2 218 c-3 210
-4 217 -23 220 -12 2 -24 0 -28 -4z" />
      <path d="M4875 948 c-3 -7 -36 -106 -74 -220 l-70 -208 29 0 c26 0 30 5 50 65
l22 65 78 0 78 0 19 -62 c17 -59 21 -63 50 -66 l32 -3 -73 218 -73 218 -31 3
c-20 2 -34 -2 -37 -10z m64 -138 c12 -41 24 -83 27 -92 5 -16 -2 -18 -56 -18
-55 0 -62 2 -57 18 2 9 15 54 28 99 13 45 27 79 30 75 4 -4 16 -41 28 -82z" />
    </g>
  </g>
  <g id="freepik--Character--inject-337">
    <polygon points="354.31 453.38 356.04 445.38 335.26 443.08 333.99 454.77 341.22 459.35 354.31 453.38"
      style="fill:#ffcdb0"></polygon>
    <polygon points="425.02 431.21 422.21 465.69 406.39 463.4 405.32 429.54 425.02 431.21" style="fill:#ffcdb0">
    </polygon>
    <path
      d="M406.34,456.59s10.62,8.57,16.53,2.27l1.18,3.35,4.65,23.6a3.08,3.08,0,0,1-2.07,3.58,3.12,3.12,0,0,1-3.21-.84c-4.29-4.61-20-21.64-19.66-23.77l.49-5.67a2.9,2.9,0,0,1,2.09-2.52Z"
      style="fill:#97BF26"></path>
    <g style="opacity:0.6000000000000001">
      <path
        d="M426.07,489.51,403.9,462.8l-.08,1.24c-.22,1.34.34,1.92.93,2.83,1.75,2.69,6.71,8.8,18.58,21.67a3.15,3.15,0,0,0,2.74,1Z"
        style="fill:#fff"></path>
    </g>
    <g style="opacity:0.6000000000000001">
      <path d="M407.7,459.37a1.8,1.8,0,0,1,.34,2.41,1.83,1.83,0,0,1-2.45.34,1.74,1.74,0,1,1,2.24-2.63"
        style="fill:#fff"></path>
    </g>
    <path
      d="M420.09,476.23c.17.09,1-1.39,2.8-2.09s3.46-.22,3.51-.4-.34-.33-1-.47a4.91,4.91,0,0,0-2.73.27,4.76,4.76,0,0,0-2.15,1.66C420.1,475.77,420,476.2,420.09,476.23Z"
      style="fill:#263238"></path>
    <path d="M422,480.3c.14.14,1.17-.74,2.75-1.07s2.9,0,3-.16-1.31-.87-3.11-.47S421.81,480.21,422,480.3Z"
      style="fill:#263238"></path>
    <path d="M416.46,470.92c.13.15,1.71-1.21,4.13-1.93s4.51-.5,4.53-.7-2.14-.72-4.73.08S416.32,470.83,416.46,470.92Z"
      style="fill:#263238"></path>
    <path d="M416.45,463.84c.07.19,1.78-.37,3.94-.3s3.85.7,3.92.53-1.57-1.12-3.9-1.17S416.36,463.7,416.45,463.84Z"
      style="fill:#263238"></path>
    <path
      d="M421.63,463.57a2.43,2.43,0,0,0-.09-1.11,7.55,7.55,0,0,0-1.24-2.79,3.48,3.48,0,0,0-1.68-1.47,1.25,1.25,0,0,0-1.36.42,1.93,1.93,0,0,0-.32,1.37,4.35,4.35,0,0,0,4.25,3.5,5,5,0,0,0,4.65-3.09,1.66,1.66,0,0,0-.08-1.42,1.23,1.23,0,0,0-1.34-.49,4.22,4.22,0,0,0-1.86,1.21,8.46,8.46,0,0,0-1.78,2.48,2.55,2.55,0,0,0-.34,1.06,13.62,13.62,0,0,1,2.45-3.21,4,4,0,0,1,1.64-1,.67.67,0,0,1,.73.26,1.17,1.17,0,0,1,0,.94,4.5,4.5,0,0,1-4.06,2.64,3.8,3.8,0,0,1-3.66-2.93,1.36,1.36,0,0,1,.19-1,.67.67,0,0,1,.74-.24,3.16,3.16,0,0,1,1.45,1.21A11.16,11.16,0,0,1,421.63,463.57Z"
      style="fill:#263238"></path>
    <path
      d="M429.49,230.88c0,.74,7.72,26.84,7.72,26.84s12.5,24.94,8.46,40.38c-2.23,8.51-12.28,61.75-12.28,61.75s-3.82,40.59-6,58.09-3,26.89-3,26.89l-19.15-.77-4.5-78.28-1.42-61.47L373.87,381.7s-5.43,23.91-8.39,34-9.65,31.57-9.65,31.57l-20.67-3.06s2.23-37.63,4.2-46.75,8.5-41.87,8.5-41.87l5.79-31.83,6.2-51.81,5.39-19.92,6.7-22.53Z"
      style="fill:#263238"></path>
    <path
      d="M326.84,199.2s-.74-2.62-2.43-3.53-9.21-.61-10.8-.61-6.67-1.91-9,0a1.55,1.55,0,0,0,1.18,2c2.75.55,7.84,1.62,7.61,2s-8.93-.59-10.73,0l-12.92-.31s-2.27,2.1-.17,2.93v1.71a5.86,5.86,0,0,0,2.23,1c1.69.51-.11,1.52,2.11,2a19.62,19.62,0,0,0,4.56.41l.21,1a7.4,7.4,0,0,0,2.22.7c1.8.41,21.91,0,21.91,0l10.27,3.26,1.48-10.12Z"
      style="fill:#ffcdb0"></path>
    <path
      d="M322.7,198.7c0,.19-2.45.42-5,1.87A9.6,9.6,0,0,0,314.9,203a15.07,15.07,0,0,1-.9,1.3,3,3,0,0,1,.6-1.5,8.19,8.19,0,0,1,2.83-2.69,11.36,11.36,0,0,1,3.67-1.31A4.2,4.2,0,0,1,322.7,198.7Z"
      style="fill:#eb996e"></path>
    <path
      d="M307.28,205.75a19.93,19.93,0,0,1-4.51.3,10.21,10.21,0,0,0-3.08.21,3,3,0,0,0-1,.75c-.08,0,0-.65.82-1.08a7.78,7.78,0,0,1,3.23-.4A19.65,19.65,0,0,1,307.28,205.75Z"
      style="fill:#eb996e"></path>
    <path
      d="M306.63,202.89a8.61,8.61,0,0,1-2.08.43,23.74,23.74,0,0,1-5.16.23,13.32,13.32,0,0,0-5,.23,3.1,3.1,0,0,0-1.3.67c-.24.24-.21.46-.26.46s-.14-.24.1-.59a2.9,2.9,0,0,1,1.34-.89,7.55,7.55,0,0,1,2.31-.47,25.25,25.25,0,0,1,2.85.07,32.76,32.76,0,0,0,5.08-.08A8.9,8.9,0,0,1,306.63,202.89Z"
      style="fill:#eb996e"></path>
    <path
      d="M304.83,200.68a10.28,10.28,0,0,1-2.25.18c-1.39,0-3.31.07-5.43.07-1.06,0-2.07-.09-3-.08a13.29,13.29,0,0,0-2.39.15,3.79,3.79,0,0,0-1.5.46c-.3.2-.38.41-.42.39s0-.26.3-.55a3.4,3.4,0,0,1,1.55-.67,11.75,11.75,0,0,1,2.46-.26c.93,0,1.94.06,3,0,2.11,0,4,0,5.41.08A9.35,9.35,0,0,1,304.83,200.68Z"
      style="fill:#eb996e"></path>
    <polygon
      points="399.61 159.12 389.76 171.19 391.99 176.17 403.6 177.03 415.5 175.07 422.13 172.69 426.39 161.75 425.07 153.12 420.43 153.31 399.61 159.12"
      style="fill:#ffcdb0"></polygon>
    <path
      d="M390.4,170.2s-.79,3.92,6.32,4.15,25.42-4.15,25.42-4.15l14.92,26.31-15.83,34.37-49.29-1.36v-8.59s-4.29-2.94-4.75-12a37.78,37.78,0,0,1,2.26-15.37Z"
      style="fill:#fff"></path>
    <path
      d="M396.07,156.58s-13.6,2.33-15.3,3.18-8.5,8.5-10.62,13.81-4,18.27-4,18.27-5.31,7.65-5.31,8.92v3.4s-4,6.16-4,6.8v.64l-26.21-14.87-9.91,17.84s23,16.47,34,23.17a6.39,6.39,0,0,0,8.49-1.71h0l-8.66,54,5.42.85,12.09-61.32v-8.59s-8.73-9-1.37-21.23c2.56-4.24,10-15.72,14-21.45s14.16-18.09,14.16-18.09l.05-6.62Z"
      style="fill:#97BF26"></path>
    <path
      d="M424,151.07l6.72,1.12,3.13,3.81s18.93,4.78,21.17,7.69-11.58,40-11.58,40l-7.13,30.17s10.94,29.88,11.81,44.63l-50.74,15.11s-1.57-51,0-60.19,7.83-32.67,12.08-42.52,15-31.1,15-31.77S424,151.07,424,151.07Z"
      style="fill:#97BF26"></path>
    <g style="opacity:0.30000000000000004">
      <path
        d="M437.07,237a3.68,3.68,0,0,0-1.69-1.44c-5-2.62-10.89-2.93-16.2-4.87-5.05-1.84-10-5.2-15.29-4.31-2.07.35-3.1.34-5.17.72l-.38,1.7c3.22,1.69,8.76.09,11.79,2.1a31.93,31.93,0,0,1,2.8,2.54,17.37,17.37,0,0,0,4,2.33q4.27,2,8.62,3.78c2.75,1.14,5.73,2.24,8.63,1.56a4.45,4.45,0,0,0,2.48-1.4A2.53,2.53,0,0,0,437.07,237Z">
      </path>
    </g>
    <path
      d="M448.19,160.49c-.76.3-9.11,16.09-11.05,24s7.37,32,7.37,32l-28.64-1.91-2.78,14.13s26.38,9.5,35.1,11.64,17.46,3.49,20,0a18.6,18.6,0,0,0,3.1-7.18l-3.88-29.67-3.68-18.81s-.39-8.34-2.33-13.19S451.1,159.32,448.19,160.49Z"
      style="fill:#97BF26"></path>
    <path
      d="M373.73,230.84a3,3,0,0,1-.09-.66c0-.49-.08-1.12-.14-1.9-.11-1.71-.26-4.08-.44-7a7.47,7.47,0,0,0-.5-2.19,13.3,13.3,0,0,0-1.3-2.1,9.45,9.45,0,0,1-1.71-5.33,26,26,0,0,1,3.08-12.34,104.17,104.17,0,0,1,6.7-10.84c2.14-3.27,4-6.27,5.67-8.71a62.76,62.76,0,0,1,4.21-5.61c.54-.63,1-1.11,1.28-1.42a3.71,3.71,0,0,1,.48-.46,4.54,4.54,0,0,1-.4.53l-1.21,1.47c-1,1.3-2.44,3.22-4.06,5.69s-3.44,5.48-5.57,8.77a109.75,109.75,0,0,0-6.63,10.82A25.67,25.67,0,0,0,370,211.65a9.09,9.09,0,0,0,1.58,5.1,13.7,13.7,0,0,1,1.32,2.19,8,8,0,0,1,.5,2.32c.15,3,.22,5.35.27,7,0,.78,0,1.41.05,1.9A3.44,3.44,0,0,1,373.73,230.84Z"
      style="fill:#263238"></path>
    <path
      d="M396,174.32a2.57,2.57,0,0,1-.22.59,14.48,14.48,0,0,1-.82,1.62,31.28,31.28,0,0,1-4.07,5.26,58.27,58.27,0,0,0-6.27,7.52,44.18,44.18,0,0,0-5,10.83,59.46,59.46,0,0,0-1.57,6,21.13,21.13,0,0,0-.65,5.69c.08,1.82.89,3.4,1.36,5a14.45,14.45,0,0,1,.45,4.6c-.06,2.8,0,5.06.09,6.63q.06,1.09.09,1.8a4.3,4.3,0,0,1,0,.63,2.41,2.41,0,0,1-.11-.62c-.05-.41-.12-1-.19-1.8-.13-1.56-.27-3.83-.26-6.64a14.13,14.13,0,0,0-.49-4.48,20.2,20.2,0,0,1-1.42-5.1,21,21,0,0,1,.62-5.83A60.85,60.85,0,0,1,379,200a43.21,43.21,0,0,1,5.14-10.94,55.29,55.29,0,0,1,6.4-7.51,33.43,33.43,0,0,0,4.16-5.12C395.57,175.1,395.9,174.3,396,174.32Z"
      style="fill:#263238"></path>
    <path
      d="M404.28,173.27a2.27,2.27,0,0,1-.18.6,17.68,17.68,0,0,1-.7,1.65,38.65,38.65,0,0,1-3.41,5.63c-1.59,2.28-3.63,4.88-5.54,8a51.4,51.4,0,0,0-5.09,10.69,41.61,41.61,0,0,0-2,11.65c-.16,3.65,0,7,0,9.73s0,5-.09,6.57c0,.78-.1,1.38-.14,1.79a2.39,2.39,0,0,1-.09.61,3.64,3.64,0,0,1,0-.62c0-.46,0-1.05,0-1.78,0-1.55,0-3.79-.08-6.57s-.22-6.07-.09-9.75a41.59,41.59,0,0,1,2-11.79A49.94,49.94,0,0,1,394,188.89c1.95-3.13,4-5.72,5.65-8a42.79,42.79,0,0,0,3.53-5.5c.36-.69.61-1.23.78-1.6A3.7,3.7,0,0,1,404.28,173.27Z"
      style="fill:#263238"></path>
    <path
      d="M411.4,172.32a2.56,2.56,0,0,1-.08.61,16.62,16.62,0,0,1-.38,1.74,40.08,40.08,0,0,1-2.16,6.16c-1.09,2.54-2.61,5.46-4.28,8.69a74.45,74.45,0,0,0-4.74,10.79,124.52,124.52,0,0,0-5,20.85c-.39,2.73-.53,4.94-.66,6.48a4.22,4.22,0,0,1-.49,1.72,1.39,1.39,0,0,1-.41.47s.14-.16.32-.52a4.54,4.54,0,0,0,.38-1.69c.06-1.53.15-3.77.49-6.5a113.44,113.44,0,0,1,4.87-21,69.94,69.94,0,0,1,4.81-10.85c1.69-3.23,3.24-6.11,4.36-8.62a45.38,45.38,0,0,0,2.31-6.07C411.19,173.14,411.35,172.31,411.4,172.32Z"
      style="fill:#263238"></path>
    <path
      d="M360.89,230c-.08,0,.1-1.1.19-2.87a29.74,29.74,0,0,0-.4-6.87,17.63,17.63,0,0,0-2.2-6.46,9.35,9.35,0,0,0-1.94-2,1.8,1.8,0,0,1,.71.34,6,6,0,0,1,1.54,1.49,16.22,16.22,0,0,1,2.4,6.58,25.14,25.14,0,0,1,.26,7A10,10,0,0,1,360.89,230Z"
      style="fill:#263238"></path>
    <path
      d="M367.67,215.25a2.49,2.49,0,0,1-.4-.57,11.8,11.8,0,0,1-.83-1.82,14.88,14.88,0,0,1-.5-7.28,40.07,40.07,0,0,1,3.6-10.24c1.73-3.69,3.47-7.82,5.68-12a40.67,40.67,0,0,1,3.76-5.8,60.75,60.75,0,0,1,4.35-4.71c3-2.82,4.78-6,6.57-8.54s3.34-4.48,4.46-5.79c.56-.66,1-1.16,1.32-1.49a2.82,2.82,0,0,1,.49-.49,4.09,4.09,0,0,1-.41.55l-1.24,1.56c-1.07,1.35-2.59,3.32-4.31,5.87s-3.57,5.81-6.54,8.66a61.49,61.49,0,0,0-4.29,4.7,39.93,39.93,0,0,0-3.7,5.73c-2.2,4.14-3.95,8.27-5.7,11.95a40.83,40.83,0,0,0-3.68,10.1,15.29,15.29,0,0,0,.33,7.16A18.16,18.16,0,0,0,367.67,215.25Z"
      style="fill:#263238"></path>
    <path
      d="M361.86,243.69a4.51,4.51,0,0,1,.12-1.13c.12-.72.31-1.76.56-3,.55-2.67,1.27-6.14,2.07-10A66.61,66.61,0,0,0,366,219.49c.12-2.59,0-4.2.09-4.21a5.35,5.35,0,0,1,.16,1.13c.05.36.07.81.09,1.33s0,1.11,0,1.76a55.56,55.56,0,0,1-1.21,10.15c-.77,3.91-1.64,7.4-2.22,9.94-.28,1.19-.52,2.19-.72,3A5.09,5.09,0,0,1,361.86,243.69Z"
      style="fill:#263238"></path>
    <path
      d="M433.25,156.43a4.58,4.58,0,0,1,0,.74c0,.49-.08,1.2-.19,2.12a71.2,71.2,0,0,1-1.3,7.73,74.91,74.91,0,0,1-3.43,11.11c-.81,2-1.75,4.14-2.82,6.26a14.6,14.6,0,0,1-.89,1.62,2.85,2.85,0,0,1-1.71,1l-3.62.91-1.17.29.09-.46,4.25,3.12.21.15-.16.21-13.05,17-3.89,5-1.07,1.32a2.62,2.62,0,0,1-.39.44,3.38,3.38,0,0,1,.32-.5l1-1.37,3.77-5.08,12.91-17.1.05.36-4.25-3.11-.45-.33.54-.13,1.17-.3,3.62-.91a2.29,2.29,0,0,0,1.43-.77,11.66,11.66,0,0,0,.84-1.53c1.08-2.11,2-4.19,2.83-6.21a77.17,77.17,0,0,0,3.52-11c.77-3.2,1.2-5.84,1.46-7.66.12-.88.22-1.58.29-2.11A3,3,0,0,1,433.25,156.43Z"
      style="fill:#263238"></path>
    <path
      d="M449.52,160.88a9,9,0,0,0-2.19.36,10.1,10.1,0,0,0-4.71,3.66,20.45,20.45,0,0,0-2.17,3.59,34.69,34.69,0,0,0-1.84,4.47,36,36,0,0,0-1.86,10.88c-.09,3.93,1,7.58,1.67,10.94s1.42,6.36,2,8.88,1.17,4.54,1.59,5.92c.23.69.39,1.23.53,1.58a3.4,3.4,0,0,1,.18.56,2.29,2.29,0,0,1-.28-.52c-.17-.34-.36-.87-.62-1.56-.49-1.37-1.09-3.38-1.76-5.89s-1.39-5.52-2.15-8.86c-.36-1.68-.75-3.44-1.14-5.27a26,26,0,0,1-.58-5.79,35.59,35.59,0,0,1,1.93-11,31.67,31.67,0,0,1,1.9-4.51,20,20,0,0,1,2.27-3.62,9.94,9.94,0,0,1,4.94-3.63,5.7,5.7,0,0,1,1.67-.23A2.13,2.13,0,0,1,449.52,160.88Z"
      style="fill:#263238"></path>
    <path
      d="M437.82,237.28a2.29,2.29,0,0,1-.48-.13l-1.38-.43L430.83,235,413,229l-.2-.07,0-.21c.89-4.31,1.87-9,2.89-14l0-.2,0-.21H416c11.12.22,21.17,1,28.4,1.86,3.61.41,6.53.81,8.54,1.11l2.32.36a7.23,7.23,0,0,1,.8.16,4.17,4.17,0,0,1-.82-.06L453,217.5c-2-.24-4.95-.58-8.56-.95-7.24-.74-17.26-1.48-28.37-1.7l.26-.2,0,.19-2.92,14-.16-.28,17.76,6.22,5.09,1.83,1.34.51A2,2,0,0,1,437.82,237.28Z"
      style="fill:#263238"></path>
    <path d="M455.38,215c0,.15-2.57.31-5.71.76s-5.66,1-5.7.85a20.61,20.61,0,0,1,5.63-1.36A20.11,20.11,0,0,1,455.38,215Z"
      style="fill:#263238"></path>
    <path
      d="M406.33,266.16a5.85,5.85,0,0,1-.18-.66,2.82,2.82,0,0,0-1-1.44,2.64,2.64,0,0,0-2.48-.33,2.6,2.6,0,0,0,0,4.87,2.67,2.67,0,0,0,2.48-.33,2.82,2.82,0,0,0,1-1.44,6.56,6.56,0,0,1,.18-.67s.09.26,0,.72a2.77,2.77,0,0,1-1,1.68,3,3,0,0,1-2.88.49,3.06,3.06,0,0,1,0-5.77,3,3,0,0,1,2.88.49,2.74,2.74,0,0,1,1,1.68C406.42,265.91,406.36,266.17,406.33,266.16Z"
      style="fill:#263238"></path>
    <path
      d="M405.78,240.11s-.06-.25-.19-.67a2.88,2.88,0,0,0-1-1.43,2.64,2.64,0,0,0-2.49-.33,2.59,2.59,0,0,0,0,4.86,2.64,2.64,0,0,0,2.49-.33,2.88,2.88,0,0,0,1-1.43c.13-.42.14-.67.19-.67a1.39,1.39,0,0,1,0,.72,2.87,2.87,0,0,1-1,1.68,3,3,0,0,1-2.87.49,3.06,3.06,0,0,1,0-5.78,3,3,0,0,1,2.87.49,2.87,2.87,0,0,1,1,1.68A1.39,1.39,0,0,1,405.78,240.11Z"
      style="fill:#263238"></path>
    <g style="opacity:0.30000000000000004">
      <path
        d="M356.77,211.6a8.11,8.11,0,0,1,5.05,4.34,20.17,20.17,0,0,1,1.83,6.85,6.22,6.22,0,0,1-.5,4.16c-.36.58-1.26,1-1.67.47a1.21,1.21,0,0,1-.19-.55c-.5-2.8-.63-5.66-1.25-8.44s-1.19-5-3.37-6.82">
      </path>
    </g>
    <g style="opacity:0.30000000000000004">
      <path
        d="M404.28,214.52c7.31-3.06,12.76-9.77,17.06-16.42.93-1.44,1.84-2.89,2.75-4.34a6,6,0,0,0,1.09-2.6,2,2,0,0,0-1.43-2.17,2.81,2.81,0,0,0,3.13-1.22,8.25,8.25,0,0,0,1.13-3.41c.51-2.9,1.21-7.15,1.72-10-.8,2.08-2.54,5.55-3.34,7.63-.57,1.47-1.11,3.18-2.3,4.21-1.91,1.65-3.83,1.08-6.07,1.76,1.45.4,3.16,2.09,4.25,3.11-5.56,7.88-18,23.49-18,23.49">
      </path>
    </g>
    <path
      d="M398.17,93.72c-2,.4-4.17.1-6.16.66-2.88.82-5,3.35-6.12,6.14a29.37,29.37,0,0,0-1.53,8.81l-.56,8a25,25,0,0,1-.72,5.11c-.53,1.85-2,6.78-2.06,9.18a25.93,25.93,0,0,0,6,18.15c1.85,2.09,5.7,3,8.43,3.56l5.68-5c.2-.18-4.25-5-4.14-5.28a1.9,1.9,0,0,0-.12-1.3,64,64,0,0,1,2.7-47.67"
      style="fill:#e0e0e0"></path>
    <path
      d="M398.76,161.64c-.15-10.45,0-14.37,0-14.31s-9-1.51-10.81-13.23c-.91-5.82-.6-15.37-.09-23.18.46-7,5.14-15.64,12.14-14.88l21.85,5.57a4.13,4.13,0,0,1,3.68,4.19h0l-2.46,55.64"
      style="fill:#ffcdb0"></path>
    <path
      d="M392.17,118a1.5,1.5,0,0,0,1.44,1.52,1.43,1.43,0,0,0,1.55-1.35,1.5,1.5,0,0,0-1.44-1.52A1.43,1.43,0,0,0,392.17,118Z"
      style="fill:#263238"></path>
    <path
      d="M390.6,115.89c.18.2,1.32-.64,2.94-.63s2.8.82,3,.62-.1-.44-.61-.82a4.13,4.13,0,0,0-2.39-.74,3.94,3.94,0,0,0-2.34.75C390.67,115.45,390.51,115.8,390.6,115.89Z"
      style="fill:#263238"></path>
    <path
      d="M408,118.23a1.5,1.5,0,0,0,1.44,1.52A1.44,1.44,0,0,0,411,118.4a1.49,1.49,0,0,0-1.44-1.52A1.43,1.43,0,0,0,408,118.23Z"
      style="fill:#263238"></path>
    <path
      d="M406.49,116.23c.18.2,1.32-.64,2.94-.64s2.8.82,3,.62-.1-.44-.61-.81a4.06,4.06,0,0,0-2.39-.74,3.94,3.94,0,0,0-2.34.75C406.57,115.79,406.4,116.14,406.49,116.23Z"
      style="fill:#263238"></path>
    <path
      d="M400.59,128.2a11.16,11.16,0,0,0-2.62-.48c-.41,0-.8-.12-.87-.4a2.08,2.08,0,0,1,.27-1.23L398.6,123c1.71-4.47,2.94-8.15,2.76-8.21s-1.71,3.5-3.41,8l-1.18,3.16a2.37,2.37,0,0,0-.22,1.62,1.07,1.07,0,0,0,.68.61,3.35,3.35,0,0,0,.7.1A9.81,9.81,0,0,0,400.59,128.2Z"
      style="fill:#263238"></path>
    <path d="M398.76,147.33a31.55,31.55,0,0,0,16.37-4.15s-4.65,8.23-16.37,7.11Z" style="fill:#eb996e"></path>
    <path
      d="M401.27,132.1a2.9,2.9,0,0,1,2.61-1.07,2.63,2.63,0,0,1,1.84,1,1.68,1.68,0,0,1,.12,1.92,1.94,1.94,0,0,1-2.12.53,6.2,6.2,0,0,1-2.06-1.23,1.61,1.61,0,0,1-.46-.48.53.53,0,0,1,0-.6"
      style="fill:#97BF26"></path>
    <path
      d="M405.35,129.33c-.26,0-.27,1.74-1.78,3s-3.37,1.05-3.38,1.29.41.35,1.2.37a4.36,4.36,0,0,0,2.83-1,3.78,3.78,0,0,0,1.37-2.5C405.66,129.76,405.47,129.32,405.35,129.33Z"
      style="fill:#263238"></path>
    <path
      d="M405.77,111.54c.15.44,1.77.23,3.66.46s3.43.76,3.69.36c.11-.18-.16-.6-.77-1a6.44,6.44,0,0,0-5.6-.63C406.05,111,405.7,111.33,405.77,111.54Z"
      style="fill:#263238"></path>
    <path
      d="M391.2,113c.28.36,1.4,0,2.74,0s2.47.25,2.73-.13c.12-.19-.06-.56-.55-.9a3.77,3.77,0,0,0-2.23-.61,3.81,3.81,0,0,0-2.18.73C391.23,112.39,391.08,112.77,391.2,113Z"
      style="fill:#263238"></path>
    <path
      d="M410.51,114.21a12.59,12.59,0,0,1,2.23.74,14,14,0,0,1,1.95,1.31,4.73,4.73,0,0,0-1.86-1.49A4.61,4.61,0,0,0,410.51,114.21Z"
      style="fill:#eb996e"></path>
    <path
      d="M389.44,115.62a7.72,7.72,0,0,1,1.5-1.05,7.61,7.61,0,0,1,1.77-.48,2.83,2.83,0,0,0-1.85.29A2.9,2.9,0,0,0,389.44,115.62Z"
      style="fill:#eb996e"></path>
    <path
      d="M406.46,130.12s.08-.14.06-.4a1.68,1.68,0,0,0-1.22-1.43c-.25,0-.41,0-.41,0s.15.06.36.14a1.89,1.89,0,0,1,.72.52,1.94,1.94,0,0,1,.41.79C406.43,130,406.43,130.12,406.46,130.12Z"
      style="fill:#eb996e"></path>
    <path
      d="M408.43,130.9s.14-.22.17-.63a2.51,2.51,0,0,0-.38-1.53,2.57,2.57,0,0,0-1.22-1,1.17,1.17,0,0,0-.64-.12s.23.08.58.25a2.69,2.69,0,0,1,1.52,2.4C408.47,130.65,408.4,130.89,408.43,130.9Z"
      style="fill:#eb996e"></path>
    <path
      d="M396.71,95.25a2.79,2.79,0,0,1,1.2-1.64,16.67,16.67,0,0,1,12.72-2.9A29.7,29.7,0,0,1,422.83,96c3.2,2.22,6.22,4.93,7.84,8.47a28.25,28.25,0,0,1,1.9,8c.92,6.75,2.73,13.52,2.67,20.33,0,2.65.45,7.12,0,10.39-.48,3.5-3.87,7.76-7.32,8.54l-7.75.77s4.2-14.48,3.87-19.7c-.28-4.57-.24-9.59-.76-14.14a2.42,2.42,0,0,0-.27-1,2.48,2.48,0,0,0-1.06-.82l-4.85-2.47a48.32,48.32,0,0,1-4.56-2.55,46.19,46.19,0,0,1-4.62-3.64l-6.29-5.37A18.82,18.82,0,0,1,398,99.06a6.25,6.25,0,0,1-1-4.92"
      style="fill:#e0e0e0"></path>
    <path
      d="M422.73,121.84a3.42,3.42,0,0,1,5-2.91c1.19.69,2.09,2.07,2,4.71-.29,7.06-7.32,5.31-7.32,5.11S422.59,124.76,422.73,121.84Z"
      style="fill:#ffcdb0"></path>
    <path
      d="M424.66,126.17s.12.09.33.19a1.22,1.22,0,0,0,.91.06,3,3,0,0,0,1.52-2.67,4,4,0,0,0-.27-1.78,1.41,1.41,0,0,0-.88-1,.62.62,0,0,0-.74.31c-.11.19-.07.33-.1.34s-.15-.12-.08-.41a.75.75,0,0,1,.29-.43.94.94,0,0,1,.69-.15,1.74,1.74,0,0,1,1.24,1.14,4.16,4.16,0,0,1,.34,2c-.1,1.42-.88,2.72-1.91,3a1.34,1.34,0,0,1-1.12-.23C424.67,126.34,424.64,126.18,424.66,126.17Z"
      style="fill:#eb996e"></path>
    <path
      d="M424.84,151.05c-.17,0-.12-1.12.2-3s.95-4.66,1.75-8a98.72,98.72,0,0,0,2.29-11.74,41.52,41.52,0,0,0,.23-6.92,22.4,22.4,0,0,0-1.41-7.07,10,10,0,0,0-1.8-2.92,12.91,12.91,0,0,0-2.66-2.18,38.85,38.85,0,0,0-6.17-3.12c-4.14-1.7-8.09-3-11.28-4.44s-5.67-3.31-6.73-5.1-1-3-.83-3,.45,1,1.65,2.4a15.76,15.76,0,0,0,6.61,4c3.18,1.22,7.12,2.28,11.47,3.92a38,38,0,0,1,6.65,3.2A15.35,15.35,0,0,1,428,109.6a12.64,12.64,0,0,1,2.29,3.67,24.09,24.09,0,0,1,1.55,7.94,39.07,39.07,0,0,1-.41,7.36,75.4,75.4,0,0,1-2.88,11.92c-1,3.3-1.93,5.94-2.54,7.76S425,151.09,424.84,151.05Z"
      style="fill:#fafafa"></path>
    <path
      d="M431.19,150a3.59,3.59,0,0,1,.17-.75c.12-.48.33-1.18.54-2.1a51.57,51.57,0,0,0,1.28-7.87,55.6,55.6,0,0,0-.29-11.8c-.28-2.21-.68-4.52-1.22-6.88a33.91,33.91,0,0,0-2.2-7.11,15.93,15.93,0,0,0-4.75-5.61,31.31,31.31,0,0,0-6-3.48c-4.06-1.82-7.91-3.09-10.92-4.67a23.07,23.07,0,0,1-6.53-4.65,10.34,10.34,0,0,1-.82-1,6,6,0,0,1-.55-.74,3.61,3.61,0,0,1-.4-.65c.05,0,.59.87,1.92,2.2A23.7,23.7,0,0,0,408,99.38c3,1.53,6.85,2.75,11,4.57a31.07,31.07,0,0,1,6.11,3.51,16.26,16.26,0,0,1,4.9,5.78,33.81,33.81,0,0,1,2.24,7.23,65.79,65.79,0,0,1,1.19,6.93,53.92,53.92,0,0,1,.19,11.89,45.74,45.74,0,0,1-1.46,7.89c-.23.92-.48,1.61-.63,2.08A4,4,0,0,1,431.19,150Z"
      style="fill:#fafafa"></path>
    <path
      d="M396.08,152.33a5.09,5.09,0,0,1-.68,0,12.45,12.45,0,0,1-1.95-.1,4.8,4.8,0,0,1-2.81-1.33,14.87,14.87,0,0,1-2.05-3.56,35.26,35.26,0,0,1-3.53-10,48.13,48.13,0,0,1-.54-6.28c-.08-2.17-.11-4.43,0-6.74.21-9.24,1.8-17.61,4.33-23.17a12,12,0,0,1,2.4-3.34,8.41,8.41,0,0,1,2.59-1.72,6.52,6.52,0,0,1,1.9-.5c.22,0,.39,0,.51,0s.17,0,.17,0a8.53,8.53,0,0,0-2.5.68A8.81,8.81,0,0,0,391.41,98a11.79,11.79,0,0,0-2.28,3.29c-2.4,5.5-3.94,13.84-4.14,23-.06,2.3,0,4.55,0,6.72a50.71,50.71,0,0,0,.5,6.21,36.1,36.1,0,0,0,3.39,9.95,15.36,15.36,0,0,0,1.93,3.52,4.66,4.66,0,0,0,2.63,1.33C395.13,152.34,396.08,152.26,396.08,152.33Z"
      style="fill:#fafafa"></path>
    <circle cx="425.67" cy="129.22" r="1.39" style="fill:#263238"></circle>
    <path d="M333.61,452.13l0,1.33s-22.54,8.74-22.83,13l44.55.31-.5-14.83C348.16,455,341.23,455.25,333.61,452.13Z"
      style="fill:#97BF26"></path>
    <g style="opacity:0.6000000000000001">
      <path
        d="M350.26,456.64a1.82,1.82,0,0,1,1.25,2.08,1.75,1.75,0,0,1-2.06,1.25,1.9,1.9,0,0,1-1.3-2.21,1.81,1.81,0,0,1,2.28-1.06"
        style="fill:#fff"></path>
    </g>
    <g style="opacity:0.6000000000000001">
      <path d="M355.31,466.76l-.12-3.57-42.66,1s-2,.85-1.77,2.25Z" style="fill:#fff"></path>
    </g>
    <path d="M333.43,453.58c0,.22,1.1.32,2.16,1s1.63,1.63,1.83,1.54-.11-1.34-1.42-2.18S333.39,453.38,333.43,453.58Z"
      style="fill:#263238"></path>
    <path d="M328.75,455.48c-.05.21.89.59,1.62,1.51s.94,1.9,1.16,1.9.36-1.24-.57-2.38S328.75,455.27,328.75,455.48Z"
      style="fill:#263238"></path>
    <path d="M326.06,461.06c.19,0,.5-1-.05-2.24s-1.56-1.67-1.66-1.49.54.82,1,1.81S325.84,461,326.06,461.06Z"
      style="fill:#263238"></path>
    <path
      d="M405.53,216l-16.28-7.42L378,209.71,372.69,216s0,1.86,1.14,1.57a7.24,7.24,0,0,0,2.43-1.43l.14,4.72s1.71,2,2.86,0l1.14,3.57s1.28,1.57,2.28,0l1.72,4.14a3.12,3.12,0,0,0,2-1.43,3.18,3.18,0,0,0,.28-2.14s5.57,1,7.86,1.71,13.56.43,13.56.43l5,1.43,2.3-11.73Z"
      style="fill:#ffcdb0"></path>
    <path
      d="M386.84,210.31a6.12,6.12,0,0,0-2,0c-.61.12-1.33.35-2.15.6s-1.7.51-2.6.85a15.11,15.11,0,0,0-2.45,1.16,1.34,1.34,0,0,0-.66.78c-.1.33-.17.69-.24,1-.27,1.25-.34,2-.41,2a4.85,4.85,0,0,1,.05-2.09,8,8,0,0,1,.19-1.06,1.74,1.74,0,0,1,.81-1.06,12.85,12.85,0,0,1,2.52-1.24c.93-.36,1.84-.61,2.66-.84a16.93,16.93,0,0,1,2.23-.49A2.66,2.66,0,0,1,386.84,210.31Z"
      style="fill:#eb996e"></path>
    <path
      d="M387.78,213.58a5.05,5.05,0,0,1-1.83.78c-1.17.37-2.85.64-4.6,1.15a3.17,3.17,0,0,0-1.12.48,4.69,4.69,0,0,0-.57,1,4.38,4.38,0,0,0-.52,2c0,.57.16,1.06.2,1.4s0,.54,0,.54-.09-.18-.19-.5a8.69,8.69,0,0,1-.37-1.42,4.46,4.46,0,0,1,.45-2.17,4.53,4.53,0,0,1,.65-1.18,3.34,3.34,0,0,1,1.33-.62c1.81-.53,3.48-.73,4.66-1A15.29,15.29,0,0,1,387.78,213.58Z"
      style="fill:#eb996e"></path>
    <path
      d="M382.82,224.7c-.05,0-.44-.37-.85-1.22a2.7,2.7,0,0,1-.19-1.67,2.2,2.2,0,0,1,1.45-1.5,5.29,5.29,0,0,1,2-.24l1.58.05a6.71,6.71,0,0,1,1.07.1c.28.07.37.25.33.26s-.13-.06-.36-.06-.6.05-1,.07l-1.58.06a5.65,5.65,0,0,0-1.81.25,1.75,1.75,0,0,0-1.16,1.13,2.41,2.41,0,0,0,.07,1.42C382.6,224.17,382.9,224.66,382.82,224.7Z"
      style="fill:#eb996e"></path>
  </g>
</svg>