<svg xmlns="http://www.w3.org/2000/svg" viewBox="0 0 750 500">
  <g id="freepik--background-simple--inject-797">
    <path
      d="M687.75,71.57c-25.48-32.25-66-53.41-107-51.27S500,50,487.56,89.16c-4.78,15.12-5.57,31.19-8.79,46.73s-9.52,31.41-22.29,40.83c-11.77,8.69-27.27,10.56-41.89,9.88s-29.13-3.59-43.76-3.25c-35.55.82-69.86,22.5-85.85,54.26s-13,72.23,7.51,101.28l3.55,5.37c38,59.64,107.34,75.25,150.68,74.15,43.95-1.11,93.07-8.83,133.76-25.5s74-48.16,100.33-83.33A215.63,215.63,0,0,0,723.33,187C724.45,145.93,713.23,103.81,687.75,71.57Z"
      style="fill:#ebebeb"></path>
  </g>
  <g id="freepik--Floor--inject-797">
    <path
      d="M710.77,463.91c0,.14-150.34.26-335.75.26s-335.79-.12-335.79-.26,150.31-.26,335.79-.26S710.77,463.77,710.77,463.91Z"
      style="fill:#263238"></path>
  </g>
  <g id="freepik--Screen--inject-797">
    <rect x="156.99" y="71.71" width="460.04" height="318.02" style="fill:#fafafa"></rect>
    <path
      d="M617,389.73c0-1.72-.08-124.55-.21-318l.21.21L157,72h0l.27-.26c0,113.6,0,221.5,0,318l-.24-.23,460,.23L157,390h-.23v-.24c0-96.52,0-204.42,0-318v-.26h.3l460,0h.21v.21C617.12,265.18,617,388,617,389.73Z"
      style="fill:#263238"></path>
    <rect x="156.99" y="71.71" width="460.04" height="18.45" style="fill:#263238"></rect>
    <path d="M170.12,80.59a2.84,2.84,0,1,1-2.83-2.84A2.83,2.83,0,0,1,170.12,80.59Z" style="fill:#fff"></path>
    <path d="M180.34,80.59a2.84,2.84,0,1,1-2.83-2.84A2.83,2.83,0,0,1,180.34,80.59Z" style="fill:#fff"></path>
    <path d="M190.56,80.59a2.83,2.83,0,1,1-2.83-2.84A2.83,2.83,0,0,1,190.56,80.59Z" style="fill:#fff"></path>
    <path
      d="M600.58,369.75c0-1.16-.06-38-.16-103.3l.16.15-424.7.11h0l.27-.26c0,35.38,0,69.95,0,103.3l-.26-.26,424.73.26L175.85,370h-.25v-.25c0-33.35,0-67.92,0-103.3v-.26h.29l424.7.1h.15v.16C600.63,331.78,600.58,368.6,600.58,369.75Z"
      style="fill:#e0e0e0"></path>
    <g id="surface1" transform="translate(133.91937 126.68869)">
      <path style=" stroke:none;fill-rule:nonzero;fill:rgb(3.921509%,12.156677%,38.426208%);fill-opacity:1;"
        d="M 428.527344 120.925781 L 428.527344 -0.675781 L 48.332031 -0.675781 L 48.332031 120.925781 L 428.527344 120.925781 " />
      <path style=" stroke:none;fill-rule:nonzero;fill:rgb(100%,100%,100%);fill-opacity:1;"
        d="M 395.789063 55.601563 C 393.242188 52.851563 389.792969 51.503906 385.34375 51.503906 C 380.847656 51.503906 377.347656 52.851563 374.898438 55.601563 C 372.550781 58.152344 371.402344 61.5 371.402344 65.699219 C 371.402344 69.84375 372.601563 73.242188 374.949219 75.792969 C 377.496094 78.542969 380.945313 79.890625 385.34375 79.890625 C 389.695313 79.890625 393.140625 78.542969 395.640625 75.792969 C 398.039063 73.242188 399.238281 69.894531 399.238281 65.699219 C 399.238281 61.546875 398.089844 58.152344 395.789063 55.601563 Z M 387.996094 72.042969 C 387.496094 73.492188 386.59375 74.195313 385.34375 74.195313 C 382.847656 74.195313 381.597656 71.34375 381.597656 65.699219 C 381.597656 59.898438 382.847656 57 385.34375 57 C 387.59375 57 388.742188 59.898438 388.742188 65.699219 C 388.742188 68.644531 388.492188 70.746094 387.996094 72.042969 " />
      <path style=" stroke:none;fill-rule:nonzero;fill:rgb(100%,100%,100%);fill-opacity:1;"
        d="M 368.253906 48.753906 L 368.253906 44.707031 L 358.105469 44.707031 L 358.105469 48.753906 L 368.253906 48.753906 " />
      <path style=" stroke:none;fill-rule:nonzero;fill:rgb(100%,100%,100%);fill-opacity:1;"
        d="M 368.253906 79.292969 L 368.253906 52.300781 L 358.105469 52.300781 L 358.105469 79.292969 L 368.253906 79.292969 " />
      <path style=" stroke:none;fill-rule:nonzero;fill:rgb(100%,100%,100%);fill-opacity:1;"
        d="M 343.863281 44.707031 L 343.863281 51.652344 C 337.015625 52.550781 331.96875 54.503906 328.617188 57.550781 C 325.71875 60.199219 324.320313 63.347656 324.421875 66.996094 C 324.46875 71.34375 326.019531 74.492188 328.96875 76.441406 C 331.917969 78.34375 336.664063 79.292969 343.113281 79.292969 L 354.058594 79.292969 L 354.058594 44.707031 Z M 337.664063 72.59375 C 335.816406 71.59375 334.914063 69.746094 334.914063 66.996094 C 334.914063 64.648438 335.765625 62.546875 337.515625 60.699219 C 339.3125 58.851563 341.414063 57.949219 343.863281 57.949219 L 343.863281 73.644531 C 341.011719 73.644531 338.964844 73.292969 337.664063 72.59375 " />
      <path style=" stroke:none;fill-rule:nonzero;fill:rgb(100%,100%,100%);fill-opacity:1;"
        d="M 233.257813 52.152344 L 222.761719 52.152344 L 222.761719 71.246094 C 222.761719 73.742188 223.910156 75.792969 226.257813 77.34375 C 228.808594 79.042969 232.308594 79.890625 236.703125 79.890625 C 240.601563 79.890625 243.800781 79.242188 246.25 77.992188 L 250.648438 79.292969 L 250.648438 52.152344 L 240.453125 52.152344 L 240.453125 69.84375 C 240.453125 72.34375 239.203125 73.59375 236.703125 73.59375 C 234.40625 73.59375 233.257813 72.34375 233.257813 69.84375 L 233.257813 52.152344 " />
      <path style=" stroke:none;fill-rule:nonzero;fill:rgb(100%,100%,100%);fill-opacity:1;"
        d="M 217.3125 52.453125 C 214.664063 51.800781 212.265625 51.503906 210.214844 51.503906 C 206.066406 51.503906 202.769531 52.253906 200.421875 53.703125 C 198.371094 54.953125 197.269531 56.550781 197.171875 58.5 C 197.121094 60.75 198.46875 62.648438 201.21875 64.246094 L 208.066406 67.597656 C 209.617188 68.496094 210.363281 69.496094 210.363281 70.644531 C 210.363281 72.996094 208.414063 74.195313 204.566406 74.195313 C 201.617188 74.195313 199.171875 73.84375 197.171875 73.144531 L 196.921875 78.742188 C 200.171875 79.492188 203.417969 79.890625 206.667969 79.890625 C 211.113281 79.890625 214.5625 79.09375 216.914063 77.542969 C 219.363281 75.992188 220.5625 73.792969 220.5625 70.84375 C 220.5625 68.894531 219.960938 67.296875 218.710938 66.046875 C 217.761719 65.097656 216.414063 64.246094 214.5625 63.496094 L 210.566406 61.949219 C 208.867188 61.148438 208.015625 60.199219 208.015625 59.101563 C 208.015625 57.75 209.566406 57.050781 212.664063 57.050781 L 217.5625 57.699219 L 217.3125 52.453125 " />
      <path style=" stroke:none;fill-rule:nonzero;fill:rgb(100%,100%,100%);fill-opacity:1;"
        d="M 193.320313 44.707031 L 182.828125 44.707031 L 182.828125 79.292969 L 193.320313 79.292969 L 193.320313 44.707031 " />
      <path style=" stroke:none;fill-rule:nonzero;fill:rgb(100%,100%,100%);fill-opacity:1;"
        d="M 176.777344 55.601563 C 174.230469 52.851563 170.78125 51.503906 166.332031 51.503906 C 161.835938 51.503906 158.335938 52.851563 155.886719 55.601563 C 153.539063 58.152344 152.390625 61.5 152.390625 65.699219 C 152.390625 69.84375 153.589844 73.242188 155.9375 75.792969 C 158.484375 78.542969 161.933594 79.890625 166.332031 79.890625 C 170.679688 79.890625 174.128906 78.542969 176.628906 75.792969 C 179.078125 73.195313 180.277344 69.84375 180.277344 65.699219 C 180.277344 61.546875 179.128906 58.199219 176.777344 55.601563 Z M 169.78125 65.699219 C 169.78125 68.644531 169.53125 70.796875 168.980469 72.042969 C 168.480469 73.492188 167.582031 74.195313 166.332031 74.195313 C 163.835938 74.195313 162.585938 71.34375 162.585938 65.699219 C 162.585938 59.898438 163.835938 57 166.332031 57 C 168.632813 57 169.78125 59.898438 169.78125 65.699219 " />
      <path style=" stroke:none;fill-rule:nonzero;fill:rgb(100%,100%,100%);fill-opacity:1;"
        d="M 311.074219 48.753906 L 321.269531 48.753906 L 321.269531 44.707031 L 311.074219 44.707031 L 311.074219 48.753906 " />
      <path style=" stroke:none;fill-rule:nonzero;fill:rgb(100%,100%,100%);fill-opacity:1;"
        d="M 321.269531 52.300781 L 311.074219 52.300781 L 311.074219 79.292969 L 321.269531 79.292969 L 321.269531 52.300781 " />
      <path style=" stroke:none;fill-rule:nonzero;fill:rgb(100%,100%,100%);fill-opacity:1;"
        d="M 298.078125 51.503906 C 293.933594 51.503906 290.632813 52.253906 288.285156 53.703125 C 286.234375 54.953125 285.136719 56.550781 285.035156 58.5 C 284.984375 60.75 286.335938 62.648438 289.085938 64.246094 L 295.929688 67.597656 C 297.480469 68.496094 298.230469 69.496094 298.230469 70.644531 C 298.230469 72.996094 296.28125 74.195313 292.433594 74.195313 C 289.484375 74.195313 287.035156 73.84375 285.035156 73.144531 L 284.785156 78.742188 C 288.035156 79.492188 291.28125 79.890625 294.53125 79.890625 C 298.980469 79.890625 302.429688 79.09375 304.777344 77.542969 C 307.226563 75.992188 308.425781 73.792969 308.425781 70.84375 C 308.425781 68.945313 307.828125 67.347656 306.578125 66.046875 C 305.675781 65.097656 304.277344 64.246094 302.429688 63.496094 L 298.429688 61.949219 C 296.730469 61.148438 295.882813 60.199219 295.882813 59.101563 C 295.882813 57.75 297.429688 57.050781 300.480469 57.050781 C 302.277344 57.050781 303.929688 57.25 305.425781 57.699219 L 305.128906 52.453125 C 302.480469 51.800781 300.128906 51.503906 298.078125 51.503906 " />
      <path style=" stroke:none;fill-rule:nonzero;fill:rgb(100%,100%,100%);fill-opacity:1;"
        d="M 263.992188 51.652344 L 263.992188 44.707031 L 253.796875 44.707031 L 253.796875 79.292969 L 264.742188 79.292969 C 271.191406 79.292969 275.890625 78.34375 278.839844 76.441406 C 281.785156 74.59375 283.335938 71.445313 283.4375 66.996094 C 283.484375 63.296875 282.085938 60.148438 279.238281 57.550781 C 275.890625 54.503906 270.839844 52.550781 263.992188 51.652344 Z M 263.992188 73.644531 L 263.992188 57.949219 C 266.441406 57.949219 268.492188 58.851563 270.242188 60.699219 C 272.039063 62.546875 272.941406 64.648438 272.941406 66.996094 C 272.941406 69.746094 272.039063 71.59375 270.191406 72.59375 C 268.890625 73.292969 266.84375 73.644531 263.992188 73.644531 " />
      <path style=" stroke:none;fill-rule:nonzero;fill:rgb(100%,98.826599%,0%);fill-opacity:1;"
        d="M 129.199219 26.964844 L 98.960938 26.964844 L 98.960938 57.199219 Z M 129.199219 26.964844 " />
      <path style=" stroke:none;fill-rule:nonzero;fill:rgb(100%,100%,100%);fill-opacity:1;"
        d="M 150.140625 50.601563 L 150.140625 44.207031 C 143.191406 44.40625 137.59375 46.054688 133.246094 49.203125 C 128.699219 52.453125 126.398438 56.652344 126.398438 61.898438 C 126.398438 67.648438 128.949219 72.09375 134.046875 75.34375 C 138.394531 78.140625 143.792969 79.640625 150.140625 79.84375 L 150.140625 73.195313 C 147.140625 72.746094 144.492188 71.746094 142.191406 70.296875 C 138.894531 68.148438 137.246094 65.347656 137.246094 61.898438 C 137.246094 58.648438 138.695313 56 141.644531 53.851563 C 144.042969 52.050781 146.890625 50.953125 150.140625 50.601563 " />
      <path style=" stroke:none;fill-rule:nonzero;fill:rgb(100%,98.826599%,0%);fill-opacity:1;"
        d="M 83.617188 41.757813 L 97.160156 41.757813 L 97.160156 28.210938 Z M 83.617188 41.757813 " />
      <path style=" stroke:none;fill-rule:nonzero;fill:rgb(100%,98.826599%,0%);fill-opacity:1;"
        d="M 97.160156 43.605469 L 82.316406 43.605469 L 82.316406 58.402344 L 97.160156 58.402344 L 97.160156 43.605469 " />
      <path style=" stroke:none;fill-rule:nonzero;fill:rgb(100%,98.826599%,0%);fill-opacity:1;"
        d="M 97.160156 60.199219 L 83.617188 60.199219 L 97.160156 73.742188 Z M 97.160156 60.199219 " />
      <path style=" stroke:none;fill-rule:nonzero;fill:rgb(100%,98.826599%,0%);fill-opacity:1;"
        d="M 82.316406 61.5 L 82.316406 75.59375 L 97.160156 90.4375 L 97.160156 76.34375 L 82.316406 61.5 " />
      <path style=" stroke:none;fill-rule:nonzero;fill:rgb(100%,98.826599%,0%);fill-opacity:1;"
        d="M 80.515625 73.84375 L 80.515625 44.855469 L 66.023438 59.351563 Z M 80.515625 73.84375 " />
      <path style=" stroke:none;fill-rule:nonzero;fill:rgb(100%,98.826599%,0%);fill-opacity:1;"
        d="M 129.199219 91.738281 L 98.960938 61.5 L 98.960938 91.738281 Z M 129.199219 91.738281 " />
    </g>
    <path
      d="M340.66,352.08,351.23,337a3.79,3.79,0,0,1,5.38-.85l5.56,4.2a3.79,3.79,0,0,0,5.56-1.13l16-27.78A3.78,3.78,0,0,1,390,311l10,12.7a3.79,3.79,0,0,0,6.17-.31l7.31-11.51A3.8,3.8,0,0,1,420,312l6,10.47a3.78,3.78,0,0,0,6.47.14l20.66-32.38a3.79,3.79,0,0,1,6.34-.07l34.14,51.06a3.78,3.78,0,0,0,6,.44l20.74-22.82a3.78,3.78,0,0,1,5.48-.13l16.5,16.55a3.79,3.79,0,0,0,6-.77l29.51-51.12a3.78,3.78,0,0,1,7.06,1.9v66.79Z"
      style="fill:#97BF26"></path>
    <path
      d="M584.23,360.43s0-.09,0-.29,0-.51,0-.9c0-.82,0-2.05,0-3.73l.06.07c-14.1.11-63.16.19-121.42.19s-107.34-.08-121.44-.19l.07-.07c0,1.68,0,2.91,0,3.73,0,.39,0,.69,0,.9a1.51,1.51,0,0,1,0,.29,1.51,1.51,0,0,1,0-.29c0-.21,0-.51,0-.9,0-.82,0-2.05,0-3.73v-.06h.07c14.1-.11,63.16-.2,121.44-.2s107.32.09,121.42.2h.07v.06c0,1.68,0,2.91,0,3.73,0,.39,0,.69,0,.9A.88.88,0,0,1,584.23,360.43Z"
      style="fill:#263238"></path>
    <path d="M368.36,360c-.15,0-.26-.46-.26-1s.11-1,.26-1,.26.47.26,1S368.5,360,368.36,360Z" style="fill:#263238">
    </path>
    <path d="M395.34,360c-.14,0-.26-.46-.26-1s.12-1,.26-1,.26.47.26,1S395.48,360,395.34,360Z" style="fill:#263238">
    </path>
    <path d="M422.33,360c-.15,0-.27-.46-.27-1s.12-1,.27-1,.26.47.26,1S422.47,360,422.33,360Z" style="fill:#263238">
    </path>
    <path d="M449.31,360c-.14,0-.26-.46-.26-1s.12-1,.26-1,.26.47.26,1S449.45,360,449.31,360Z" style="fill:#263238">
    </path>
    <path d="M476.29,360c-.14,0-.26-.46-.26-1s.12-1,.26-1,.26.47.26,1S476.44,360,476.29,360Z" style="fill:#263238">
    </path>
    <path d="M503.28,360c-.14,0-.26-.46-.26-1s.12-1,.26-1,.26.47.26,1S503.42,360,503.28,360Z" style="fill:#263238">
    </path>
    <path d="M530.26,360c-.14,0-.26-.46-.26-1s.12-1,.26-1,.26.47.26,1S530.41,360,530.26,360Z" style="fill:#263238">
    </path>
    <path d="M557.25,360c-.14,0-.26-.46-.26-1s.12-1,.26-1,.26.47.26,1S557.39,360,557.25,360Z" style="fill:#263238">
    </path>
    <path
      d="M204.12,346.1h0a2.79,2.79,0,0,1-2.78-2.78V291.17a2.78,2.78,0,0,1,2.78-2.78h0a2.77,2.77,0,0,1,2.78,2.78v52.15A2.78,2.78,0,0,1,204.12,346.1Z"
      style="fill:#e0e0e0"></path>
    <path
      d="M204.12,346.34h0a2.78,2.78,0,0,1-2.78-2.78V309.94a2.79,2.79,0,0,1,2.78-2.78h0a2.78,2.78,0,0,1,2.78,2.78v33.62A2.77,2.77,0,0,1,204.12,346.34Z"
      style="fill:#97BF26"></path>
    <path d="M202.37,348.52v4.63h-.47v-4.21h-1.1v-.42Z" style="fill:#263238"></path>
    <path
      d="M203.48,350.84c0-1.48.77-2.36,1.85-2.36s1.85.88,1.85,2.36-.78,2.35-1.85,2.35S203.48,352.31,203.48,350.84Zm3.21,0c0-1.24-.56-1.93-1.36-1.93s-1.37.69-1.37,1.93.56,1.92,1.37,1.92S206.69,352.07,206.69,350.84Z"
      style="fill:#263238"></path>
    <path
      d="M215.23,346.1h0a2.79,2.79,0,0,1-2.78-2.78V291.17a2.78,2.78,0,0,1,2.78-2.78h0a2.77,2.77,0,0,1,2.78,2.78v52.15A2.78,2.78,0,0,1,215.23,346.1Z"
      style="fill:#e0e0e0"></path>
    <path
      d="M215.23,346.34h0a2.78,2.78,0,0,1-2.78-2.78V299.35a2.79,2.79,0,0,1,2.78-2.78h0a2.78,2.78,0,0,1,2.78,2.78v44.21A2.77,2.77,0,0,1,215.23,346.34Z"
      style="fill:#97BF26"></path>
    <path
      d="M214.57,352.73v.42h-3.25v-.34l1.93-1.88c.52-.52.62-.83.62-1.15,0-.53-.38-.87-1.09-.87a1.57,1.57,0,0,0-1.26.52l-.34-.29a2.09,2.09,0,0,1,1.64-.66c.94,0,1.54.47,1.54,1.25a1.92,1.92,0,0,1-.76,1.45L212,352.73Z"
      style="fill:#263238"></path>
    <path
      d="M215.14,350.84c0-1.48.77-2.36,1.85-2.36s1.85.88,1.85,2.36-.78,2.35-1.85,2.35S215.14,352.31,215.14,350.84Zm3.21,0c0-1.24-.56-1.93-1.36-1.93s-1.37.69-1.37,1.93.56,1.92,1.37,1.92S218.35,352.07,218.35,350.84Z"
      style="fill:#263238"></path>
    <path
      d="M226.35,346.1h0a2.78,2.78,0,0,1-2.78-2.78V291.17a2.77,2.77,0,0,1,2.78-2.78h0a2.77,2.77,0,0,1,2.77,2.78v52.15A2.78,2.78,0,0,1,226.35,346.1Z"
      style="fill:#e0e0e0"></path>
    <path
      d="M226.35,346.34h0a2.77,2.77,0,0,1-2.78-2.78V317.88a2.78,2.78,0,0,1,2.78-2.78h0a2.78,2.78,0,0,1,2.77,2.78v25.68A2.77,2.77,0,0,1,226.35,346.34Z"
      style="fill:#97BF26"></path>
    <path
      d="M225.62,351.82c0,.78-.56,1.37-1.68,1.37a2.43,2.43,0,0,1-1.67-.59l.23-.38a2.05,2.05,0,0,0,1.44.54c.77,0,1.19-.36,1.19-.94s-.39-.92-1.25-.92h-.33v-.35l1.29-1.61h-2.38v-.42h3v.33l-1.31,1.65C225.13,350.56,225.62,351.08,225.62,351.82Z"
      style="fill:#263238"></path>
    <path
      d="M226.29,350.84c0-1.48.77-2.36,1.85-2.36s1.85.88,1.85,2.36-.78,2.35-1.85,2.35S226.29,352.31,226.29,350.84Zm3.21,0c0-1.24-.56-1.93-1.36-1.93s-1.37.69-1.37,1.93.56,1.92,1.37,1.92S229.5,352.07,229.5,350.84Z"
      style="fill:#263238"></path>
    <path
      d="M237.46,346.1h0a2.78,2.78,0,0,1-2.78-2.78V291.17a2.77,2.77,0,0,1,2.78-2.78h0a2.78,2.78,0,0,1,2.78,2.78v52.15A2.79,2.79,0,0,1,237.46,346.1Z"
      style="fill:#e0e0e0"></path>
    <path
      d="M237.46,346.34h0a2.77,2.77,0,0,1-2.78-2.78V299.35a2.78,2.78,0,0,1,2.78-2.78h0a2.79,2.79,0,0,1,2.78,2.78v44.21A2.78,2.78,0,0,1,237.46,346.34Z"
      style="fill:#97BF26"></path>
    <path d="M237.48,351.93h-.93v1.22h-.47v-1.22h-2.62v-.34l2.46-3.07h.53l-2.37,3h2v-1.07h.46v1.07h.93Z"
      style="fill:#263238"></path>
    <path
      d="M237.91,350.84c0-1.48.78-2.36,1.85-2.36s1.86.88,1.86,2.36-.79,2.35-1.86,2.35S237.91,352.31,237.91,350.84Zm3.22,0c0-1.24-.56-1.93-1.37-1.93s-1.36.69-1.36,1.93.55,1.92,1.36,1.92S241.13,352.07,241.13,350.84Z"
      style="fill:#263238"></path>
    <path
      d="M248.57,346.1h0a2.78,2.78,0,0,1-2.78-2.78V291.17a2.77,2.77,0,0,1,2.78-2.78h0a2.78,2.78,0,0,1,2.78,2.78v52.15A2.79,2.79,0,0,1,248.57,346.1Z"
      style="fill:#e0e0e0"></path>
    <path
      d="M248.57,346.34h0a2.77,2.77,0,0,1-2.78-2.78V307.83a2.77,2.77,0,0,1,2.78-2.78h0a2.78,2.78,0,0,1,2.78,2.78v35.73A2.78,2.78,0,0,1,248.57,346.34Z"
      style="fill:#97BF26"></path>
    <path
      d="M248.32,351.79c0,.79-.55,1.4-1.68,1.4a2.39,2.39,0,0,1-1.66-.59l.23-.38a2,2,0,0,0,1.42.54c.79,0,1.21-.39,1.21-.95s-.37-1-1.55-1h-1l.24-2.32h2.54v.42H246l-.16,1.48h.59C247.79,350.42,248.32,351,248.32,351.79Z"
      style="fill:#263238"></path>
    <path
      d="M248.92,350.84c0-1.48.78-2.36,1.85-2.36s1.85.88,1.85,2.36-.78,2.35-1.85,2.35S248.92,352.31,248.92,350.84Zm3.21,0c0-1.24-.55-1.93-1.36-1.93s-1.37.69-1.37,1.93.56,1.92,1.37,1.92S252.13,352.07,252.13,350.84Z"
      style="fill:#263238"></path>
    <path
      d="M259.68,346.1h0a2.78,2.78,0,0,1-2.78-2.78V291.17a2.77,2.77,0,0,1,2.78-2.78h0a2.78,2.78,0,0,1,2.78,2.78v52.15A2.79,2.79,0,0,1,259.68,346.1Z"
      style="fill:#e0e0e0"></path>
    <path
      d="M259.68,346.1h0a2.74,2.74,0,0,1-2.78-2.54V317.88a2.84,2.84,0,0,1,2.78-3h0a2.78,2.78,0,0,1,2.78,2.78v25.68A2.79,2.79,0,0,1,259.68,346.1Z"
      style="fill:#97BF26"></path>
    <path
      d="M259.32,351.77a1.45,1.45,0,0,1-1.59,1.42c-1.23,0-1.9-.85-1.9-2.32s.86-2.39,2.12-2.39a2.11,2.11,0,0,1,1.1.25l-.19.38a1.63,1.63,0,0,0-.9-.22c-1,0-1.64.65-1.64,1.91a2.56,2.56,0,0,0,0,.37,1.47,1.47,0,0,1,1.41-.79A1.41,1.41,0,0,1,259.32,351.77Zm-.48,0c0-.61-.45-1-1.16-1a1.07,1.07,0,0,0-1.19,1c0,.51.42,1,1.22,1A1,1,0,0,0,258.84,351.78Z"
      style="fill:#263238"></path>
    <path
      d="M259.86,350.84c0-1.48.78-2.36,1.85-2.36s1.85.88,1.85,2.36-.78,2.35-1.85,2.35S259.86,352.31,259.86,350.84Zm3.21,0c0-1.24-.55-1.93-1.36-1.93s-1.37.69-1.37,1.93.56,1.92,1.37,1.92S263.07,352.07,263.07,350.84Z"
      style="fill:#263238"></path>
    <path
      d="M270.79,346.1h0a2.79,2.79,0,0,1-2.78-2.78V291.17a2.78,2.78,0,0,1,2.78-2.78h0a2.77,2.77,0,0,1,2.78,2.78v52.15A2.78,2.78,0,0,1,270.79,346.1Z"
      style="fill:#e0e0e0"></path>
    <path
      d="M270.79,346.34h0a2.78,2.78,0,0,1-2.78-2.78V296.71a2.78,2.78,0,0,1,2.78-2.78h0a2.77,2.77,0,0,1,2.78,2.78v46.85A2.77,2.77,0,0,1,270.79,346.34Z"
      style="fill:#97BF26"></path>
    <path d="M270.2,348.52v.33l-1.94,4.3h-.52l1.91-4.21h-2.39v.87h-.47v-1.29Z" style="fill:#263238"></path>
    <path
      d="M270.69,350.84c0-1.48.78-2.36,1.85-2.36s1.85.88,1.85,2.36-.78,2.35-1.85,2.35S270.69,352.31,270.69,350.84Zm3.21,0c0-1.24-.55-1.93-1.36-1.93s-1.36.69-1.36,1.93.55,1.92,1.36,1.92S273.9,352.07,273.9,350.84Z"
      style="fill:#263238"></path>
    <path
      d="M281.9,346.1h0a2.79,2.79,0,0,1-2.78-2.78V291.17a2.78,2.78,0,0,1,2.78-2.78h0a2.77,2.77,0,0,1,2.78,2.78v52.15A2.78,2.78,0,0,1,281.9,346.1Z"
      style="fill:#e0e0e0"></path>
    <path
      d="M281.9,346.34h0a2.78,2.78,0,0,1-2.78-2.78V323.18a2.78,2.78,0,0,1,2.78-2.78h0a2.77,2.77,0,0,1,2.78,2.78v20.38A2.77,2.77,0,0,1,281.9,346.34Z"
      style="fill:#97BF26"></path>
    <path
      d="M281.35,351.86c0,.82-.7,1.33-1.8,1.33s-1.79-.51-1.79-1.33a1.16,1.16,0,0,1,.89-1.14,1,1,0,0,1-.72-1c0-.75.64-1.22,1.62-1.22s1.63.47,1.63,1.22a1,1,0,0,1-.74,1A1.17,1.17,0,0,1,281.35,351.86Zm-.49,0c0-.56-.49-.92-1.31-.92s-1.31.36-1.31.92.49.94,1.31.94S280.86,352.43,280.86,351.85Zm-1.31-1.3c.72,0,1.15-.32,1.15-.83s-.46-.84-1.15-.84-1.15.32-1.15.84S278.83,350.55,279.55,350.55Z"
      style="fill:#263238"></path>
    <path
      d="M282,350.84c0-1.48.77-2.36,1.85-2.36s1.85.88,1.85,2.36-.78,2.35-1.85,2.35S282,352.31,282,350.84Zm3.21,0c0-1.24-.56-1.93-1.36-1.93s-1.37.69-1.37,1.93.56,1.92,1.37,1.92S285.22,352.07,285.22,350.84Z"
      style="fill:#263238"></path>
    <path
      d="M293,346.1h0a2.79,2.79,0,0,1-2.78-2.78V291.17a2.78,2.78,0,0,1,2.78-2.78h0a2.77,2.77,0,0,1,2.78,2.78v52.15A2.78,2.78,0,0,1,293,346.1Z"
      style="fill:#e0e0e0"></path>
    <path
      d="M293,346.1h0a2.75,2.75,0,0,1-2.78-2.54v-7.15a2.84,2.84,0,0,1,2.78-3h0a2.77,2.77,0,0,1,2.78,2.78v7.15A2.78,2.78,0,0,1,293,346.1Z"
      style="fill:#97BF26"></path>
    <path
      d="M292.18,350.8c0,1.57-.86,2.39-2.12,2.39a2.11,2.11,0,0,1-1.1-.25l.19-.38a1.62,1.62,0,0,0,.9.21c1,0,1.64-.64,1.64-1.9a2.56,2.56,0,0,0,0-.37,1.47,1.47,0,0,1-1.41.79,1.41,1.41,0,0,1-1.57-1.39,1.45,1.45,0,0,1,1.59-1.42C291.51,348.48,292.18,349.33,292.18,350.8Zm-.66-.93c0-.51-.42-1-1.22-1a1,1,0,0,0-1.14,1c0,.61.45,1,1.17,1A1.07,1.07,0,0,0,291.52,349.87Z"
      style="fill:#263238"></path>
    <path
      d="M292.86,350.84c0-1.48.78-2.36,1.85-2.36s1.85.88,1.85,2.36-.78,2.35-1.85,2.35S292.86,352.31,292.86,350.84Zm3.21,0c0-1.24-.55-1.93-1.36-1.93s-1.36.69-1.36,1.93.55,1.92,1.36,1.92S296.07,352.07,296.07,350.84Z"
      style="fill:#263238"></path>
    <path
      d="M304.12,346.1h0a2.78,2.78,0,0,1-2.77-2.78V291.17a2.77,2.77,0,0,1,2.77-2.78h0a2.77,2.77,0,0,1,2.78,2.78v52.15A2.78,2.78,0,0,1,304.12,346.1Z"
      style="fill:#e0e0e0"></path>
    <path
      d="M304.12,346.1h0a2.74,2.74,0,0,1-2.77-2.54V317.88a2.83,2.83,0,0,1,2.77-3h0a2.77,2.77,0,0,1,2.78,2.78v25.68A2.78,2.78,0,0,1,304.12,346.1Z"
      style="fill:#97BF26"></path>
    <path d="M300.14,348.52v4.63h-.47v-4.21h-1.1v-.42Z" style="fill:#263238"></path>
    <path
      d="M301.25,350.84c0-1.48.77-2.36,1.84-2.36s1.86.88,1.86,2.36-.78,2.35-1.86,2.35S301.25,352.31,301.25,350.84Zm3.21,0c0-1.24-.56-1.93-1.37-1.93s-1.36.69-1.36,1.93.56,1.92,1.36,1.92S304.46,352.07,304.46,350.84Z"
      style="fill:#263238"></path>
    <path
      d="M305.63,350.84c0-1.48.77-2.36,1.84-2.36s1.86.88,1.86,2.36-.78,2.35-1.86,2.35S305.63,352.31,305.63,350.84Zm3.21,0c0-1.24-.56-1.93-1.37-1.93s-1.36.69-1.36,1.93.56,1.92,1.36,1.92S308.84,352.07,308.84,350.84Z"
      style="fill:#263238"></path>
    <path d="M327.15,357c-.14,0-.26-17.16-.26-38.32s.12-38.34.26-38.34.26,17.16.26,38.34S327.29,357,327.15,357Z"
      style="fill:#e0e0e0"></path>
    <path
      d="M391.81,285.33c0,.15-10.58.26-23.63.26s-23.63-.11-23.63-.26,10.58-.26,23.63-.26S391.81,285.19,391.81,285.33Z"
      style="fill:#263238"></path>
    <g style="opacity:0.5">
      <path
        d="M340.66,352.08,351.23,337a3.79,3.79,0,0,1,5.38-.85l5.56,4.2a3.79,3.79,0,0,0,5.56-1.13l16-27.78A3.78,3.78,0,0,1,390,311l10,12.7a3.79,3.79,0,0,0,6.17-.31l7.31-11.51A3.8,3.8,0,0,1,420,312l6,10.47a3.78,3.78,0,0,0,6.47.14l20.66-32.38a3.79,3.79,0,0,1,6.34-.07l34.14,51.06a3.78,3.78,0,0,0,6,.44l20.74-22.82a3.78,3.78,0,0,1,5.48-.13l16.5,16.55a3.79,3.79,0,0,0,6-.77l29.51-51.12a3.78,3.78,0,0,1,7.06,1.9v66.79Z"
        style="fill:#fff"></path>
    </g>
  </g>
  <g id="freepik--Character--inject-797">
    <path d="M509.78,435.54l.5,18.18s18.65,5.59,19.07,8.94l-35.21,2.25-1.95-28.29Z" style="fill:#97BF26"></path>
    <path
      d="M499.3,452.89a1.44,1.44,0,0,0-.89,1.7,1.38,1.38,0,0,0,1.68.9,1.52,1.52,0,0,0,.93-1.81,1.44,1.44,0,0,0-1.85-.74"
      style="fill:#e0e0e0"></path>
    <g style="opacity:0.6000000000000001">
      <path d="M494.14,464.91l-.09-2.86,33.8-1.09s1.61.59,1.5,1.7Z" style="fill:#fff"></path>
    </g>
    <path d="M510.84,453.51c0,.17-.85.3-1.66.91s-1.21,1.36-1.38,1.3,0-1.07,1-1.79S510.87,453.35,510.84,453.51Z"
      style="fill:#263238"></path>
    <path d="M514.63,454.8c0,.16-.67.5-1.21,1.27s-.66,1.54-.83,1.54-.34-1,.34-1.9S514.62,454.63,514.63,454.8Z"
      style="fill:#263238"></path>
    <path d="M517,459.08c-.15.05-.45-.79-.07-1.76s1.17-1.4,1.25-1.26-.39.67-.69,1.47S517.18,459.06,517,459.08Z"
      style="fill:#263238"></path>
    <path d="M510.27,449.38c-.07.16-.87,0-1.84.1s-1.7.48-1.8.34.59-.8,1.73-.94S510.34,449.23,510.27,449.38Z"
      style="fill:#263238"></path>
    <path
      d="M510.1,445.71a3.35,3.35,0,0,1-1.77.1,7.79,7.79,0,0,1-1.88-.45,7.92,7.92,0,0,1-1.05-.47,2.28,2.28,0,0,1-.55-.38.75.75,0,0,1-.14-.91.93.93,0,0,1,.73-.44,2.27,2.27,0,0,1,.66,0,6.11,6.11,0,0,1,1.12.31,6,6,0,0,1,1.7,1c.86.7,1.18,1.33,1.13,1.36s-.51-.45-1.38-1A7.28,7.28,0,0,0,507,444a6.46,6.46,0,0,0-1-.25c-.38-.08-.7-.06-.78.11s0,.1,0,.2a1.91,1.91,0,0,0,.41.28,9.4,9.4,0,0,0,1,.47,9,9,0,0,0,1.75.54A13.15,13.15,0,0,1,510.1,445.71Z"
      style="fill:#263238"></path>
    <path
      d="M509.89,446a2.81,2.81,0,0,1-.58-1.67,5.82,5.82,0,0,1,.12-1.95,6.25,6.25,0,0,1,.38-1.1,1.48,1.48,0,0,1,1.07-1,.83.83,0,0,1,.77.44,2.44,2.44,0,0,1,.22.64,4,4,0,0,1,.08,1.19,4.14,4.14,0,0,1-.64,1.87c-.63.95-1.33,1.2-1.35,1.15s.51-.46,1-1.37a3.84,3.84,0,0,0,.36-2.71c-.08-.37-.24-.66-.38-.61s-.45.31-.58.61a5.69,5.69,0,0,0-.37,1,6.26,6.26,0,0,0-.23,1.78C509.76,445.31,510,445.94,509.89,446Z"
      style="fill:#263238"></path>
    <path
      d="M435.26,434.75l-2.12,23.35-7,18a2.41,2.41,0,0,0,1.53,3.17h0a2.39,2.39,0,0,0,2.16-.38c3.95-3,18.4-14.13,18.46-15.85.07-2,3.87-24.49,3.87-24.49Z"
      style="fill:#97BF26"></path>
    <g style="opacity:0.6000000000000001">
      <path
        d="M427.66,479.26l20.8-17.8-.11,1a3.63,3.63,0,0,1-1.12,2.23c-1.68,1.57-6.4,5.8-17.34,14.21a2.38,2.38,0,0,1-2.23.37Z"
        style="fill:#fff"></path>
    </g>
    <g style="opacity:0.6000000000000001">
      <path
        d="M444.53,453.4a1.47,1.47,0,0,0-.61,1.84,1.4,1.4,0,0,0,1.82.62,1.53,1.53,0,0,0,.64-1.95,1.44,1.44,0,0,0-2-.44"
        style="fill:#fff"></path>
    </g>
    <path
      d="M434.14,469.68c-.14.05-.52-1.23-1.84-2a7.46,7.46,0,0,0-2.62-.82c0-.06.3-.21.86-.22a3.71,3.71,0,0,1,2,.61,3.81,3.81,0,0,1,1.41,1.6C434.2,469.32,434.2,469.67,434.14,469.68Z"
      style="fill:#263238"></path>
    <path
      d="M432.13,472.62c-.13.08-.79-.76-1.95-1.24a16.76,16.76,0,0,0-2.25-.55,2.66,2.66,0,0,1,2.45.07C431.7,471.46,432.25,472.57,432.13,472.62Z"
      style="fill:#263238"></path>
    <path d="M437.69,466a25.48,25.48,0,0,0-2.88-2.12,23.43,23.43,0,0,0-3.37-1.19,6.56,6.56,0,0,1,6.25,3.31Z"
      style="fill:#263238"></path>
    <path d="M438.92,459c-.07.13-1.3-.55-3-.8s-3,0-3.07-.15a6,6,0,0,1,6,.95Z" style="fill:#263238"></path>
    <path
      d="M439.72,452.15a11.82,11.82,0,0,0-3.07-.92,11.7,11.7,0,0,0-3.18.43c0-.06.26-.32.83-.57a5.25,5.25,0,0,1,4.69.37C439.52,451.8,439.76,452.1,439.72,452.15Z"
      style="fill:#263238"></path>
    <path
      d="M436.84,449.94a2,2,0,0,1,.07-.89,6,6,0,0,1,1-2.23,2.75,2.75,0,0,1,1.31-1.16,1,1,0,0,1,1.06.34,1.58,1.58,0,0,1,.25,1.09,3.39,3.39,0,0,1-3.31,2.78,3.93,3.93,0,0,1-3.62-2.48,1.39,1.39,0,0,1,.07-1.14.94.94,0,0,1,1-.38,3.33,3.33,0,0,1,1.44,1,7,7,0,0,1,1.39,2,2.08,2.08,0,0,1,.26.85,10.23,10.23,0,0,0-1.9-2.58,3.23,3.23,0,0,0-1.28-.82.52.52,0,0,0-.57.21,1,1,0,0,0,0,.75,3.51,3.51,0,0,0,3.16,2.12A3,3,0,0,0,440,447a1.22,1.22,0,0,0-.14-.78.55.55,0,0,0-.59-.19,2.44,2.44,0,0,0-1.12,1A8.9,8.9,0,0,0,436.84,449.94Z"
      style="fill:#263238"></path>
    <polygon
      points="429.94 267.87 428.55 450.01 454.17 451.65 459.56 299.5 490.26 450.79 513.54 448.34 488.77 267.84 429.94 267.87"
      style="fill:#263238"></polygon>
    <path
      d="M461.08,120a15.51,15.51,0,0,0-16.7,14.53c-.43,7.21-.83,15-.78,18.94.1,8.43,8.54,9.74,8.54,9.74s-.21,2.5-.44,5.6a11.11,11.11,0,0,0,10.56,11.93h0a11.11,11.11,0,0,0,11.6-10.6l1.53-34A15.52,15.52,0,0,0,461.08,120Z"
      style="fill:#b78876"></path>
    <path d="M452.12,163.08a19.65,19.65,0,0,0,11-3.13s-2.6,6.07-11,5.31Z" style="fill:#aa6550"></path>
    <path d="M474.61,139.06c.15-.06,5.8-1.71,5.61,4.05s-5.93,4.39-5.94,4.23S474.61,139.06,474.61,139.06Z"
      style="fill:#b78876"></path>
    <path
      d="M476.11,145.21s.1.07.27.16a1,1,0,0,0,.75,0,2.49,2.49,0,0,0,1.22-2.2,3.36,3.36,0,0,0-.23-1.44,1.2,1.2,0,0,0-.73-.8.52.52,0,0,0-.61.26c-.08.16,0,.27-.08.28s-.12-.1-.06-.34a.62.62,0,0,1,.24-.35.74.74,0,0,1,.56-.13,1.43,1.43,0,0,1,1,.93,3.4,3.4,0,0,1,.29,1.62,2.6,2.6,0,0,1-1.54,2.44,1.11,1.11,0,0,1-.92-.18C476.12,145.35,476.09,145.22,476.11,145.21Z"
      style="fill:#aa6550"></path>
    <path
      d="M446.52,139.88a1.21,1.21,0,0,0,1.16,1.22,1.15,1.15,0,0,0,1.24-1.09,1.19,1.19,0,0,0-1.16-1.21A1.15,1.15,0,0,0,446.52,139.88Z"
      style="fill:#263238"></path>
    <path
      d="M446.55,137.53c.15.15,1.06-.52,2.36-.52s2.25.65,2.39.49-.09-.35-.5-.65a3.33,3.33,0,0,0-1.91-.59,3.11,3.11,0,0,0-1.88.61C446.61,137.17,446.48,137.46,446.55,137.53Z"
      style="fill:#263238"></path>
    <path
      d="M459.26,139.88a1.2,1.2,0,0,0,1.16,1.22,1.15,1.15,0,0,0,1.24-1.09,1.2,1.2,0,0,0-1.16-1.21A1.15,1.15,0,0,0,459.26,139.88Z"
      style="fill:#263238"></path>
    <path
      d="M459.29,137.77c.15.15,1.06-.52,2.36-.52s2.24.65,2.38.5-.08-.36-.49-.66a3.36,3.36,0,0,0-1.91-.59,3.18,3.18,0,0,0-1.88.61C459.35,137.41,459.22,137.7,459.29,137.77Z"
      style="fill:#263238"></path>
    <path
      d="M454.59,147.38a8,8,0,0,0-2.11-.38c-.33,0-.64-.1-.7-.33a1.76,1.76,0,0,1,.22-1l1-2.52a44.26,44.26,0,0,0,2.2-6.59,43.22,43.22,0,0,0-2.72,6.4l-.94,2.53a1.89,1.89,0,0,0-.17,1.3.84.84,0,0,0,.54.49,2.44,2.44,0,0,0,.56.07A9,9,0,0,0,454.59,147.38Z"
      style="fill:#263238"></path>
    <path
      d="M458.4,148.27c-.21,0-.21,1.4-1.42,2.4s-2.7.84-2.71,1,.34.27,1,.29a3.5,3.5,0,0,0,2.26-.79,3.06,3.06,0,0,0,1.1-2C458.65,148.61,458.5,148.26,458.4,148.27Z"
      style="fill:#263238"></path>
    <path
      d="M459,132.69c.12.35,1.42.18,2.94.37s2.75.6,3,.28c.09-.15-.13-.48-.62-.82a4.93,4.93,0,0,0-2.19-.77,5,5,0,0,0-2.3.27C459.18,132.25,458.9,132.52,459,132.69Z"
      style="fill:#263238"></path>
    <path
      d="M447,133.78c.23.29,1.12,0,2.19,0s2,.2,2.19-.11c.1-.15-.05-.44-.44-.72a3,3,0,0,0-1.79-.48,3.06,3.06,0,0,0-1.75.59C447.05,133.33,446.93,133.63,447,133.78Z"
      style="fill:#263238"></path>
    <path
      d="M475.27,138.8a9.46,9.46,0,0,1-.14,2.76,3,3,0,0,1-1.47,2.11c-1.45.72-3.27-.39-3.92-1.87a9.67,9.67,0,0,1-.32-4.79,23.16,23.16,0,0,0-.1-6.6,9.47,9.47,0,0,0-3.16-5.65,6,6,0,0,0-6.21-.9,33.38,33.38,0,0,0-3.28,2.42,5.08,5.08,0,0,1-3.49.88,3.27,3.27,0,0,1-2.67-2.23,3.54,3.54,0,0,1,1.36-3.53,8.1,8.1,0,0,1,3.68-1.48,19.78,19.78,0,0,1,10.94.85,14.27,14.27,0,0,1,7.94,7.39c1.68,3.94,1.46,6.35,1,10.64"
      style="fill:#263238"></path>
    <path
      d="M357.84,183l12.29,2.48L387,196.2l-5.76,11s-5.95-1.66-7.68-3.2a7,7,0,0,0-3.66-1.7s.11,2.71-1.94,2.24-5.5-1.05-4.91-4a2.23,2.23,0,0,1-1.45-2.44s-1.7-.13-1.24-2.94,2.49-6.45,8.1-5.42c.29.06.68-.5.17-.69L360,187S354.57,184.89,357.84,183Z"
      style="fill:#b78876"></path>
    <path
      d="M363.91,195.06a8.75,8.75,0,0,1,2.06.5,18.6,18.6,0,0,1,2.2.75,1.85,1.85,0,0,1,1,1.14,1.53,1.53,0,0,1-.59,1.54,3.64,3.64,0,0,1-2.9.38,19.08,19.08,0,0,1-2.27-.47,6.18,6.18,0,0,1-2-.79,16.38,16.38,0,0,1,2.06.43c.63.13,1.39.25,2.24.35a7.17,7.17,0,0,0,1.3.09,2.11,2.11,0,0,0,1.21-.4,1,1,0,0,0,.42-1,1.4,1.4,0,0,0-.73-.84c-.71-.36-1.5-.58-2.09-.82A9.35,9.35,0,0,1,363.91,195.06Z"
      style="fill:#aa6550"></path>
    <path d="M366.91,193.47c0,.15-.75.17-1.47.63s-1.07,1.1-1.21,1.05,0-.93.93-1.49S367,193.33,366.91,193.47Z"
      style="fill:#aa6550"></path>
    <path
      d="M368.21,198.86s.13,0,.28.16.22.53.27.84a1.62,1.62,0,0,1-.36,1.31,1.68,1.68,0,0,1-1.59.47,18.79,18.79,0,0,1-2.7-.54c-.68-.22-1.05-.46-1-.53s.44.05,1.11.17,1.63.23,2.67.38a1.24,1.24,0,0,0,1.17-.27,1.35,1.35,0,0,0,.35-1c0-.38,0-.6-.07-.75S368.18,198.88,368.21,198.86Z"
      style="fill:#aa6550"></path>
    <path
      d="M368.11,201.12c0-.06.23-.17.6-.07a2.28,2.28,0,0,1,1.1.88,1.6,1.6,0,0,1,.13,1.45c-.12.34-.27.5-.33.48s-.05-.24,0-.56a1.72,1.72,0,0,0-.19-1.07,3.29,3.29,0,0,0-.83-.84C368.32,201.23,368.11,201.2,368.11,201.12Z"
      style="fill:#aa6550"></path>
    <path d="M377.56,194.76l-5.93-.25-6.23,1.22s-.52,1.13,2.37,1.9a14,14,0,0,0,5.55.27s2.57,3.74,5.91,4.61"
      style="fill:#b78876"></path>
    <path
      d="M379.23,202.51a1.79,1.79,0,0,1-.55-.1,7.14,7.14,0,0,1-1.44-.62,13.51,13.51,0,0,1-4.11-3.77l.23.1a13.07,13.07,0,0,1-6.83-.64,3.52,3.52,0,0,1-1-.62,1.18,1.18,0,0,1-.39-1.24l0-.12.15,0,6.24-1.17h.05c1.8.1,3.28.19,4.31.27a8.07,8.07,0,0,1,1.61.19,8.23,8.23,0,0,1-1.62.05c-1,0-2.52,0-4.32-.09h.05L365.44,196l.19-.15a.72.72,0,0,0,.28.65,2.72,2.72,0,0,0,.84.52,13,13,0,0,0,6.53.67l.15,0,.08.12a14.56,14.56,0,0,0,3.87,3.79C378.49,202.27,379.26,202.44,379.23,202.51Z"
      style="fill:#aa6550"></path>
    <path d="M370.32,191.28c-.08.12-.65-.14-1.08-.75s-.49-1.23-.35-1.27.4.44.78,1S370.41,191.16,370.32,191.28Z"
      style="fill:#aa6550"></path>
    <path d="M435.47,269.28c10.21,4.41,22.15,5.72,35.63,4.29L481,173l-7-5.37-16.14,12-5.52-11.56-12.95,18.61Z"
      style="fill:#f5f5f5"></path>
    <path
      d="M452.42,274.12s0-.07-.06-.23-.07-.43-.11-.71c-.09-.67-.22-1.59-.38-2.75s-.18-2.66-.29-4.36-.08-3.65-.13-5.8c-.06-8.58.52-20.43,1.47-33.49s2.14-24.86,3.1-33.39c.47-4.26.9-7.7,1.23-10.08.16-1.19.31-2.11.41-2.73,0-.29.09-.52.12-.71l.06-.24a.78.78,0,0,1,0,.25c0,.19,0,.42-.08.71-.07.67-.18,1.59-.31,2.74-.26,2.43-.62,5.87-1.07,10.1-.85,8.54-2,20.33-2.94,33.39s-1.58,24.88-1.62,33.45c0,2.15,0,4.09.05,5.79s.15,3.15.2,4.36.21,2.07.28,2.74l.06.72A1.08,1.08,0,0,1,452.42,274.12Z"
      style="fill:#263238"></path>
    <path
      d="M466,288.94s-7.52-78.61-2.86-87.39c3.61-6.8,9.2-21,11.54-27.06a7.32,7.32,0,0,0-.15-5.61l-.55-1.24,7,5.37,14.37,7.73-8.68,66.59,9.83,33.79Z"
      style="fill:#97BF26"></path>
    <g style="opacity:0.30000000000000004">
      <path
        d="M464.06,266.18c6.11-1.28,3.47,2.27,9.65,1.37,3.34-.48,3.51-2.44,6.26-4.39a18.92,18.92,0,0,1,10.28-3.52l-1.37-4.71-25.56.95Z">
      </path>
    </g>
    <path
      d="M428.84,184.54l2.49,62.79-5,35.15,12.59,4.66L444.39,190a26.18,26.18,0,0,1,2.37-10.45l4.94-10.76L435,174.49Z"
      style="fill:#97BF26"></path>
    <path
      d="M495.35,180.74s7.88,6.82,9.66,16c1.29,6.69,5.1,30.15,6.16,42.2a14.21,14.21,0,0,1-12,15.34l-.34,0c-11.43,1.56-30.62-.6-30.62-.6l3.34-14.6s17-2.45,20-4.5l-4.05-27.09S490.82,181.52,495.35,180.74Z"
      style="fill:#97BF26"></path>
    <path
      d="M388.15,194.09,416,211.7s10-29.41,16.44-36.33l7.75-2.63-7.07,56.44a11.46,11.46,0,0,1-5.1,7.76h0a11.49,11.49,0,0,1-13.44-.73l-34-27.59Z"
      style="fill:#97BF26"></path>
    <path
      d="M496.61,243.78a13.12,13.12,0,0,1-.16-1.64,10.08,10.08,0,0,0-3.77-6.6,12.62,12.62,0,0,1-1.33-1,3.44,3.44,0,0,1,1.54.68,8.77,8.77,0,0,1,3.92,6.87A3.35,3.35,0,0,1,496.61,243.78Z"
      style="fill:#263238"></path>
    <path
      d="M493.63,245.71a21.15,21.15,0,0,0-.07-5.91,21.84,21.84,0,0,0-2.18-5.48,4.38,4.38,0,0,1,1.12,1.38,12.16,12.16,0,0,1,1.65,8.3A4.36,4.36,0,0,1,493.63,245.71Z"
      style="fill:#263238"></path>
    <path
      d="M493.41,183.49a22.32,22.32,0,0,0-3,3,19.39,19.39,0,0,0-3.71,9.48,39.85,39.85,0,0,0,.37,10.33c.18,1.23.34,2.27.47,3.12a5.48,5.48,0,0,1,.12,1.16,4.87,4.87,0,0,1-.32-1.12c-.17-.73-.4-1.79-.64-3.11a35.84,35.84,0,0,1-.52-10.45,18.67,18.67,0,0,1,3.94-9.64,12.28,12.28,0,0,1,2.32-2.19A4.08,4.08,0,0,1,493.41,183.49Z"
      style="fill:#263238"></path>
    <g style="opacity:0.30000000000000004">
      <path
        d="M491.75,234.39a9.21,9.21,0,0,1,2,5.6,17.32,17.32,0,0,1-1,6,1.3,1.3,0,0,0,0,1.09.88.88,0,0,0,1.26.05,2.54,2.54,0,0,0,.63-1.28c-.24.27.11.73.47.71a1.19,1.19,0,0,0,.83-.63,6.56,6.56,0,0,0,.23-5.95,17,17,0,0,0-3.6-5">
      </path>
    </g>
    <path d="M421.62,222.71A30.58,30.58,0,0,1,416,211.63c.14,0,1.16,2.54,2.72,5.6S421.75,222.62,421.62,222.71Z"
      style="fill:#263238"></path>
    <path
      d="M417.72,224.83A7.25,7.25,0,0,1,417,223a49.77,49.77,0,0,1-1.74-9.49,7.15,7.15,0,0,1,0-2c.15,0,.49,3,1.17,6.7S417.87,224.79,417.72,224.83Z"
      style="fill:#263238"></path>
    <path
      d="M431.33,192.44c.15,0,.26,12.29.26,27.44s-.11,27.45-.26,27.45-.26-12.28-.26-27.45S431.19,192.44,431.33,192.44Z"
      style="fill:#263238"></path>
    <path
      d="M448.26,170a2.6,2.6,0,0,1-.33.48l-1,1.36c-.84,1.2-2.06,2.94-3.36,5.23a31.74,31.74,0,0,0-3.56,8.47c-.31,1.68-.51,3.55-.79,5.45-.83,2,1.14,3.3,2.74,4.38l.4.27-.45.19a9,9,0,0,0-1.62,1c-.72.56-1.41,1.15-2,1.72l.08-.2c.31,4,1,7.72,1.45,11.12s.9,6.43,1.26,9,.61,4.54.81,6c.08.67.14,1.21.19,1.63a3.55,3.55,0,0,1,0,.58,2.08,2.08,0,0,1-.14-.56c-.07-.42-.16-1-.28-1.62-.24-1.47-.56-3.5-1-6s-.86-5.6-1.38-9-1.18-7.12-1.51-11.16v-.12l.1-.09c.63-.58,1.32-1.18,2.06-1.75a8.7,8.7,0,0,1,1.76-1.11l-.05.46a11,11,0,0,1-2.39-1.95,2.91,2.91,0,0,1-.73-1.44,2.06,2.06,0,0,1,0-.43l.06-.36.1-.71c.29-1.9.49-3.71.83-5.48a23.18,23.18,0,0,1,1.68-4.72,38.55,38.55,0,0,1,2-3.83,50.78,50.78,0,0,1,3.52-5.16c.45-.58.81-1,1.07-1.31A2.83,2.83,0,0,1,448.26,170Z"
      style="fill:#263238"></path>
    <path
      d="M479.08,171.81a1.94,1.94,0,0,1,.13.42,8.53,8.53,0,0,1,.25,1.24,18.21,18.21,0,0,1,0,4.64,44.53,44.53,0,0,1-1.5,6.71,55,55,0,0,1-2.86,7.92c-1.09,2.45-2.25,4.74-3.31,6.85l-.06.1-.11,0-2.41.48.12-.37,1.56,1.84.1.12-.08.13-3.49,5.61-1,1.53a3,3,0,0,1-.38.52,2.19,2.19,0,0,1,.27-.58c.25-.43.54-1,.9-1.6.85-1.44,2-3.38,3.34-5.7l0,.25L469,200.12l-.25-.29.38-.08,2.41-.51-.17.13c1.05-2.11,2.19-4.4,3.28-6.84a60,60,0,0,0,2.87-7.84,48.38,48.38,0,0,0,1.59-6.63,19.77,19.77,0,0,0,.18-4.57C479.17,172.41,479,171.82,479.08,171.81Z"
      style="fill:#263238"></path>
    <g style="opacity:0.30000000000000004">
      <path
        d="M420.42,222.25c-1.24-3.54-2.95-7.11-4.47-10.55l-1.26-.8a15.16,15.16,0,0,0,.47,9.72,1,1,0,0,0,.52.69c.37.13.77-.22.85-.6a2.15,2.15,0,0,0-.21-1.14,29.49,29.49,0,0,0,2.8,4.14,1.17,1.17,0,0,0,.6.48.83.83,0,0,0,.89-.7A2.32,2.32,0,0,0,420.42,222.25Z">
      </path>
    </g>
    <g style="opacity:0.30000000000000004">
      <path
        d="M441.43,225.25c-2.4-6.79-4.81-13.63-5.76-20.77a12.14,12.14,0,0,1,.06-4.73,4.88,4.88,0,0,1,3-3.48,2.66,2.66,0,0,1-.05-3.43c1,1,2,2.07,2.93,3.11a3.63,3.63,0,0,0-3.23,2.74,10.59,10.59,0,0,0,0,4.52q1.49,11.14,3,22.29">
      </path>
    </g>
    <g style="opacity:0.30000000000000004">
      <path
        d="M473.34,201.44q2.19-7.62,4.36-15.25L474,194.94a12,12,0,0,1-1.92,3.45,4.1,4.1,0,0,1-3.5,1.51l2.27,1.55c-1.63,2.62-3.23,5.51-4.86,8.13l3.5.3,3.85-6.11-1.17-2.11Z">
      </path>
    </g>
    <polygon
      points="451.7 168.8 451.88 166.36 456.4 172.74 457.84 179.63 461.54 172.74 474.28 165.33 474.28 171.81 471.85 178.11 467.1 181.78 461.66 184.16 455.19 182.95 451.29 180.74 450.42 176.17 451.7 168.8"
      style="fill:#f5f5f5"></polygon>
    <path
      d="M456.08,172.64a19.88,19.88,0,0,1-.66,2.33,18.73,18.73,0,0,0-.75,5.75l.05,1-.53-.83-.31-.5a45.39,45.39,0,0,1-2.52-5.81c-.61-1.48-1.14-2.33-1.07-2.37a7.24,7.24,0,0,1,1.41,2.22c.74,1.45,1.4,3.6,2.62,5.69l.31.49-.48.15a16.57,16.57,0,0,1,.93-5.89A8,8,0,0,1,456.08,172.64Z"
      style="fill:#263238"></path>
    <path
      d="M474.28,169.54s0,.09,0,.27a3.51,3.51,0,0,1-.08.75,5.85,5.85,0,0,1-1.35,2.41,16.09,16.09,0,0,1-3.12,2.64,44,44,0,0,0-4,2.92,37.5,37.5,0,0,1-3.6,2.65l-.47.29.1-.54a14.62,14.62,0,0,0,.11-3.27c-.05-1-.14-1.88-.21-2.61a15.32,15.32,0,0,1-.19-2.31A11.68,11.68,0,0,1,462,175c.11.72.23,1.6.32,2.61a14.35,14.35,0,0,1,0,3.39l-.37-.25c1.14-.73,2.3-1.67,3.53-2.65a39.57,39.57,0,0,1,4-2.91,16.89,16.89,0,0,0,3.11-2.48A6.14,6.14,0,0,0,474,170.5C474.23,169.9,474.23,169.54,474.28,169.54Z"
      style="fill:#263238"></path>
    <path
      d="M489.69,254.88s-.13,0-.4.06l-1.19.07c-1,.05-2.55.11-4.46.14s-4.22,0-6.85,0c-1.31,0-2.7,0-4.16-.09l-2.25-.09-1.16-.09-.59-.06a1.81,1.81,0,0,1-.31-.05l-.17,0-.09,0a.4.4,0,0,1-.2-.22v-.09c.87-3.95,1.83-8.28,2.84-12.82.19-.85.38-1.7.56-2.53l0-.17.18,0c7.81-1.14,14.94-2.31,20-4.42l-.11.21c-.49-3.5-.89-6.36-1.17-8.4-.12-1-.22-1.72-.29-2.3a4,4,0,0,1-.06-.8,7,7,0,0,1,.17.79c.1.57.23,1.33.39,2.27.33,2,.78,4.89,1.34,8.38l0,.15-.13.06c-5.1,2.2-12.24,3.42-20.07,4.58l.22-.2c-.19.83-.38,1.67-.57,2.53-1,4.53-2,8.86-2.87,12.8l-.21-.06c6.25.29,11.72.4,15.52.41h5.64A1.85,1.85,0,0,1,489.69,254.88Z"
      style="fill:#263238"></path>
    <polygon
      points="492.9 215.87 484.25 236.86 471.51 239.12 468.1 254.46 476.51 254.94 476.45 255.51 443.43 256.45 457.4 215.87 492.9 215.87"
      style="fill:#455a64"></polygon>
    <polygon points="452.75 208.92 457.4 215.87 443.43 256.45 438.88 248.66 452.75 208.92" style="fill:#455a64">
    </polygon>
    <polygon points="492.9 215.87 487.8 210.92 452.75 208.92 457.4 215.87 492.9 215.87" style="fill:#ebebeb"></polygon>
    <path
      d="M457.4,215.87c.14,0-2.88,9.17-6.74,20.37s-7.09,20.25-7.23,20.21,2.88-9.17,6.74-20.38S457.27,215.83,457.4,215.87Z"
      style="fill:#263238"></path>
    <path
      d="M471,240.28l-6.05-.52a31.35,31.35,0,0,0-3.88-5.25c-1.54-1.35-9.49-5.16-9.49-5.16a2.19,2.19,0,0,0,0,2.79,34.25,34.25,0,0,0,4.28,2.75h0a2.16,2.16,0,0,1-2.47,2.73c-2.33-.43-5.05-.91-5.4-.91s-2.73-2.2-4.43-3.87a1.45,1.45,0,0,0-2.45,1.33.66.66,0,0,0,.21.34s-2.46-.08-.27,3.22c0,0-.5,3,1.29,4.44,0,0,.78,3.68,1.93,5s12.44,3.67,12.44,3.67l11.75,1.15Z"
      style="fill:#b78876"></path>
    <path
      d="M452.42,241.11a6.35,6.35,0,0,1-2,0,10.57,10.57,0,0,1-4.74-1.24,9.87,9.87,0,0,1-3.31-3.63,7.24,7.24,0,0,1-.86-1.82,8.72,8.72,0,0,1,1.17,1.63,11,11,0,0,0,3.26,3.37,12.11,12.11,0,0,0,4.51,1.33A9.73,9.73,0,0,1,452.42,241.11Z"
      style="fill:#aa6550"></path>
    <path
      d="M451.25,243.73a3.64,3.64,0,0,1-1.84.14,11.79,11.79,0,0,1-2-.29,6.11,6.11,0,0,1-2.32-.94,11.05,11.05,0,0,1-1.73-1.78l-1.24-1.55a6.69,6.69,0,0,1-1.05-1.5c.06-.05.56.44,1.33,1.26.38.42.84.92,1.33,1.48a12.54,12.54,0,0,0,1.67,1.67,6.3,6.3,0,0,0,2.13.9c.71.18,1.36.3,1.91.39C450.56,243.68,451.24,243.66,451.25,243.73Z"
      style="fill:#aa6550"></path>
    <path
      d="M449.67,246.64c0,.2-2.05-.22-4.43-.89a2,2,0,0,1-.88-.53,5.92,5.92,0,0,1-.61-.62,7.67,7.67,0,0,1-.87-1.18c-.44-.71-.56-1.23-.5-1.25s.31.41.8,1c.25.32.56.69.92,1.07a8.09,8.09,0,0,0,.6.56,1.76,1.76,0,0,0,.66.41c1.22.33,2.29.67,3.07.92A5.48,5.48,0,0,1,449.67,246.64Z"
      style="fill:#aa6550"></path>
  </g>
</svg>