<?xml version="1.0" standalone="no"?>
<!DOCTYPE svg PUBLIC "-//W3C//DTD SVG 20010904//EN" "http://www.w3.org/TR/2001/REC-SVG-20010904/DTD/svg10.dtd">
<svg version="1.0" xmlns="http://www.w3.org/2000/svg" width="600.000000pt" height="315.000000pt"
  viewBox="0 0 600.000000 315.000000" preserveAspectRatio="xMidYMid meet">

  <g transform="translate(0.000000,315.000000) scale(0.100000,-0.100000)" fill="#00008F" stroke="none">
    <path d="M910 1989 l0 -631 43 54 c72 88 282 370 306 411 22 35 25 37 77 37
45 0 54 -3 54 -17 0 -29 73 -263 82 -263 5 0 13 10 18 23 8 17 3 44 -23 122
-19 55 -38 108 -42 118 -6 15 0 17 57 17 l64 0 18 -70 c10 -38 22 -70 26 -70
10 0 100 118 100 131 0 5 26 9 57 9 l57 0 -31 -32 c-16 -18 -58 -69 -92 -112
-46 -60 -60 -84 -55 -100 9 -28 13 -31 23 -20 29 33 163 218 173 238 10 23 17
26 63 26 l52 0 32 -117 c42 -151 109 -360 127 -395 l15 -28 -71 0 c-60 0 -70
3 -70 18 0 9 -13 60 -29 112 l-28 95 -106 3 c-104 3 -106 2 -123 -23 -19 -29
-15 -63 20 -147 l24 -58 -64 0 c-64 0 -65 0 -70 30 -8 38 -14 38 -39 0 -18
-27 -25 -30 -72 -30 -49 0 -52 1 -58 30 -8 38 -16 38 -38 1 -15 -25 -24 -30
-67 -33 -28 -1 -50 -2 -50 0 0 1 25 33 55 70 48 58 55 71 49 97 -14 64 -16 65
-124 65 l-100 0 -61 -77 c-34 -43 -73 -95 -87 -115 -20 -31 -31 -38 -58 -38
l-34 0 0 -75 0 -75 720 0 720 0 0 725 0 725 -720 0 -720 0 0 -631z" />
    <path fill="#ED1C24" d="M3590 2605 c-508 -69 -891 -328 -942 -638 -31 -188 77 -391 286 -538
l69 -49 97 0 c188 0 527 58 715 122 57 20 215 94 215 102 0 2 -35 -5 -77 -16
-104 -26 -304 -34 -429 -18 -236 29 -463 113 -556 205 -65 65 -90 119 -89 195
1 207 229 377 643 479 253 62 522 83 833 63 88 -6 162 -9 164 -7 5 6 -189 63
-269 79 -192 38 -469 47 -660 21z" />
    <path fill="#ED1C24" d="M4495 2413 c-252 -30 -404 -60 -551 -108 -107 -35 -289 -122 -229
-109 104 21 282 44 355 44 253 0 558 -94 679 -209 69 -65 95 -120 96 -201 1
-240 -326 -436 -880 -526 -109 -17 -538 -27 -678 -16 -42 4 -77 4 -77 1 0 -8
207 -65 315 -86 72 -14 140 -18 335 -17 229 0 254 2 375 28 404 85 684 256
798 485 l42 84 0 117 0 117 -42 84 c-49 99 -130 188 -243 268 l-73 51 -96 -1
c-53 -1 -109 -4 -126 -6z" />
    <path fill="#ED1C24" d="M3679 2166 c-25 -6 -64 -27 -88 -46 -54 -44 -117 -138 -126 -189 -22
-129 99 -252 292 -297 72 -17 275 -15 321 3 37 14 132 114 159 167 21 41 24
60 21 112 -3 52 -9 70 -34 101 -63 78 -159 131 -278 154 -67 13 -212 10 -267
-5z" />
    <path d="M1248 1678 l-46 -63 60 -3 c33 -2 62 -1 65 1 2 3 -4 33 -14 67 l-18
61 -47 -63z" />
    <path d="M1797 1675 l-47 -65 69 0 70 0 -15 42 c-8 23 -15 52 -16 65 -2 13 -5
23 -8 23 -3 -1 -26 -30 -53 -65z" />
    <path d="M1506 1509 c-11 -16 -12 -28 -4 -50 12 -34 23 -37 38 -8 12 21 4 79
-10 79 -5 0 -15 -9 -24 -21z" />
    <path d="M1055 948 c-3 -7 -36 -106 -74 -220 l-70 -208 29 0 c27 0 31 5 48 63
l20 62 79 3 79 3 20 -63 c17 -55 23 -63 47 -66 18 -2 27 1 27 11 0 8 -31 106
-70 217 -38 111 -70 204 -70 206 0 11 -61 2 -65 -8z m65 -143 c12 -44 25 -86
27 -92 4 -10 -11 -13 -56 -13 -34 0 -61 3 -61 7 0 23 55 192 60 186 4 -5 17
-44 30 -88z" />
    <path d="M1290 950 c0 -5 23 -52 52 -102 28 -50 51 -97 51 -104 0 -6 -25 -57
-56 -112 -31 -55 -57 -103 -57 -106 0 -3 12 -6 28 -6 24 0 32 9 72 89 25 50
47 90 50 90 3 1 27 -40 53 -89 44 -82 51 -90 78 -90 16 0 29 2 29 4 0 2 -27
52 -61 110 l-61 106 56 102 c31 56 56 105 56 110 0 5 -12 8 -26 6 -22 -2 -34
-17 -68 -85 -22 -45 -45 -80 -49 -79 -5 1 -28 37 -50 81 -35 67 -46 81 -69 83
-16 2 -28 -2 -28 -8z" />
    <path d="M1745 948 c-16 -46 -145 -423 -145 -425 0 -2 13 -3 29 -3 27 0 31 4
48 63 l19 62 80 3 81 3 19 -66 c18 -62 20 -65 49 -65 l31 0 -71 208 c-38 114
-74 213 -78 220 -11 16 -56 16 -62 0z m60 -133 c14 -47 28 -92 31 -100 5 -12
-5 -15 -59 -15 l-64 0 31 100 c17 55 32 100 33 100 1 0 13 -38 28 -85z" />
    <path d="M2215 941 c-74 -45 -113 -134 -102 -236 6 -56 33 -119 64 -147 49
-44 128 -59 186 -34 58 25 71 40 58 64 l-11 21 -38 -25 c-71 -49 -168 -11
-192 75 -26 94 2 206 59 235 39 20 100 20 129 0 18 -12 26 -13 37 -4 22 18 19
26 -19 49 -44 27 -129 28 -171 2z" />
    <path d="M2561 943 c-66 -33 -108 -134 -97 -236 12 -114 72 -184 168 -194 118
-11 198 79 198 223 0 107 -33 174 -102 210 -36 19 -125 17 -167 -3z m154 -55
c38 -30 55 -76 55 -153 0 -78 -26 -137 -70 -160 -65 -33 -126 -7 -161 69 -37
81 -15 210 42 250 34 23 100 21 134 -6z" />
    <path d="M2920 740 l0 -220 119 0 c109 0 119 2 124 19 3 11 2 22 -1 25 -3 3
-47 6 -99 6 l-93 0 0 195 0 195 -25 0 -25 0 0 -220z" />
    <path d="M3238 954 c-5 -4 -8 -103 -8 -221 l0 -213 30 0 30 0 0 84 0 83 76 5
c85 6 118 23 147 79 31 59 6 142 -51 169 -31 14 -213 26 -224 14z m213 -73
c27 -33 25 -86 -6 -116 -21 -22 -33 -25 -90 -25 l-65 0 0 86 0 86 71 -4 c60
-3 74 -8 90 -27z" />
    <path d="M3660 941 c-12 -24 -140 -400 -140 -413 0 -5 12 -8 27 -6 24 3 30 11
47 66 l20 63 80 -3 80 -3 18 -62 c18 -59 21 -63 48 -63 17 0 30 3 29 8 0 4
-33 102 -72 217 -68 199 -73 210 -99 213 -19 2 -30 -3 -38 -17z m90 -228 c0
-9 -19 -13 -61 -13 -48 0 -60 3 -56 14 3 7 15 47 27 87 11 41 24 81 27 89 5
14 62 -148 63 -177z" />
    <path d="M3860 935 c0 -24 2 -25 65 -25 l65 0 0 -195 0 -195 28 0 27 0 0 192
0 193 68 3 c64 3 68 4 65 25 -3 21 -7 22 -160 25 l-158 3 0 -26z" />
    <path d="M4250 959 c0 -2 -1 -102 -3 -222 l-2 -217 28 0 27 0 0 91 0 90 41 -3
c41 -3 43 -4 92 -90 44 -79 52 -88 78 -88 16 0 29 3 29 8 0 4 -23 45 -50 91
l-49 85 28 17 c45 27 61 58 61 114 0 54 -17 83 -60 105 -22 12 -220 28 -220
19z m184 -59 c34 -12 49 -45 41 -86 -8 -44 -46 -64 -120 -64 l-55 0 0 80 0 80
54 0 c30 0 66 -4 80 -10z" />
    <path d="M4627 954 c-4 -4 -7 -103 -7 -221 l0 -213 30 0 30 0 -2 218 c-3 210
-4 217 -23 220 -12 2 -24 0 -28 -4z" />
    <path d="M4875 948 c-3 -7 -36 -106 -74 -220 l-70 -208 29 0 c26 0 30 5 50 65
l22 65 78 0 78 0 19 -62 c17 -59 21 -63 50 -66 l32 -3 -73 218 -73 218 -31 3
c-20 2 -34 -2 -37 -10z m64 -138 c12 -41 24 -83 27 -92 5 -16 -2 -18 -56 -18
-55 0 -62 2 -57 18 2 9 15 54 28 99 13 45 27 79 30 75 4 -4 16 -41 28 -82z" />
  </g>
</svg>