<?xml version="1.0" encoding="utf-8"?>
<!-- Generator: Adobe Illustrator 15.0.0, SVG Export Plug-In . SVG Version: 6.00 Build 0)  -->
<!DOCTYPE svg PUBLIC "-//W3C//DTD SVG 1.1//EN" "http://www.w3.org/Graphics/SVG/1.1/DTD/svg11.dtd" [
	<!ENTITY ns_flows "http://ns.adobe.com/Flows/1.0/">
	<!ENTITY ns_extend "http://ns.adobe.com/Extensibility/1.0/">
	<!ENTITY ns_ai "http://ns.adobe.com/AdobeIllustrator/10.0/">
	<!ENTITY ns_graphs "http://ns.adobe.com/Graphs/1.0/">
	<!ENTITY ns_vars "http://ns.adobe.com/Variables/1.0/">
	<!ENTITY ns_imrep "http://ns.adobe.com/ImageReplacement/1.0/">
	<!ENTITY ns_sfw "http://ns.adobe.com/SaveForWeb/1.0/">
	<!ENTITY ns_custom "http://ns.adobe.com/GenericCustomNamespace/1.0/">
	<!ENTITY ns_adobe_xpath "http://ns.adobe.com/XPath/1.0/">
]>
<svg version="1.1"
	 xmlnsX="&ns_extend;" xmlnsI="&ns_ai;" xmlnsGraph="&ns_graphs;" iViewOrigin="61.332 352.4995" iRulerOrigin="-61.332 -61.3745" iPageBounds="61.332 352.4995 465.9351 61.3745"
	 xmlns="http://www.w3.org/2000/svg" xmlnsXlink="http://www.w3.org/1999/xlink" xmlnsA="http://ns.adobe.com/AdobeSVGViewerExtensions/3.0/"
	 x="0px" y="0px" viewBox="0 0 404.603 291.125" enable-background="new 0 0 404.603 291.125"
	 xml:space="preserve">
	<g >
		<g id="Layer_1">
			<g>
				<path fill="black" d="M317.468,8.149c16.85-8.35,37.09-8.64,54.52-1.88c10.06,4,19.65,10.2,25.89,19.21
					c5.12,7.76,4.1,17.38,3.95,26.2c-5.22-5.55-10.44-11.24-16.89-15.42c-12.81-8.84-28.93-12.21-44.3-10.46
					c-18.77,1.4-37.14,10.48-48.4,25.77c0.16-7.49-1.23-15.43,1.98-22.49C298.488,19.12,308.088,12.77,317.468,8.149z"/>
				<path fill="black" d="M107.098,23.209c8.95-2.24,19.01,3.46,21.37,12.45c3.44,10.68-5.66,22.83-16.83,22.71
					c-9.7,0.58-18.28-8.28-18.13-17.86C93.358,32.479,99.318,25.029,107.098,23.209z"/>
				<path fill="black" d="M18.988,40.799c3.96-2.04,8.55-1.44,12.84-1.49c-0.04,9.25-0.06,18.5,0,27.75
					c14.11-0.04,28.21-0.02,42.32-0.01c-0.22,5.12,0.37,10.29-0.41,15.37c-1.66,7.2-9.19,11.47-16.21,11.58
					c-8.57,0.12-17.14,0.08-25.71,0.01c-0.05,16.51-0.01,33.02-0.01,49.53c-0.01,6.44,1.71,13.68,7.36,17.49
					c5.71,3.8,12.94,3.14,19.45,2.73c5.42-0.32,10.62-1.99,15.5-4.3c-0.38,7.23,1.37,15.15-2.71,21.66
					c-3.91,6.41-11.69,8.92-18.78,9.66c-9.75,0.78-19.87-0.22-28.88-4.21c-8.79-3.76-15.69-11.46-18.9-20.42
					c-2.66-7.22-3.47-14.98-3.36-22.63c0-24.01,0.01-48.02,0-72.03c0.1-6.11,0.79-12.57,4.33-17.76
					C9.278,48.629,13.398,43.649,18.988,40.799z"/>
				<g>
					<path fill="black" d="M342.748,64.459c12.5-0.75,25.4,2.06,35.88,9.07c14.64,9.73,23.51,26.57,25.48,43.82
						c1.6,15.75-0.55,32.27-8.33,46.24c-6.97,12.78-19.13,22.7-33.27,26.39c-17.19,4.6-36.86,2.98-51.61-7.6
						c-13.74-9.53-21.89-25.57-24.08-41.9c-1.85-15.67,0.33-32.1,7.7-46.17c4.97-9.54,12.65-17.75,22.19-22.81
						C324.668,67.129,333.728,65.009,342.748,64.459z M337.128,92.379c-6.09,1.49-11.23,5.84-14.25,11.26
						c-4.86,8.41-5.45,18.42-4.99,27.9c0.45,8.95,2.42,18.39,8.37,25.39c6.44,7.47,17.29,9.44,26.62,7.66
						c7.28-1.48,13.25-6.97,16.28-13.62c3.98-8.53,4.38-18.24,3.69-27.48c-0.81-9.06-3.13-18.76-9.99-25.22
						C356.168,91.77,345.938,90.509,337.128,92.379z"/>
				</g>
				<path fill="black" d="M205.488,69.5c12.72-4,26.46-5.58,39.64-3.16c9.28,1.81,18.83,6.69,23.14,15.52
					c3.36,6.27,2.01,13.59,2.26,20.39c-1.24,0.01-2.48,0.02-3.72,0.03c-10.31-7.66-23.51-10.24-36.12-10.38
					c-11.87-0.21-24.19,4.5-31.67,13.95c-5.96,7.04-8.35,16.56-7.86,25.65c0.31,10.08,2.87,20.9,10.36,28.15
					c8.01,8.18,20.18,10.39,31.19,9.92c4.16-0.26,9.93-1.4,10.5-6.42c0.53-11,0.37-22.14-2.14-32.92
					c5.86,0.16,11.73-0.18,17.58,0.19c7.5,0.71,14.67,7.15,14.16,15.07c-0.49,10.95,1.66,22.61-3.09,32.91
					c-4.26,9.3-14.23,14.24-23.81,16.17c-18.4,3.57-38.37,1.92-54.86-7.47c-14.09-7.7-24.97-21.14-28.98-36.74
					c-4.49-17.28-2.6-36.52,6.53-52.01C176.598,84.459,190.328,74.35,205.488,69.5z"/>
				<path fill="black" d="M96.228,69.74c7.1,0.25,14.81-0.85,21.19,3c6.25,3.48,9.1,10.89,9.11,17.76
					c0.11,16.33,0.01,32.66,0.06,49c0.06,5.3-0.35,10.66,0.59,15.91c0.54,3.3,2.35,6.61,5.46,8.12c5.61,2.98,12.2,2.28,18.33,2.33
					c-0.08,6.39,0.68,13.4-2.91,19.05c-2.85,4.44-8.49,5.7-13.42,5.89c-10.03,0.37-20.91-1.83-28.29-9.11
					c-7.73-7.5-10.14-18.75-10.12-29.17C96.218,124.93,96.208,97.33,96.228,69.74z"/>
				<path fill="black" d="M192.488,213.569c9.06,11.55,19.27,22.49,31.87,30.22
					c15.2,9.62,33.38,14.15,51.31,13.51c23.72-0.34,47.52-8.72,65.36-24.55c6.58-5.36,11.54-12.29,16.67-18.97
					c0.12,9.8,1.1,19.95-2.38,29.34c-4.26,13.87-15.49,24.12-27.26,31.88c-16.29,10.68-35.79,16.89-55.35,16.05
					c-25.17-0.92-50.25-11.6-67.28-30.33c-4.78-5.2-8.86-11.18-10.8-18.04C191.338,233.339,192.188,223.279,192.488,213.569z"/>
			</g>
		</g>
	</g>
</svg>
