<svg viewBox="0 0 96 96" xmlns="http://www.w3.org/2000/svg" xmlns:xlink="http://www.w3.org/1999/xlink"
  id="Icons_Ecommerce" overflow="hidden">
  <path
    d="M70 2 26 2C23.7936 2.00659 22.0066 3.7936 22 6L22 90C22.0066 92.2064 23.7936 93.9934 26 94L70 94C72.2064 93.9934 73.9934 92.2064 74 90L74 6C73.9934 3.7936 72.2064 2.00659 70 2ZM44.5 6 51.5 6C52.3284 6 53 6.67157 53 7.5 53 8.32843 52.3284 9 51.5 9L44.5 9C43.6716 9 43 8.32843 43 7.5 43 6.67157 43.6716 6 44.5 6ZM70 83 26 83 26 13 70 13Z"
    transform="translate(-15)" fill="#083172" />
  <path
    d="M40.705 39.264 36.064 39.264 36.064 36.31 40.705 36.31ZM47.034 36.31 47.034 39.264 42.393 39.264 42.393 36.31ZM53.364 36.31 53.364 39.264 48.722 39.264 48.722 36.31ZM59.693 36.31 59.693 39.264 55.052 39.264 55.052 36.31ZM59.693 43.91 55.052 43.91 55.052 40.952 59.693 40.952ZM59.693 47.496 55.052 47.918 55.052 45.593 59.693 45.593ZM40.705 45.596 40.705 49.18 36.064 49.602 36.064 45.593ZM40.705 43.909 36.064 43.909 36.064 40.952 40.705 40.952ZM47.034 43.909 42.393 43.909 42.393 40.952 47.034 40.952ZM48.722 43.909 48.722 40.952 53.364 40.952 53.364 43.906ZM47.034 48.635 42.393 49.057 42.393 45.593 47.034 45.593ZM48.722 45.596 53.364 45.596 53.364 48.044 48.722 48.466ZM62.222 49.816 62.222 33.779 36.064 33.779 36.064 33.357C36.074 31.2683 34.3888 29.567 32.3001 29.557 32.2881 29.5569 32.276 29.5569 32.264 29.557 31.5648 29.557 30.998 30.1238 30.998 30.823 30.998 31.5222 31.5648 32.089 32.264 32.089 32.9504 32.0762 33.5172 32.6222 33.53 33.3086 33.5303 33.324 33.5303 33.3395 33.53 33.355L33.53 54.455C33.52 56.5437 35.2052 58.245 37.2939 58.255 37.3059 58.2551 37.318 58.2551 37.33 58.255L60.96 58.255C61.6589 58.2747 62.2414 57.724 62.2611 57.0251 62.2807 56.3262 61.7301 55.7436 61.0312 55.724 61.0074 55.7233 60.9837 55.7233 60.96 55.724L37.329 55.724C36.6426 55.7363 36.0763 55.1898 36.064 54.5034 36.0637 54.4883 36.0637 54.4731 36.064 54.458L36.064 52.134Z"
    fill="#083172" transform="translate(-15)" />
  <circle cx="38.595" cy="60.784" r="2.532" fill="#083172" transform="translate(-15)" />
  <circle cx="57.161" cy="60.784" r="2.532" fill="#083172" transform="translate(-15)" /></svg>