<?xml version="1.0" standalone="no"?>
<!DOCTYPE svg PUBLIC "-//W3C//DTD SVG 20010904//EN" "http://www.w3.org/TR/2001/REC-SVG-20010904/DTD/svg10.dtd">
<svg version="1.0" xmlns="http://www.w3.org/2000/svg" width="512.000000pt" height="512.000000pt"
  viewBox="0 0 512.000000 512.000000" preserveAspectRatio="xMidYMid meet">

  <g transform="translate(0.000000,512.000000) scale(0.100000,-0.100000)" fill="#000000" stroke="none">
    <path d="M1120 4924 c-109 -29 -199 -106 -248 -212 l-27 -57 -3 -2070 c-2
-2050 -2 -2071 18 -2135 11 -36 36 -87 55 -113 44 -60 139 -122 208 -137 37
-8 348 -10 1072 -8 l1020 3 57 27 c79 37 142 98 181 177 l32 66 3 409 c2 372
1 410 -14 427 -23 25 -78 25 -104 -1 -18 -18 -20 -33 -20 -185 l0 -165 -1182
2 -1183 3 -3 1795 c-1 1173 1 1814 8 1850 12 65 47 119 103 157 l42 28 1010 3
c665 2 1022 -1 1045 -7 52 -15 110 -68 136 -125 l24 -51 0 -426 c0 -392 1
-428 18 -447 27 -33 63 -37 95 -12 l28 22 -3 462 -3 461 -29 59 c-51 103 -135
172 -251 202 -78 21 -2007 19 -2085 -2z m2230 -4251 c0 -165 -9 -201 -63 -260
-78 -85 24 -78 -1117 -78 l-1015 0 -40 22 c-22 11 -52 34 -66 50 -52 56 -62
88 -67 235 -3 75 -2 144 1 152 6 14 121 16 1187 16 l1180 0 0 -137z" />
    <path d="M1985 615 c-32 -31 -32 -69 0 -100 23 -24 28 -25 178 -25 141 0 157
2 181 21 36 28 36 80 0 108 -24 19 -40 21 -181 21 -150 0 -155 -1 -178 -25z" />
    <path d="M1810 4683 c-54 -20 -65 -79 -27 -153 15 -32 35 -52 67 -70 44 -24
51 -25 282 -28 272 -4 331 4 383 50 43 37 69 113 54 157 -22 63 -112 60 -134
-4 -19 -57 -8 -55 -269 -55 -255 0 -266 2 -266 45 0 36 -54 71 -90 58z" />
    <path fill="current" d="M3300 3529 c-205 -52 -431 -54 -634 -5 -139 34 -169 34 -195 0 -20
-26 -21 -38 -21 -383 0 -196 5 -399 10 -451 40 -382 236 -740 535 -975 85 -67
399 -255 426 -255 20 0 288 154 377 216 91 64 276 252 340 346 104 152 182
333 225 523 18 81 21 132 24 527 4 431 4 437 -16 457 -27 27 -57 26 -183 -4
-218 -53 -415 -53 -633 0 -55 13 -109 26 -120 29 -11 2 -72 -9 -135 -25z m270
-158 c137 -32 370 -39 510 -16 58 10 120 20 139 22 l34 6 -6 -354 c-8 -452
-24 -545 -137 -774 -118 -239 -284 -402 -582 -574 l-107 -61 -113 66 c-164 96
-247 156 -333 241 -178 174 -291 380 -351 638 -14 56 -18 144 -21 447 l-5 376
39 -9 c204 -50 467 -49 664 1 86 22 139 20 269 -9z" />
    <path fill="current" d="M3370 3190 c-20 -20 -20 -33 -20 -669 0 -616 1 -650 18 -672 23 -28
73 -30 102 -4 20 18 20 29 20 676 l0 658 -22 15 c-31 22 -74 20 -98 -4z" />
  </g>
</svg>