<?xml version="1.0" standalone="no"?>
<!DOCTYPE svg PUBLIC "-//W3C//DTD SVG 20010904//EN"
 "http://www.w3.org/TR/2001/REC-SVG-20010904/DTD/svg10.dtd">
<svg version="1.0" xmlns="http://www.w3.org/2000/svg"
 width="200.000000pt" height="200.000000pt" viewBox="0 0 200.000000 200.000000"
 preserveAspectRatio="xMidYMid meet">

<g transform="translate(0.000000,200.000000) scale(0.100000,-0.100000)"
fill="#000000" stroke="none">
<path d="M562 1943 c-19 -9 -44 -32 -58 -52 l-24 -36 0 -855 0 -855 24 -36
c47 -69 47 -69 496 -69 449 0 449 0 496 69 l24 36 0 855 0 855 -24 36 c-47 69
-47 69 -498 69 -353 0 -407 -2 -436 -17z m875 -23 c66 -40 63 9 63 -922 0
-654 -3 -849 -13 -868 -7 -13 -28 -35 -46 -47 l-34 -23 -406 0 c-385 0 -408 1
-438 20 -66 40 -63 -9 -63 922 0 654 3 849 13 868 7 13 28 35 46 47 l34 23
406 0 c385 0 408 -1 438 -20z"/>
<path d="M812 1848 c-21 -21 -8 -68 19 -68 10 0 39 30 39 40 0 10 -29 40 -39
40 -4 0 -12 -5 -19 -12z m33 -38 c-5 -8 -11 -8 -17 -2 -6 6 -7 16 -3 22 5 8
11 8 17 2 6 -6 7 -16 3 -22z"/>
<path d="M897 1844 c-13 -13 -7 -52 9 -58 24 -9 177 -7 192 3 8 4 12 19 10 32
-3 23 -6 24 -104 27 -55 1 -103 0 -107 -4z m193 -29 c0 -12 -17 -15 -90 -15
-73 0 -90 3 -90 15 0 12 17 15 90 15 73 0 90 -3 90 -15z"/>
<path d="M530 1025 l0 -675 470 0 470 0 0 675 0 675 -470 0 -470 0 0 -675z
m920 0 l0 -655 -450 0 -450 0 0 655 0 655 450 0 450 0 0 -655z"/>
<path d="M1121 1508 c0 -9 8 -77 19 -152 20 -134 20 -134 0 -192 -11 -32 -24
-62 -28 -66 -4 -4 -68 37 -142 91 -189 136 -330 233 -330 228 0 -3 98 -76 218
-163 119 -86 220 -160 224 -164 5 -3 -2 -50 -14 -104 -23 -98 -23 -99 -63
-117 -22 -11 -29 -16 -15 -13 63 16 66 19 85 102 10 44 21 85 24 91 5 7 56
-11 142 -49 l134 -59 24 -61 c32 -79 38 -71 8 10 l-24 63 -119 54 c-65 30
-121 57 -123 59 -3 2 6 15 19 29 27 28 17 34 -13 8 -16 -14 -19 -15 -15 -3 43
119 43 119 16 277 -14 81 -26 140 -27 131z"/>
<path d="M928 843 c6 -2 18 -2 25 0 6 3 1 5 -13 5 -14 0 -19 -2 -12 -5z"/>
<path d="M924 276 c-46 -46 -48 -104 -5 -146 51 -52 111 -52 162 0 43 42 41
100 -5 146 -28 28 -42 34 -76 34 -34 0 -48 -6 -76 -34z m141 -11 c54 -53 11
-155 -65 -155 -45 0 -90 47 -90 95 0 51 36 85 90 85 30 0 47 -6 65 -25z"/>
</g>
</svg>
