<?xml version="1.0" standalone="no"?>
<svg version="1.0" xmlns="http://www.w3.org/2000/svg"
 width="512pt" height="512pt" viewBox="0 0 512 512"
 preserveAspectRatio="xMidYMid meet">

<g transform="translate(0,512) scale(0.100000,-0.100000)"
fill="#003272" stroke="none">
<path d="M1307 5109 c-99 -23 -212 -109 -260 -197 -61 -112 -57 39 -57 -2352
0 -2361 -3 -2237 51 -2342 48 -94 152 -175 263 -204 76 -20 2106 -20 2182 0
111 29 215 110 263 204 50 98 51 115 51 754 l0 598 -85 0 -85 0 -2 -618 -3
-619 -30 -49 c-19 -30 -49 -60 -79 -79 -43 -26 -61 -30 -133 -34 l-83 -3 0 66
c0 109 -44 187 -133 234 l-52 27 -720 0 -720 0 -52 -27 c-89 -47 -133 -125
-133 -234 l0 -66 -83 3 c-72 4 -90 8 -133 34 -30 19 -60 49 -79 79 l-30 49 -3
2216 -2 2216 26 53 c24 50 90 112 118 112 6 0 117 -106 246 -235 l236 -235
609 0 609 0 236 235 c129 129 240 235 246 235 28 0 93 -62 118 -111 l26 -53 0
-523 0 -523 85 0 85 0 0 513 c0 547 -2 573 -51 669 -30 58 -100 130 -160 162
-105 58 -65 56 -1199 55 -575 -1 -1062 -5 -1083 -10z m1793 -324 l-165 -165
-540 0 -540 0 -165 165 -165 165 870 0 870 0 -165 -165z m11 -4484 c24 -25 29
-37 29 -80 l0 -51 -745 0 -745 0 0 51 c0 43 5 55 29 80 l29 29 687 0 687 0 29
-29z"/>
<path d="M2828 3855 c-256 -243 -516 -359 -858 -384 -161 -11 -154 1 -147
-261 4 -141 12 -244 26 -329 78 -459 258 -860 548 -1220 177 -221 500 -501
578 -501 74 0 405 290 581 510 360 447 550 968 571 1557 l6 181 -29 30 c-28
27 -35 29 -134 35 -235 12 -455 86 -655 219 -44 29 -130 101 -192 161 -150
143 -145 143 -295 2z m230 -171 c93 -82 188 -149 292 -207 142 -79 375 -150
534 -164 l79 -6 -6 -146 c-6 -162 -32 -328 -78 -501 -134 -506 -456 -984 -870
-1293 l-37 -28 -78 62 c-104 82 -259 233 -348 339 -343 409 -548 944 -559
1454 l-2 110 97 12 c215 27 435 105 602 212 67 43 198 147 241 191 21 23 41
41 42 41 2 0 43 -34 91 -76z"/>
<path d="M2917 3379 c-72 -11 -131 -45 -186 -104 -65 -72 -82 -123 -88 -267
l-5 -118 -55 0 c-44 0 -58 -5 -78 -25 l-25 -24 0 -364 0 -364 26 -24 26 -24
444 0 443 0 23 23 c23 23 23 23 26 383 l3 360 -30 29 c-26 26 -37 30 -85 30
l-56 0 0 115 c0 90 -4 126 -20 169 -54 142 -209 230 -363 205z m137 -182 c64
-36 86 -90 86 -209 l0 -98 -165 0 -165 0 0 99 c0 55 5 112 11 128 34 91 146
130 233 80z m246 -717 l0 -250 -330 0 -330 0 0 243 c0 134 3 247 7 250 3 4
152 7 330 7 l323 0 0 -250z"/>
<path d="M2892 2478 l3 -83 80 0 80 0 3 83 3 82 -86 0 -86 0 3 -82z"/>
</g>
</svg>
