<?xml version="1.0"?>
<svg xmlns="http://www.w3.org/2000/svg" xmlns:xlink="http://www.w3.org/1999/xlink" xmlns:svgjs="http://svgjs.com/svgjs" version="1.1" width="512" height="512" x="0" y="0" viewBox="0 0 512 512" style="enable-background:new 0 0 512 512" xml:space="preserve" class=""><g><g xmlns="http://www.w3.org/2000/svg"><path d="m456.606 165.394-40-40c-2.813-2.813-6.628-4.394-10.606-4.394h-45v-76c0-24.813-20.187-45-45-45h-220c-24.813 0-45 20.187-45 45v422c0 24.813 20.187 45 45 45h220c24.813 0 45-20.187 45-45v-81.2c28.328-13.302 52.42-33.839 70.07-59.909 19.58-28.92 29.93-62.668 29.93-97.594v-52.297c0-3.978-1.581-7.793-4.394-10.606zm-211.418-135.394-10 30h-58.377l-10-30zm85.812 437c0 8.271-6.729 15-15 15h-220c-8.271 0-15-6.729-15-15v-422c0-8.271 6.729-15 15-15h39.188l16.581 49.744c2.043 6.125 7.774 10.256 14.231 10.256h80c6.457 0 12.188-4.131 14.23-10.256l16.582-49.744h39.188c8.271 0 15 6.729 15 15v76h-45c-3.978 0-7.793 1.581-10.606 4.394l-40 40c-2.813 2.813-4.394 6.628-4.394 10.606v52.297c0 34.926 10.35 68.674 29.93 97.595 17.65 26.07 41.742 46.607 70.07 59.909zm100-238.703c0 57.232-33.165 108.171-85 131.414-51.835-23.243-85-74.182-85-131.414v-46.083l31.213-31.214h107.573l31.214 31.213z" fill="#003272" data-original="#000000" style="" class=""/><path d="m377.82 211.251-45.962 45.961-17.678-17.677c-5.857-5.858-15.355-5.858-21.213 0s-5.858 15.355 0 21.213l28.284 28.284c2.929 2.929 6.768 4.394 10.606 4.394s7.678-1.464 10.606-4.394l56.568-56.568c5.858-5.858 5.858-15.355 0-21.213-5.856-5.858-15.354-5.858-21.211 0z" fill="#003272" data-original="#000000" style="" class=""/><path d="m236 422h-60c-8.284 0-15 6.716-15 15s6.716 15 15 15h60c8.284 0 15-6.716 15-15s-6.716-15-15-15z" fill="#003272" data-original="#000000" style="" class=""/></g></g></svg>
