<?xml version="1.0" encoding="UTF-8" standalone="no"?>
<!-- Generator: Adobe Illustrator 16.0.0, SVG Export Plug-In . SVG Version: 6.00 Build 0)  -->

<svg xmlns:dc="http://purl.org/dc/elements/1.1/" xmlns:cc="http://creativecommons.org/ns#"
  xmlns:rdf="http://www.w3.org/1999/02/22-rdf-syntax-ns#" xmlns:svg="http://www.w3.org/2000/svg"
  xmlns="http://www.w3.org/2000/svg" xmlns:sodipodi="http://sodipodi.sourceforge.net/DTD/sodipodi-0.dtd"
  xmlns:inkscape="http://www.inkscape.org/namespaces/inkscape" version="1.1" id="Layer_1" x="0px" y="0px"
  viewBox="43.167 126.5 100 43" enable-background="new 43.167 126.5 260.667 122.667" xml:space="preserve"
  sodipodi:docname="HBO Max Logo.svg" inkscape:version="0.92.4 (5da689c313, 2019-01-14)">
  <title id="title32">Telefónica Telecom logo </title>
  <metadata id="metadata45">
    <rdf:RDF>
      <cc:Work rdf:about="">
        <dc:format>image/svg+xml</dc:format>
        <dc:type rdf:resource="http://purl.org/dc/dcmitype/StillImage" />
        <dc:title>Telefónica Telecom logo </dc:title>
        <cc:license rdf:resource="http://scripts.sil.org/OFL" />
      </cc:Work>
      <cc:License rdf:about="http://scripts.sil.org/OFL">
        <cc:permits rdf:resource="http://scripts.sil.org/pub/OFL/Reproduction" />
        <cc:permits rdf:resource="http://scripts.sil.org/pub/OFL/Distribution" />
        <cc:permits rdf:resource="http://scripts.sil.org/pub/OFL/Embedding" />
        <cc:permits rdf:resource="http://scripts.sil.org/pub/OFL/DerivativeWorks" />
        <cc:requires rdf:resource="http://scripts.sil.org/pub/OFL/Notice" />
        <cc:requires rdf:resource="http://scripts.sil.org/pub/OFL/Attribution" />
        <cc:requires rdf:resource="http://scripts.sil.org/pub/OFL/ShareAlike" />
        <cc:requires rdf:resource="http://scripts.sil.org/pub/OFL/DerivativeRenaming" />
        <cc:requires rdf:resource="http://scripts.sil.org/pub/OFL/BundlingWhenSelling" />
      </cc:License>
    </rdf:RDF>
  </metadata>
  <defs id="defs43" />
  <sodipodi:namedview pagecolor="#ffffff" bordercolor="#666666" borderopacity="1" objecttolerance="10"
    gridtolerance="10" guidetolerance="10" inkscape:pageopacity="0" inkscape:pageshadow="2" inkscape:window-width="1366"
    inkscape:window-height="705" id="namedview41" showgrid="false" inkscape:showpageshadow="false" inkscape:zoom="1"
    inkscape:cx="43.542692" inkscape:cy="32.228026" inkscape:window-x="-8" inkscape:window-y="-8"
    inkscape:window-maximized="1" inkscape:current-layer="Layer_1" />

  <g transform="matrix(0.06096363,0,0,0.06096363,88.590949,156.58791)" id="#000000ff"
    style="fill:#004492;fill-opacity:1">
    <path style="opacity:1;fill:#004492;fill-opacity:1;stroke-width:0.61637425"
      d="m -1111.5215,173.31055 c -5.7644,2.91785 -18.5322,3.64453 -29.2148,3.64453 h -105.416 c -59.251,0 -95.6156,19.22225 -101.5762,48.03515 -1.0058,4.98449 -0.6507,10.08186 0.9805,14.58008 h 19.6953 c 1.4595,-31.12281 35.2257,-48.88476 87.8047,-48.88476 l 29.3378,-0.1211 c -17.097,9.96907 -31.3531,22.98902 -42.33,47.54688 -0.184,0.48626 -0.409,0.97273 -0.6543,1.45898 h 29.582 c 11.0997,-27.23243 18.781,-41.10353 30.2363,-49.00586 h 42.6973 c 23.2785,-0.60785 33.3376,-6.43569 40.4512,-15.31054 z m -141.373,66.25976 c -4.3049,10.09057 -16.9419,41.94431 -26.8028,67.96094 -3.4587,9.11803 -6.5736,17.49218 -8.8672,23.93555 -11.3694,30.27178 -18.6394,44.14392 -27.7031,49.25 l 1.4707,2.79492 c 25.4493,1.45889 40.5691,-11.44893 50.3809,-35.27734 4.771,-11.54945 10.329,-26.6006 15.4433,-40.70313 4.8323,-13.25151 9.2488,-25.67442 12.2168,-33.45508 5.1268,-13.37309 9.5065,-24.78046 13.4434,-34.38476 z m -93.8535,0 c 2.919,8.38861 10.058,15.06604 21.0839,16.16016 l 1.5118,-1.09375 c -2.2077,-3.89038 -3.0396,-10.20338 -2.9415,-14.09375 0.012,-0.24319 0.027,-0.60839 0.039,-0.85156 z m 467.50972,-63.95117 c -29.68064,0.24319 -66.34128,6.93535 -91.97461,59.45508 -4.78319,0.72945 -9.31198,2.1862 -13.35938,4.49609 -2.57552,1.58047 -4.90173,3.27995 -7.10937,5.58985 l 1.10156,2.42968 c 4.17007,-1.45887 9.06872,-1.82226 14.58789,-1.82226 -3.4342,8.63169 -10.53717,27.48915 -17.77343,46.57617 -4.25369,5.66208 -8.53478,10.71932 -12.78908,15.1875 h -0.123 c -17.048,17.9929 -33.4572,26.48778 -46.0899,26.60937 -8.7079,0.12144 -12.2578,-4.4903 -12.2578,-12.8789 -0.1226,-4.13356 0.7352,-9.71849 1.5938,-13.73047 0.2452,-0.85094 0.3679,-1.70024 0.6132,-2.42969 17.048,-8.38859 34.0675,-17.77158 49.3985,-33.57617 8.4626,-9.11804 14.34265,-18.09932 14.58787,-27.58203 0,-1.58046 -0.12231,-3.03575 -0.49024,-4.37305 -1.59443,-6.07868 -6.98313,-9.11287 -16.18163,-9.23437 -0.5902,-0.008 -1.1584,-0.0214 -1.7559,0 -8.9623,0.32144 -18.7016,3.87757 -27.7851,9.23437 -6.8683,4.13356 -13.357,9.22994 -18.6309,14.82227 -13.4912,14.58879 -24.5553,34.17325 -28.3574,53.13867 -0.8585,4.25514 -1.3477,8.50326 -1.3477,12.63672 -0.1226,15.56141 8.1184,28.55276 29.459,28.06641 22.6898,-0.72944 43.3826,-13.84067 61.2891,-32.44141 -4.538,11.9142 -8.4564,22.23228 -10.6641,27.70312 -6.7456,16.53403 -11.6386,29.8053 -21.8183,37.58594 l 1.2246,1.94336 c 29.9259,1.70198 41.09692,-19.0976 53.48435,-53.25977 2.82086,-7.65906 5.39349,-15.06146 8.0918,-22.23437 8.8306,-24.67936 16.54426,-46.08165 22.92187,-62.00781 13.00067,0 31.65896,0.48804 42.08399,-1.94336 -21.58592,9.48272 -40.48865,38.29921 -46.00782,63.95117 -1.4718,6.80812 -2.08391,13.36271 -1.4707,19.44141 1.22656,12.40046 8.5723,21.01953 24.76172,21.01953 23.18034,0.12157 43.66974,-20.03654 56.79297,-40.46094 4.4153,-6.92964 8.08842,-13.97013 10.66406,-20.04883 5.76438,-13.98093 9.43795,-25.79136 10.17383,-37.58398 7.35892,-1.33728 14.50342,-2.67381 17.9375,-3.16016 6.99095,-0.97252 5.63967,6.55901 3.55469,12.39453 -5.51915,14.83196 -12.49935,32.71554 -18.87696,48.39844 -8.70793,21.27542 -16.09765,38.3951 -16.09765,38.75977 h 24.43359 c 7.60414,-16.04769 13.2356,-27.81808 19,-38.75977 2.08508,-4.01187 4.16539,-7.77368 6.37305,-11.66406 10.05703,-17.38494 32.76393,-46.21289 41.83984,-46.21289 3.18884,-0.12144 4.04496,2.06416 3.43164,5.10351 -1.22645,7.90224 -15.11189,31.49811 -23.69726,52.77344 h 27.25195 c 1.96233,-4.49824 3.79933,-8.38156 5.14844,-11.17773 7.48149,-15.92616 20.83939,-39.15908 20.10351,-51.80274 -0.12264,-1.70195 -0.61373,-3.4005 -1.34961,-4.85937 l -36.16015,-0.1211 c -12.26479,7.78076 -24.1824,21.37517 -34.60743,37.66602 l -0.49023,-0.24219 c 6.62299,-14.71047 11.76719,-28.67138 11.64453,-35.23633 4e-5,-0.72942 -0.12163,-1.45806 -0.24414,-2.1875 -0.85859,-4.6198 -4.28682,-6.56103 -10.78711,-6.43945 -5.27388,0 -12.37625,2.06307 -19.36719,3.88672 -3.3115,0.85093 -6.61659,1.70171 -10.05078,2.55273 -6.86816,1.70207 -14.01108,3.4001 -21.61523,4.98047 -6.99084,1.09421 -9.19336,2.1857 -9.19336,4.61719 0.73588,19.93805 -5.87879,41.82936 -14.83203,58.36328 -8.70794,15.92617 -19.60681,27.0957 -28.4375,27.0957 -7.72673,-1e-5 -9.60156,-5.46349 -9.60156,-13.24414 0,-4.25516 0.48996,-8.86697 1.59375,-13.85156 5.39652,-26.50301 24.30058,-59.81779 42.82031,-65.89648 1.96231,-0.60785 3.79934,-0.97117 5.14844,-1.33594 l 0.24414,-0.72852 2.45117,-6.56054 c -4.66054,0.85102 -15.68676,1.09179 -21.45117,1.09179 -5.88707,0.12157 -48.33594,0.12305 -48.33594,0.12305 12.75532,-30.15022 30.67104,-49.61343 56.79492,-50.58594 16.31209,-0.72945 27.21019,5.33995 28.19141,14.70117 0.73588,7.78066 -1.5888,14.13037 -7.84375,20.69532 l 1.83789,1.70117 c 14.22711,-6.68655 24.18945,-18.13917 24.18945,-25.91992 0.12264,-12.03571 -14.36924,-19.44036 -37.79492,-19.19727 z m 99.73633,63.95117 h 36.16015 c -2.20767,-3.89037 -6.85911,-6.92578 -14.58593,-6.92578 -7.23612,0 -14.46072,2.54915 -21.57422,6.92578 z m -14.99414,67.96094 c -4.04736,9.96906 -6.98789,19.43607 -6.86524,26.73047 0.24534,14.46729 8.24707,23.24676 21.73828,26.5293 l 2.69532,-1.58008 c -1.59445,-3.03934 -1.83829,-7.20686 -1.96094,-11.70508 -0.12264,-10.94156 6.24802,-27.57454 11.64453,-39.85352 z m 117.01953,-119.64063 c -6.7456,0.12157 -13.60441,6.3145 -15.07617,13.73047 -1.59446,7.5376 2.69227,13.5259 9.56054,13.4043 6.86827,-0.12157 13.60479,-6.35354 15.19922,-13.76953 1.4718,-7.53759 -2.81541,-13.48682 -9.68359,-13.36524 z m -381.54104,0.72852 -23.8222,4.49609 c -3.5569,0.85102 -5.7599,3.52268 -6.9864,6.19727 -6.1324,12.64363 -12.254,25.79061 -18.8769,40.25781 h 27.0898 c 9.0759,-19.57326 17.5671,-37.57809 22.5957,-50.95117 z m -49.6855,50.95117 c -5.8871,13.00843 -12.1319,27.0045 -19,42.6875 -1.5944,3.5256 -3.3367,7.2894 -4.9434,11.17969 -3.4831,4.86298 -7.2215,9.59553 -11.1953,14.09375 -13.2581,14.95355 -28.6841,26.48778 -42.4941,26.60937 -7.4815,0.12144 -10.8097,-4.12613 -10.7852,-12.75781 0.012,-4.25516 0.8398,-9.83958 1.6738,-13.85156 0.1963,-0.85094 0.3884,-1.70024 0.5723,-2.42969 16.999,-8.38859 34.0595,-17.77158 49.4395,-33.57617 8.5117,-9.11804 14.4242,-18.09932 14.5468,-27.58203 0,-1.58046 -0.1223,-3.03575 -0.4902,-4.37305 -1.5086,-6.07868 -6.942,-9.11287 -16.1406,-9.23437 -0.5864,-0.008 -1.2019,-0.0214 -1.7969,0 -8.925,0.32144 -18.7476,3.87757 -27.7852,9.23437 -6.9173,4.13356 -13.3815,9.22994 -18.6308,14.82227 -13.5158,14.58879 -24.5757,34.17325 -28.3164,53.13867 -0.8462,4.25514 -1.2986,8.50326 -1.3477,12.63672 -0.1717,15.92618 7.4457,28.55276 28.2344,28.06641 22.2115,-0.72944 43.9279,-17.73139 55.1992,-29.88868 -1.4595,5.10607 -2.3691,9.95971 -2.3691,14.21485 0,14.10254 7.135,24.09602 21.166,28.47265 l 2.8183,-1.33593 c -1.2265,-3.89037 -1.5944,-7.81378 -1.2265,-12.4336 0.8585,-11.42795 4.777,-24.04942 10.664,-39.73242 1.2265,-3.16085 2.5748,-6.43728 3.9239,-9.96289 7.4815,-18.84393 16.7876,-39.1546 25.373,-57.87695 z m 494.15037,-8.01953 c -8.70793,0.12157 -18.78977,2.67029 -28.60157,8.01953 -6.7456,3.76879 -13.48089,8.86668 -19.61328,15.43164 -15.53649,16.73446 -24.57737,36.50335 -28.39648,52.5293 h -0.041 c -0.008,0.0404 0.008,0.0808 0,0.12109 -0.60531,3.11439 -1.22851,5.98764 -1.4707,8.74805 -8.5854,9.96907 -18.05599,16.52489 -24.4336,16.64649 -3.55684,0.24318 -6.00585,-1.57642 -6.00585,-5.4668 -0.12265,-3.28242 1.71385,-9.96003 5.02539,-18.5918 0.24519,-0.48626 0.36795,-0.97066 0.61328,-1.45703 7.48147,-18.60067 18.17327,-41.21475 31.17383,-67.96094 0.98118,-1.94514 1.96224,-4.13044 2.94335,-6.19726 -2e-5,0 -22.18613,3.76665 -25.375,4.49609 -1.34912,0.36478 -2.61292,0.97173 -3.71679,1.70117 -1.59439,1.09421 -2.94223,2.67196 -3.80078,4.61719 -9.44379,19.81646 -20.71072,43.04173 -27.82422,60.18359 -0.36796,1.09412 -0.85857,2.06605 -1.22656,3.16016 -3.67942,9.60429 -5.75977,18.58725 -5.75977,24.17969 -10e-6,10.57693 6.73372,17.13185 19.73438,16.88867 13.49111,-0.36478 27.36916,-8.25566 38.77539,-19.19727 2.20761,11.54944 10.53211,19.80463 27.58007,19.31836 17.66121,-0.48632 34.72236,-11.65664 46.61914,-24.42187 -2e-5,1.21569 -0.12304,2.54982 -0.12304,3.76562 -2e-5,11.79262 6.24353,20.53516 19.85742,20.53516 14.71763,-10e-6 31.65842,-10.92559 44.9043,-29.76953 l 0.49023,0.24414 c -1.22645,4.37663 -2.57264,12.02674 -2.69531,17.13281 -0.36789,14.22411 8.08212,22.27368 20.10156,24.70508 l 2.69727,-1.09375 c -4.17006,-10.33372 1.71537,-36.00164 4.29101,-44.51172 0.85851,-2.55309 1.71372,-5.10071 2.57227,-7.77539 8.46273,-25.4088 20.22164,-52.52111 27.70312,-67.96094 0.24534,-0.36466 0.36805,-0.85016 0.61328,-1.21484 -3.67938,-3.03934 -12.37563,-5.34666 -21.57421,-5.58985 -1.62507,-0.0608 -3.23746,-0.0974 -4.86133,-0.0801 -11.26715,0.12027 -22.467,2.1869 -33.21875,6.88476 h -0.28516 c -16.80271,7.53758 -32.39543,21.28961 -45.27344,43.90235 -3.92472,6.68654 -8.21077,14.57573 -11.15429,23.08593 -0.36788,0.36468 -0.6121,0.72959 -0.85743,0.97266 -2.94352,3.64728 -5.76026,6.92442 -7.10937,8.26172 -8.09467,7.78075 -19.64737,17.61815 -31.29883,17.86133 -6.74556,-2e-5 -10.41944,-4.61239 -10.29687,-12.75782 -3e-5,-4.25504 0.49155,-8.74591 1.47265,-13.24414 l -14.38281,-0.0801 14.38281,-0.041 c 6.00975,-30.02862 29.32698,-66.01718 45.76172,-66.13867 5.27388,0 7.47656,2.30695 7.47656,6.68359 0,5.22767 -3.67461,12.51115 -8.70312,17.13086 l 2.20703,1.94531 c 12.63265,-4.86299 24.516,-13.7253 24.63867,-22.96484 -2e-5,-1.70205 -0.36919,-3.27989 -0.98242,-4.61719 -3.06619,-6.68654 -13.23148,-8.01953 -22.55273,-8.01953 z m -540.36137,10.20703 c 3.6304,0.12157 5.0787,2.54961 5.0664,5.83203 -0.074,14.95357 -18.7852,34.29591 -42.7382,48.39844 6.0097,-23.46366 22.807,-54.23047 37.6718,-54.23047 z m 132.0567,0 c 3.6794,0.12157 5.0254,2.54961 5.0254,5.83203 -0.1227,14.95357 -18.74,34.29591 -42.6563,48.39844 5.8871,-23.46366 22.7906,-54.23047 37.6309,-54.23047 z m 491.9824,0.76953 c 2.13971,-0.0617 4.12707,0.15612 5.9668,0.56641 -1.83976,3.76879 -10.41651,20.89026 -17.16211,36.33008 -4.29266,9.84747 -9.3113,19.59734 -14.95313,28.10742 -8.21734,12.27897 -17.31931,21.74723 -26.02734,23.93555 -5.15116,1.2157 -8.09142,-0.96963 -7.96875,-5.71094 0.12264,-4.98447 1.47047,-11.29488 3.80078,-18.22461 7.60415,-23.22049 25.89347,-53.37662 44.16797,-61.88672 4.59929,-2.12757 8.6096,-3.01433 12.17578,-3.11719 z m -442.46094,187.68164 c -230.94446,0.3339 -451.28906,3.14325 -451.28906,6.5625 0,3.64718 250.6887,6.68164 497.54102,6.68164 246.76647,2e-5 497.45898,-3.03444 497.45898,-6.68164 -3e-5,-3.64721 -250.69251,-6.5625 -497.45898,-6.5625 -15.42828,0 -30.85566,-0.0223 -46.25196,0 z m 168.21289,58.89258 -13.98242,1.38672 0.47656,98.55078 h 13.51758 z m -124.85937,1.96289 -13.38672,1.94922 -0.006,19.27344 -10.45703,-0.0117 -0.01,10.14649 10.47852,0.0117 0.006,45.33399 c 0.0308,5.41176 0.96173,11.2669 4.70312,15.43359 3.56265,4.01876 9.08448,5.46703 14.25586,5.81836 5.78776,0.44995 11.77927,-0.0605 17.08008,-2.59375 l -2.07617,-9.32031 c -3.49484,1.65805 -7.44575,2.10323 -11.27344,1.83203 -2.41002,-0.2034 -4.92624,-0.98035 -6.57812,-2.8418 -2.36688,-2.56411 -2.77955,-6.25721 -2.85352,-9.59179 -0.0123,-14.69437 0.007,-29.38212 -0.0117,-44.07032 l 21.42578,-0.006 v -10.26562 l -21.32812,-0.004 z m 66.65625,18.9668 c -8.60078,-0.0346 -17.29719,2.49872 -23.96289,8.01758 -7.26706,5.92952 -11.44517,14.97813 -12.63477,24.16211 -1.46081,10.79887 0.19773,22.44802 6.59571,31.49023 5.30698,7.63688 13.84884,12.6732 22.92187,14.38672 12.37063,2.33606 25.34657,0.11586 36.60156,-5.39453 l -3.05859,-9.375 c -6.53973,3.4517 -13.8565,5.46692 -21.27149,5.50391 -7.59989,0.28969 -15.58098,-2.00768 -21.06054,-7.46875 -4.82005,-4.59816 -7.28039,-11.2071 -7.69336,-17.77149 l 57.46484,-0.006 c 0.84443,-9.83733 -0.39414,-20.23549 -5.78125,-28.71679 -4.78923,-7.79099 -13.15865,-13.16569 -22.20703,-14.39844 -1.94851,-0.27622 -3.92927,-0.4217 -5.91406,-0.42969 z m 192.79687,0.0117 c -9.77139,0.1594 -19.74585,3.22914 -26.98632,9.97265 -6.77397,6.15143 -10.64563,15.05215 -11.53321,24.08204 -1.17727,10.72491 1.004,22.22653 7.76563,30.84961 5.63366,7.34101 14.34419,11.91419 23.39258,13.375 11.94533,1.94157 24.35902,-0.33273 35.16406,-5.65821 l -3.00782,-9.29492 c -9.80651,4.69061 -21.33269,7.34739 -31.95898,3.95117 -7.97588,-2.47166 -14.29389,-9.17121 -16.64844,-17.13476 -2.63192,-8.8573 -2.12128,-18.94199 2.47071,-27.07813 3.67975,-6.53972 10.47282,-11.03856 17.82617,-12.31445 9.67091,-1.79981 19.56419,0.75762 28.31054,4.875 l 3.00196,-9.3125 c -8.05601,-3.85234 -16.88362,-6.23268 -25.8457,-6.30664 -0.64875,-0.015 -1.29975,-0.0165 -1.95118,-0.006 z m 71.16211,0.01 c -2.85988,-0.005 -5.71481,0.23046 -8.5039,0.67579 -4.57966,0.77663 -9.06102,2.26715 -13.08594,4.60937 -7.89576,4.46255 -13.53009,12.36485 -15.84766,21.07422 -2.42851,9.13467 -2.29882,19.00362 0.54883,28.02734 2.6689,8.49364 8.65363,15.97068 16.61719,20.04493 8.91893,4.64129 19.44635,5.4225 29.23437,3.70898 9.72023,-1.70736 18.83093,-7.42129 23.91602,-15.97656 5.59051,-9.25794 6.77957,-20.62242 5.15234,-31.15625 -1.45464,-9.24562 -6.17483,-18.19574 -13.86718,-23.72461 -6.96659,-5.09896 -15.58443,-7.26876 -24.16407,-7.28321 z m -153.93359,0.12891 c -8.70648,0.009 -17.49861,2.64936 -24.1543,8.35352 -7.02666,5.92335 -11.05679,14.7936 -12.24023,23.79882 -1.48546,10.91599 0.2406,22.71348 6.79883,31.79883 5.39943,7.63688 14.06484,12.56778 23.19336,14.20117 12.23502,2.16348 25.04393,-0.0192 36.13867,-5.52343 l -3.02735,-9.30078 c -6.4596,3.25445 -13.55295,5.39344 -20.82617,5.45507 -7.78481,0.38832 -16.01434,-1.89789 -21.61719,-7.52539 -4.78306,-4.59199 -7.20586,-11.16955 -7.625,-17.70312 l 57.45313,-0.0117 c 0.99236,-10.2688 -0.56731,-21.21 -6.52149,-29.85156 -4.88168,-7.2424 -12.95053,-12.12442 -21.58593,-13.28321 -1.97279,-0.27274 -3.97714,-0.41034 -5.98633,-0.4082 z m 238.24023,1.96484 c -8.66902,0.4931 -17.00875,4.74005 -23.26562,11.23047 l -0.0391,-9.33789 h -11.7461 l 0.23828,75 c 4.08254,0.006 12.25391,0 12.25391,0 l -0.0176,-55.01172 c 5.95677,-9.77569 18.36405,-14.33582 28.48828,-10.22461 5.4415,2.30524 7.51896,9.09696 7.5586,14.96485 l 0.0293,50.25976 12.4043,-0.008 -0.0332,-45.88281 c -0.0396,-3.71057 0.16526,-7.43939 -0.36133,-11.11914 4.76767,-5.94185 11.87314,-9.76837 19.17187,-9.71289 4.32602,-0.006 9.00331,1.07742 12.12891,4.57226 3.17656,3.66743 4.05438,8.92526 4.04883,13.80078 l -0.006,48.35547 12.36523,0.006 -0.0273,-52.71289 c -0.0906,-6.48426 -1.95394,-13.32638 -6.52344,-17.75195 -5.4698,-5.30082 -13.176,-6.59416 -20.2539,-6.42774 -8.68601,0.52392 -17.03746,4.83198 -23.27735,11.35938 -1.43256,-2.84149 -3.38555,-5.41087 -5.93359,-7.13672 -5.06778,-3.53799 -11.30299,-4.3336 -17.20313,-4.22266 z m -348.2539,8.03516 c 4.77568,0.10552 9.47579,1.67907 13.11914,4.88672 5.27616,4.6413 7.65556,11.74913 8.02539,18.60937 l -44.71094,0.006 c 0.33284,-5.36245 1.86146,-10.79883 5.2207,-15.07031 4.22698,-5.60303 11.36586,-8.58586 18.34571,-8.43164 z m 263.99414,0.0469 c 5.40984,0.041 10.82721,1.5689 15.11719,4.92968 5.84322,4.51803 8.95561,11.7656 9.77539,18.96485 0.88757,7.55058 0.0738,15.5444 -3.55665,22.31836 -2.95243,5.56586 -8.20948,9.89413 -14.33007,11.48437 -7.92041,2.10184 -17.07279,0.80709 -23.39063,-4.66016 -5.60284,-4.76457 -8.42654,-12.05587 -9.12304,-19.23046 -0.78281,-8.03752 0.31413,-16.63091 4.86914,-23.47266 3.43936,-5.23302 9.10969,-8.86323 15.27343,-9.89258 1.75975,-0.30356 3.56196,-0.45508 5.36524,-0.4414 z m -154.58008,0.10156 c 5.03421,-0.0616 10.04792,1.49787 13.89062,4.86328 5.33164,4.62896 7.66199,11.77226 8.09961,18.63867 l -44.74414,0.006 c 0.34517,-5.60284 2.01617,-11.29128 5.6836,-15.63672 4.09118,-5.03423 10.59775,-7.79195 17.07031,-7.87109 z"
      transform="matrix(1.6223909,0,0,1.6223909,1578.0957,-757.75591)" id="path3" inkscape:connector-curvature="0" />
  </g>
</svg>