<?xml version="1.0" encoding="iso-8859-1"?>
<!-- Generator: Adobe Illustrator 19.0.0, SVG Export Plug-In . SVG Version: 6.00 Build 0)  -->
<svg version="1.1" id="Capa_1" xmlns="http://www.w3.org/2000/svg" xmlns:xlink="http://www.w3.org/1999/xlink" x="0px" y="0px"
	 viewBox="0 0 512 512" style="enable-background:new 0 0 512 512;" xml:space="preserve">
<g>
	<g>
		<g>
			<path d="M360,0H152c-22.08,0.026-39.974,17.92-40,40v432c0.026,22.08,17.92,39.974,40,40h208c22.08-0.026,39.974-17.92,40-40V40
				C399.974,17.92,382.08,0.026,360,0z M384,472c0,13.255-10.745,24-24,24H152c-13.255,0-24-10.745-24-24v-56h256V472z M384,400H128
				V72h256V400z M384,56H128V40c0-13.255,10.745-24,24-24h208c13.255,0,24,10.745,24,24V56z"/>
			<path d="M256,488c17.673,0,32-14.327,32-32c0-17.673-14.327-32-32-32c-17.673,0-32,14.327-32,32C224,473.673,238.327,488,256,488
				z M256,440c8.837,0,16,7.163,16,16s-7.163,16-16,16s-16-7.163-16-16S247.163,440,256,440z"/>
			<path d="M160,248h48c4.418,0,8-3.582,8-8v-80c0-4.418-3.582-8-8-8h-48c-4.418,0-8,3.582-8,8v80C152,244.418,155.582,248,160,248z
				 M168,184v-16h32v64h-32V184z"/>
			<path d="M296,272v80c0,4.418,3.582,8,8,8h48c4.418,0,8-3.582,8-8v-80c0-4.418-3.582-8-8-8h-48C299.582,264,296,267.582,296,272z
				 M312,280h32v16v48h-32V280z"/>
			<path d="M234.088,195.952l-0.04-0.072c33.194-12.146,69.949,4.917,82.095,38.111c1.762,4.815,2.939,9.825,3.505,14.921
				c0.448,4.05,3.869,7.116,7.944,7.12c0.288,0,0.592,0,0.888,0c4.378-0.486,7.539-4.42,7.072-8.8
				c-4.88-43.912-44.434-75.554-88.347-70.674c-6.359,0.707-12.611,2.174-18.621,4.37c-4.149,1.52-6.28,6.115-4.76,10.264
				C225.344,195.341,229.939,197.472,234.088,195.952z"/>
			<path d="M277.024,316.432v0.016c-33.385,11.611-69.861-6.039-81.472-39.424c-1.629-4.683-2.708-9.54-3.216-14.472
				c-0.442-4.396-4.364-7.602-8.76-7.16c-4.396,0.442-7.602,4.364-7.16,8.76c4.509,43.952,43.795,75.927,87.747,71.417
				c6.177-0.634,12.26-1.985,18.125-4.025c4.173-1.454,6.378-6.015,4.924-10.188C285.758,317.183,281.197,314.978,277.024,316.432z"
				/>
			<path d="M336,288h-8c-4.418,0-8,3.582-8,8s3.582,8,8,8h8c4.418,0,8-3.582,8-8S340.418,288,336,288z"/>
			<path d="M152,488h8c4.418,0,8-3.582,8-8s-3.582-8-8-8h-8c-4.418,0-8,3.582-8,8S147.582,488,152,488z"/>
			<path d="M360,32h-8c-4.418,0-8,3.582-8,8s3.582,8,8,8h8c4.418,0,8-3.582,8-8S364.418,32,360,32z"/>
			<path d="M336,488h24c8.837,0,16-7.163,16-16v-24c0-4.418-3.582-8-8-8s-8,3.582-8,8v24h-24c-4.418,0-8,3.582-8,8
				S331.582,488,336,488z"/>
			<path d="M176,192h8c4.418,0,8-3.582,8-8s-3.582-8-8-8h-8c-4.418,0-8,3.582-8,8S171.582,192,176,192z"/>
		</g>
	</g>
</g>
<g>
</g>
<g>
</g>
<g>
</g>
<g>
</g>
<g>
</g>
<g>
</g>
<g>
</g>
<g>
</g>
<g>
</g>
<g>
</g>
<g>
</g>
<g>
</g>
<g>
</g>
<g>
</g>
<g>
</g>
</svg>
