<svg height="473pt" viewBox="-30 0 473 473.85591" width="473pt" xmlns="http://www.w3.org/2000/svg"><path d="m101.152344 422.367188c49.414062 36.167968 98.078125 50.648437 100.125 51.246093 1.082031.316407 2.230468.324219 3.3125.015625 2.117187-.597656 52.445312-15.0625 103.566406-51.199218 30.167969-21.328126 54.234375-45.785157 71.527344-72.699219 21.601562-33.378907 32.984375-72.34375 32.746094-112.101563v-116.023437c0-2.394531-1.429688-4.5625-3.628907-5.511719l-1.316406-.5625c-70.109375-30.167969-136.390625-68.546875-197.457031-114.332031-2.132813-1.597657-5.066406-1.597657-7.199219 0-61.066406 45.785156-127.347656 84.164062-197.457031 114.328125l-1.3125.566406c-2.203125.945312-3.632813 3.113281-3.628906 5.511719v116.023437c0 40.539063 10.632812 78.226563 31.609374 112.015625 16.707032 26.921875 39.960938 51.382813 69.113282 72.722657zm-88.722656-296.8125c68.75-29.792969 133.84375-67.394532 194-112.066407 60.152343 44.671875 125.246093 82.273438 194 112.066407v112.074218c.226562 37.390625-10.457032 74.035156-30.738282 105.445313-16.410156 25.589843-39.351562 48.921875-68.179687 69.351562-44.390625 31.453125-89.402344 46.332031-98.519531 49.152344-8.914063-2.859375-52.277344-17.730469-95.042969-49.105469-27.832031-20.417968-49.976563-43.746094-65.820313-69.324218-19.707031-31.820313-29.699218-67.320313-29.699218-105.519532zm0 0"/><path d="m116.890625 394.429688c41.898437 30.664062 83.183594 42.949218 84.921875 43.457031 1.082031.316406 2.230469.324219 3.316406.015625 1.796875-.507813 44.484375-12.777344 87.824219-43.417969 25.601563-18.097656 46.019531-38.855469 60.699219-61.699219 18.359375-28.363281 28.027344-61.46875 27.828125-95.253906v-98.082031c0-2.398438-1.429688-4.566407-3.632813-5.511719l-1.109375-.476562c-59.191406-25.46875-115.152343-57.875-166.710937-96.53125-2.132813-1.601563-5.066406-1.601563-7.199219 0-51.558594 38.65625-107.519531 71.058593-166.710937 96.53125l-1.113282.476562c-2.203125.945312-3.628906 3.113281-3.632812 5.511719v98.074219c0 34.441406 9.039062 66.464843 26.863281 95.175781 14.183594 22.851562 33.921875 43.621093 58.65625 61.730469zm-73.519531-251.03125c57.761718-25.082032 112.46875-56.679688 163.058594-94.183594 50.585937 37.5 105.292968 69.101562 163.054687 94.183594v94.125c.191406 31.414062-8.78125 62.207031-25.820313 88.605468-3.683593 5.730469-7.691406 11.25-11.992187 16.53125v-.753906c0-3.3125-2.6875-6-6-6-3.316406 0-6 2.6875-6 6v12.230469c0 .585937.085937 1.167969.253906 1.730469-10.304687 10.554687-21.558593 20.132812-33.621093 28.617187-25.410157 17.78125-53.300782 31.71875-82.777344 41.363281-28.535156-9.691406-55.449219-23.617187-79.835938-41.320312-11.230468-8.183594-21.710937-17.351563-31.320312-27.386719.535156-.914063.8125-1.949219.8125-3.007813v-12.230468c0-3.3125-2.683594-6-6-6-3.3125 0-6 2.6875-6 6v2.433594c-4.652344-5.78125-8.945313-11.839844-12.863282-18.140626-16.554687-26.738281-24.949218-56.574218-24.949218-88.675781zm0 0"/><path d="m156.429688 301.242188h100c3.3125 0 6-2.683594 6-6v-31.433594c-.03125-26.875-21.8125-48.648438-48.683594-48.679688h-14.636719c-26.871094.03125-48.648437 21.804688-48.679687 48.679688v31.433594c0 3.316406 2.683593 6 6 6zm6-37.433594c.023437-20.25 16.433593-36.65625 36.679687-36.679688h14.636719c20.246094.023438 36.65625 16.429688 36.683594 36.679688v25.433594h-88zm0 0"/><path d="m206.429688 202.539062c19.308593 0 34.960937-15.652343 34.960937-34.964843 0-19.308594-15.652344-34.964844-34.960937-34.964844-19.3125 0-34.964844 15.65625-34.964844 34.964844.019531 19.300781 15.660156 34.945312 34.964844 34.964843zm0-57.925781c12.679687 0 22.960937 10.28125 22.960937 22.964844 0 12.679687-10.28125 22.960937-22.964844 22.960937-12.679687 0-22.960937-10.28125-22.960937-22.964843.015625-12.675781 10.285156-22.949219 22.964844-22.960938zm0 0"/><path d="m206.429688 335.90625c-3.316407 0-6 2.6875-6 6v12.230469c0 3.3125 2.683593 6 6 6 3.3125 0 6-2.6875 6-6v-12.230469c0-3.3125-2.6875-6-6-6zm0 0"/><path d="m246.175781 335.90625c-3.3125 0-6 2.6875-6 6v12.230469c0 3.3125 2.6875 6 6 6s6-2.6875 6-6v-12.230469c0-3.3125-2.6875-6-6-6zm0 0"/><path d="m285.929688 360.136719c3.3125 0 6-2.6875 6-6v-12.230469c0-3.3125-2.6875-6-6-6-3.316407 0-6 2.6875-6 6v12.230469c0 3.3125 2.683593 6 6 6zm0 0"/><path d="m166.679688 335.90625c-3.3125 0-6 2.6875-6 6v12.230469c0 3.3125 2.6875 6 6 6s6-2.6875 6-6v-12.230469c0-3.3125-2.6875-6-6-6zm0 0"/><path d="m126.929688 360.136719c3.3125 0 6-2.6875 6-6v-12.230469c0-3.3125-2.6875-6-6-6-3.316407 0-6 2.6875-6 6v12.230469c0 3.3125 2.683593 6 6 6zm0 0"/></svg>